{"glyphs":{"0":{"ha":989,"x_min":98,"x_max":891,"o":"m 494 -14 q 210 126 321 -14 q 98 515 98 265 q 218 906 98 766 q 494 1031 325 1031 q 771 906 664 1031 q 891 515 891 766 q 779 126 891 265 q 494 -14 667 -14 m 494 68 q 638 154 581 68 q 711 500 711 263 q 650 843 711 737 q 494 949 590 949 q 296 716 345 949 q 278 529 278 633 q 288 355 278 424 q 313 236 297 286 q 391 106 342 145 q 494 68 440 68 z "},"1":{"ha":553,"x_min":68,"x_max":497,"o":"m 75 75 q 176 87 153 75 q 205 113 199 100 q 212 147 212 127 l 212 732 q 203 796 212 781 q 157 811 195 811 l 68 811 l 68 886 q 207 928 150 886 q 264 1016 264 971 l 361 1017 l 361 147 q 379 94 361 104 q 497 75 410 75 l 497 0 l 75 0 l 75 75 z "},"2":{"ha":814,"x_min":87,"x_max":766,"o":"m 233 850 q 283 774 283 823 q 255 696 283 724 q 197 669 227 669 q 115 701 143 669 q 87 777 87 732 q 186 950 87 869 q 427 1031 286 1031 q 651 951 569 1031 q 734 732 734 871 q 604 473 734 593 q 470 363 547 419 q 352 275 393 308 q 218 129 257 197 l 515 129 q 644 159 613 129 q 669 202 661 176 q 689 267 678 229 l 766 267 l 732 0 l 98 0 l 98 81 q 247 315 98 180 q 410 468 359 417 q 568 775 568 625 q 522 907 568 862 q 399 952 476 952 q 264 897 323 952 q 233 850 245 877 z "},"3":{"ha":825,"x_min":96,"x_max":770,"o":"m 270 865 q 314 782 314 839 q 258 701 314 724 q 221 694 241 694 q 156 724 182 694 q 130 797 130 754 q 217 957 130 884 q 434 1031 304 1031 q 653 960 563 1031 q 743 769 743 890 q 635 567 743 648 q 574 529 605 545 q 715 431 660 498 q 770 290 770 364 q 667 68 770 151 q 422 -14 564 -14 q 184 56 279 -14 q 119 125 142 87 q 96 193 96 163 q 124 278 96 247 q 194 310 152 310 q 279 254 256 310 q 286 218 286 237 q 246 141 286 170 q 395 72 282 72 q 542 126 479 72 q 604 283 604 180 q 544 416 604 358 q 395 475 484 475 l 337 475 l 337 570 l 374 570 q 520 628 463 570 q 576 773 576 686 q 528 903 576 861 q 407 945 479 945 q 293 901 335 945 q 270 865 278 886 z "},"4":{"ha":850,"x_min":51,"x_max":794,"o":"m 51 374 l 528 1017 l 650 1017 l 650 414 q 670 374 650 377 q 687 373 677 373 l 794 373 l 794 292 l 684 292 q 656 284 663 292 q 650 249 650 275 l 650 144 q 667 92 650 102 q 779 73 697 73 l 779 0 l 345 0 l 345 73 q 471 84 450 73 q 496 110 492 94 q 500 151 500 125 l 500 292 l 100 292 l 51 374 m 500 373 l 500 353 l 500 819 l 176 373 l 500 373 z "},"5":{"ha":840,"x_min":88,"x_max":762,"o":"m 229 463 l 117 466 l 171 1017 l 759 1017 q 760 991 760 1010 q 749 955 760 973 q 690 900 728 919 q 585 882 652 882 l 261 882 l 224 572 q 382 663 283 640 q 450 671 415 671 q 682 576 602 671 q 762 342 762 480 q 655 80 762 174 q 407 -14 549 -14 q 177 53 265 -14 q 88 196 88 119 q 146 301 88 273 q 184 310 164 310 q 252 283 226 310 q 278 212 278 256 q 237 140 278 168 q 387 65 274 65 q 530 133 471 65 q 589 315 589 200 q 541 496 589 429 q 395 563 493 563 q 229 463 297 563 z "},"6":{"ha":863,"x_min":94,"x_max":795,"o":"m 259 514 q 502 632 343 632 q 608 610 553 632 q 705 547 663 587 q 795 325 795 460 q 705 88 795 189 q 468 -14 614 -14 q 177 140 275 -14 q 94 465 94 269 q 207 881 94 732 q 490 1031 319 1031 q 686 971 610 1031 q 761 834 761 912 q 703 730 761 757 q 664 721 684 721 q 597 748 623 721 q 571 813 571 775 q 623 896 571 871 q 510 945 594 945 q 329 852 403 945 q 256 603 256 758 q 259 514 256 572 m 281 322 q 300 216 281 271 q 342 132 319 161 q 456 71 388 71 q 578 138 527 71 q 630 313 630 205 q 583 483 630 422 q 458 545 535 545 q 331 484 381 545 q 281 322 281 423 z "},"7":{"ha":781,"x_min":63,"x_max":736,"o":"m 301 13 q 295 20 301 13 q 281 52 289 27 q 273 126 273 77 q 288 239 273 176 q 326 369 302 303 q 383 500 351 434 q 452 630 416 566 q 525 759 488 695 q 597 882 563 822 l 325 882 q 172 812 202 882 q 156 758 161 789 l 149 715 l 63 714 l 110 1017 l 698 1017 l 736 930 q 479 376 539 650 q 446 175 456 267 q 427 52 436 84 q 402 3 418 20 q 364 -14 386 -14 q 328 -8 342 -14 q 301 13 313 -2 z "},"8":{"ha":848,"x_min":83,"x_max":770,"o":"m 277 538 q 133 766 133 641 q 222 961 133 891 q 433 1031 311 1031 q 638 963 555 1031 q 721 779 721 896 q 680 641 721 708 q 571 540 639 573 q 701 441 665 485 q 753 358 737 398 q 770 264 770 317 q 676 69 770 151 q 424 -14 582 -14 q 175 60 267 -14 q 83 272 83 133 q 203 496 83 411 q 277 538 238 522 m 497 581 q 595 778 595 633 q 504 940 595 900 q 441 953 475 953 q 330 913 373 953 q 287 822 287 874 q 304 737 287 770 q 358 671 322 705 q 497 581 393 638 m 351 491 q 224 260 224 441 q 276 127 224 184 q 414 71 329 71 q 552 114 499 71 q 604 233 604 157 q 442 435 604 337 q 351 491 397 463 z "},"9":{"ha":863,"x_min":78,"x_max":779,"o":"m 614 503 q 382 385 527 385 q 168 471 257 385 q 78 692 78 557 q 169 929 78 828 q 406 1031 259 1031 q 696 878 599 1031 q 779 552 779 748 q 667 136 779 286 q 384 -14 554 -14 q 188 43 264 -14 q 113 173 113 100 q 171 274 113 246 q 209 283 189 283 q 276 256 250 283 q 302 191 302 229 q 255 109 302 134 q 354 72 287 72 q 548 164 479 72 q 618 414 618 256 q 614 503 618 446 m 414 473 q 452 473 414 473 q 540 538 490 473 q 590 712 590 603 q 539 884 590 821 q 417 946 488 946 q 295 879 347 946 q 243 704 243 812 q 291 534 243 595 q 414 473 338 473 z "},"\u0000":{"ha":0,"x_min":0,"x_max":0,"o":""},"\r":{"ha":0,"x_min":0,"x_max":0,"o":""},"\u0001":{"ha":0,"x_min":0,"x_max":0,"o":""},"\u0002":{"ha":0,"x_min":0,"x_max":0,"o":""},"\u0003":{"ha":0,"x_min":0,"x_max":0,"o":""},"\u0004":{"ha":0,"x_min":0,"x_max":0,"o":""},"\u0005":{"ha":0,"x_min":0,"x_max":0,"o":""},"\u0006":{"ha":0,"x_min":0,"x_max":0,"o":""},"\u0007":{"ha":0,"x_min":0,"x_max":0,"o":""},"\b":{"ha":0,"x_min":0,"x_max":0,"o":""},"\t":{"ha":0,"x_min":0,"x_max":0,"o":""},"\n":{"ha":0,"x_min":0,"x_max":0,"o":""},"\u0010":{"ha":0,"x_min":0,"x_max":0,"o":""},"\u0011":{"ha":0,"x_min":0,"x_max":0,"o":""},"\u0012":{"ha":0,"x_min":0,"x_max":0,"o":""},"\u0013":{"ha":0,"x_min":0,"x_max":0,"o":""},"\u0014":{"ha":0,"x_min":0,"x_max":0,"o":""},"\u0015":{"ha":0,"x_min":0,"x_max":0,"o":""},"\u0016":{"ha":0,"x_min":0,"x_max":0,"o":""},"\u0017":{"ha":0,"x_min":0,"x_max":0,"o":""},"\u0018":{"ha":0,"x_min":0,"x_max":0,"o":""},"\u0019":{"ha":0,"x_min":0,"x_max":0,"o":""},"\u001e":{"ha":0,"x_min":0,"x_max":0,"o":""},"\u001f":{"ha":0,"x_min":0,"x_max":0,"o":""}," ":{"ha":463,"x_min":0,"x_max":0,"o":""},"!":{"ha":397,"x_min":94,"x_max":302,"o":"m 169 304 q 149 474 160 389 q 104 982 110 797 q 199 1031 102 1031 q 290 1009 271 1031 q 298 982 299 999 q 268 590 292 792 q 235 304 244 389 l 169 304 m 94 91 q 124 165 94 134 q 198 195 155 195 q 272 165 241 195 q 302 91 302 134 q 272 17 302 47 q 198 -14 241 -14 q 124 17 155 -14 q 94 91 94 47 z "},"\"":{"ha":770,"x_min":154,"x_max":625,"o":"m 154 581 m 156 896 q 154 928 154 914 q 168 996 154 972 q 244 1031 188 1031 q 322 993 300 1031 q 334 945 334 973 q 325 882 334 917 l 254 607 q 221 581 247 581 q 199 590 208 581 q 188 614 189 600 l 156 896 m 447 896 q 445 928 445 914 q 458 996 445 972 q 535 1031 479 1031 q 613 993 591 1031 q 625 945 625 973 q 616 882 625 917 l 545 607 q 512 581 538 581 q 490 590 499 581 q 479 614 480 600 l 447 896 z "},"#":{"ha":1155,"x_min":144,"x_max":1025,"o":"m 161 380 l 351 380 l 379 624 l 171 624 l 188 753 l 394 753 l 425 1017 l 523 1017 l 492 753 l 733 753 l 764 1017 l 862 1017 l 831 753 l 1025 753 l 1008 624 l 816 624 l 788 380 l 998 380 l 981 251 l 773 251 l 744 0 l 646 0 l 675 251 l 434 251 l 405 0 l 307 0 l 336 251 l 144 251 l 161 380 m 690 380 l 718 624 l 477 624 l 449 380 l 690 380 z "},"$":{"ha":856,"x_min":87,"x_max":765,"o":"m 431 -14 l 404 -13 l 379 -241 l 312 -241 l 337 -6 q 156 67 224 11 q 87 194 87 123 q 149 293 87 266 q 190 302 168 302 q 261 273 233 302 q 288 201 288 245 q 248 127 288 157 q 346 77 281 94 l 382 413 q 216 525 260 481 q 149 614 172 570 q 126 718 126 659 q 218 904 126 831 q 440 977 310 977 l 442 977 l 466 1202 l 533 1202 l 509 972 q 685 896 619 956 q 751 758 751 837 q 723 683 751 713 q 654 653 696 653 q 585 680 613 653 q 557 754 557 707 q 603 829 557 800 q 500 891 578 878 l 465 566 l 481 557 q 661 440 610 486 q 738 348 711 394 q 765 243 765 302 q 672 56 765 125 q 431 -14 578 -14 m 433 895 q 290 823 329 890 q 277 771 277 800 q 310 681 277 722 q 402 602 343 640 l 433 895 m 412 68 q 425 68 418 68 l 438 68 q 598 138 556 68 q 614 196 614 163 q 571 293 614 252 q 446 379 528 334 l 412 68 z "},"%":{"ha":1255,"x_min":81,"x_max":1173,"o":"m 322 529 q 152 598 222 529 q 81 782 81 667 q 150 963 81 896 q 322 1031 219 1031 q 494 963 425 1031 q 563 782 563 896 q 493 598 563 667 q 322 529 422 529 m 855 1017 l 953 1017 l 394 0 l 296 0 l 855 1017 m 322 959 q 221 781 221 959 q 251 643 221 685 q 322 601 280 601 q 414 694 389 601 q 423 781 423 730 q 395 916 423 873 q 322 959 367 959 m 692 239 q 692 296 692 239 q 761 421 692 353 q 932 488 829 488 q 1104 421 1036 488 q 1173 239 1173 353 q 1103 56 1173 125 q 932 -14 1033 -14 q 762 56 832 -14 q 692 239 692 125 m 831 239 q 861 100 831 142 q 932 58 890 58 q 1024 151 1000 58 q 1034 239 1034 187 q 1005 373 1034 330 q 932 416 977 416 q 831 239 831 416 z "},"&":{"ha":1136,"x_min":75,"x_max":1114,"o":"m 653 83 q 399 -14 546 -14 q 164 67 253 -14 q 75 279 75 149 q 139 444 75 366 q 311 562 203 521 q 230 721 244 672 q 216 809 216 770 q 282 964 216 898 q 455 1031 347 1031 q 670 937 605 1031 q 696 850 696 900 q 480 552 696 697 q 692 248 580 393 q 789 460 758 343 q 793 493 793 474 q 772 531 793 511 q 694 553 751 550 l 689 619 l 1040 619 l 1044 553 q 911 487 952 545 q 845 363 898 469 q 742 186 791 258 q 869 73 820 96 q 917 62 891 62 q 998 99 971 62 q 950 127 968 104 q 932 184 932 150 q 961 245 932 218 q 1018 273 989 273 q 1064 264 1047 273 q 1114 187 1114 241 q 1051 39 1114 92 q 904 -14 987 -14 q 653 83 753 -14 m 439 621 q 536 723 507 675 q 566 831 566 771 q 530 924 566 889 q 448 960 495 960 q 378 923 401 960 q 356 832 356 886 q 388 716 356 779 q 439 621 419 653 m 350 498 q 231 290 231 424 q 287 138 231 196 q 431 81 343 81 q 599 144 519 81 q 350 498 472 302 z "},"'":{"ha":479,"x_min":156,"x_max":336,"o":"m 158 896 q 156 928 156 914 q 170 996 156 972 q 246 1031 190 1031 q 324 993 302 1031 q 336 945 336 973 q 327 882 336 917 l 256 607 q 223 581 249 581 q 201 590 210 581 q 190 614 191 600 l 158 896 z "},"(":{"ha":557,"x_min":108,"x_max":504,"o":"m 256 462 q 504 -249 256 9 l 464 -303 q 266 -104 351 -237 q 118 319 150 77 q 108 462 108 393 q 197 896 108 683 q 355 1141 257 1039 q 464 1227 405 1192 l 504 1173 q 256 462 256 914 z "},")":{"ha":557,"x_min":53,"x_max":450,"o":"m 53 0 m 302 462 q 54 -249 302 9 l 94 -303 q 292 -104 206 -237 q 439 319 408 77 q 450 462 450 393 q 361 896 450 683 q 202 1141 300 1039 q 94 1227 153 1192 l 54 1173 q 302 462 302 914 z "},"*":{"ha":699,"x_min":28,"x_max":670,"o":"m 583 698 l 479 705 q 437 699 458 705 q 419 655 399 686 q 476 604 438 624 q 533 571 513 583 q 581 501 581 543 q 550 436 581 459 q 504 414 519 414 q 416 486 435 414 q 401 550 410 507 q 374 616 393 593 q 325 618 346 648 q 293 530 304 589 q 261 442 281 471 q 210 414 241 414 q 159 429 180 414 q 118 485 123 454 q 130 537 113 515 q 165 572 146 559 q 221 604 184 584 q 277 651 258 625 q 262 699 298 687 q 222 705 242 705 l 117 697 q 35 740 58 697 q 28 770 28 754 q 34 804 28 787 q 73 854 46 841 q 169 837 119 877 q 219 793 186 823 q 279 755 251 764 q 309 756 298 751 q 320 784 320 761 q 294 872 320 816 q 268 959 268 929 q 289 1011 268 989 q 349 1033 310 1033 q 410 1011 389 1033 q 431 963 431 989 q 405 872 431 929 q 378 784 378 816 q 416 753 383 742 q 480 793 448 764 q 529 837 512 823 q 565 857 547 851 q 626 854 599 869 q 661 813 652 840 q 670 770 670 787 q 660 734 670 754 q 583 698 642 698 z "},"+":{"ha":922,"x_min":86,"x_max":833,"o":"m 404 406 l 86 406 l 86 516 l 404 516 l 404 834 l 515 834 l 515 516 l 833 516 l 833 406 l 515 406 l 515 87 l 404 87 l 404 406 z "},",":{"ha":463,"x_min":48,"x_max":357,"o":"m 119 115 q 119 136 119 115 q 154 189 119 157 q 225 221 190 221 q 322 183 288 221 q 357 83 357 144 q 279 -143 357 -43 q 81 -262 201 -243 l 48 -216 q 146 -165 107 -196 q 218 -47 218 -107 q 188 12 218 -9 q 160 32 173 22 q 138 52 147 41 q 119 115 119 73 z "},"-":{"ha":675,"x_min":81,"x_max":593,"o":"m 81 414 l 593 414 l 593 304 l 81 304 l 81 414 z "},".":{"ha":464,"x_min":130,"x_max":342,"o":"m 130 88 q 161 162 130 132 q 236 192 193 192 q 311 162 279 192 q 342 88 342 132 q 311 16 342 45 q 236 -14 280 -14 q 161 16 192 -14 q 130 88 130 45 z "},"/":{"ha":692,"x_min":90,"x_max":618,"o":"m 513 1090 l 618 1090 l 195 -100 l 90 -100 l 513 1090 z "},":":{"ha":464,"x_min":130,"x_max":342,"o":"m 130 0 m 130 88 q 161 162 130 132 q 236 192 193 192 q 311 162 279 192 q 342 88 342 132 q 311 16 342 45 q 236 -14 280 -14 q 161 16 192 -14 q 130 88 130 45 m 130 549 q 161 622 130 592 q 236 652 193 652 q 311 622 279 652 q 342 549 342 592 q 311 476 342 506 q 236 447 280 447 q 161 476 192 447 q 130 549 130 506 z "},";":{"ha":464,"x_min":48,"x_max":357,"o":"m 48 0 m 130 549 q 161 622 130 592 q 236 652 193 652 q 311 622 279 652 q 342 549 342 592 q 311 476 342 506 q 236 447 280 447 q 161 476 192 447 q 130 549 130 506 m 119 115 q 119 136 119 115 q 154 189 119 157 q 225 221 190 221 q 322 183 288 221 q 357 83 357 144 q 279 -143 357 -43 q 81 -262 201 -243 l 48 -216 q 146 -165 107 -196 q 218 -47 218 -107 q 188 12 218 -9 q 160 32 173 22 q 138 52 147 41 q 119 115 119 73 z "},"<":{"ha":1042,"x_min":81,"x_max":834,"o":"m 81 463 l 834 857 l 834 739 l 286 447 l 834 156 l 834 38 l 81 432 l 81 463 z "},"=":{"ha":922,"x_min":86,"x_max":833,"o":"m 86 667 l 833 667 l 833 557 l 86 557 l 86 667 m 86 364 l 833 364 l 833 254 l 86 254 l 86 364 z "},">":{"ha":1042,"x_min":185,"x_max":939,"o":"m 185 55 m 939 479 l 186 873 l 186 755 l 734 464 l 186 173 l 186 55 l 939 449 l 939 479 z "},"?":{"ha":709,"x_min":35,"x_max":644,"o":"m 281 336 q 335 494 281 422 q 385 554 358 526 q 488 800 488 665 q 398 937 488 907 q 345 946 372 946 q 243 924 289 946 q 178 857 197 901 q 232 821 212 848 q 252 752 252 793 q 225 680 252 710 q 147 650 199 650 q 45 718 74 650 q 35 780 35 742 q 54 864 35 819 q 115 947 73 909 q 342 1031 208 1031 q 560 958 476 1031 q 644 766 644 884 q 509 520 644 647 q 395 394 424 441 q 362 305 366 348 l 281 305 l 281 336 m 226 91 q 256 165 226 134 q 330 195 287 195 q 404 165 374 195 q 435 91 435 134 q 404 17 435 47 q 330 -14 374 -14 q 256 17 287 -14 q 226 91 226 47 z "},"@":{"ha":1349,"x_min":107,"x_max":1254,"o":"m 1106 -58 q 735 -190 958 -190 q 281 -31 455 -190 q 107 385 107 127 q 191 724 107 577 q 421 950 275 871 q 747 1029 568 1029 q 1132 886 996 1029 q 1254 553 1254 758 q 1170 264 1253 390 q 941 139 1086 139 q 815 204 853 139 q 800 253 803 225 q 713 170 764 200 q 610 139 663 139 q 477 200 519 139 q 435 325 435 261 q 446 437 435 389 q 477 528 457 486 q 587 667 517 614 q 732 721 656 721 q 852 674 808 721 l 862 715 l 992 715 l 909 363 q 901 293 901 323 q 966 214 901 214 q 1104 314 1048 214 q 1161 533 1161 415 q 1054 847 1161 748 q 756 946 946 946 q 398 787 535 946 q 260 380 260 629 q 392 35 260 174 q 747 -104 524 -104 q 1021 -34 905 -104 q 1076 7 1055 -14 l 1106 -58 m 838 617 q 767 649 810 649 q 634 546 688 649 q 579 335 579 443 q 648 227 579 227 q 838 617 767 227 z "},"A":{"ha":1072,"x_min":-7,"x_max":1067,"o":"m -7 75 q 78 92 49 75 q 122 149 106 109 l 488 1017 l 604 1017 l 939 149 q 980 90 958 105 q 1067 75 1002 75 l 1067 0 l 649 0 l 649 75 q 755 87 739 75 q 771 113 772 99 q 762 149 770 127 l 701 319 l 307 319 l 237 149 q 246 91 221 108 q 363 75 271 75 l 363 0 l -7 0 l -7 75 m 674 393 l 517 833 l 337 393 l 674 393 z "},"B":{"ha":924,"x_min":49,"x_max":876,"o":"m 650 536 q 876 286 876 477 q 851 162 876 206 q 798 90 827 117 q 461 0 700 0 l 50 0 l 50 75 q 138 87 121 75 q 159 114 156 100 q 163 149 163 128 l 163 869 q 148 924 163 913 q 49 943 121 943 l 49 1017 l 427 1017 q 787 887 701 1017 q 821 767 821 836 q 650 536 821 606 m 408 557 q 639 669 597 562 q 652 747 652 704 q 598 891 652 839 q 414 943 545 943 l 315 943 l 315 557 l 408 557 m 448 75 q 694 206 650 75 q 707 290 707 245 q 636 439 707 384 q 441 496 565 494 q 412 496 427 496 q 382 496 397 496 l 315 496 l 315 75 l 448 75 z "},"C":{"ha":1011,"x_min":53,"x_max":909,"o":"m 541 75 q 811 271 755 75 l 909 271 q 880 167 909 218 q 800 76 852 116 q 507 -14 686 -14 q 201 106 328 -14 q 53 509 53 243 q 167 865 53 720 q 382 1010 248 969 q 534 1031 451 1031 q 802 956 697 1031 q 907 768 907 881 q 841 654 907 683 q 798 645 821 645 q 703 705 727 645 q 695 750 695 724 q 710 802 695 777 q 749 841 725 827 q 553 946 694 946 q 322 839 411 946 q 233 516 233 731 q 323 188 233 300 q 541 75 414 75 z "},"D":{"ha":1020,"x_min":49,"x_max":967,"o":"m 49 75 q 138 87 121 75 q 159 114 156 100 q 163 149 163 128 l 163 869 q 148 924 163 913 q 49 943 121 943 l 49 1017 l 413 1017 q 940 730 851 1017 q 967 537 967 640 q 947 357 967 435 q 890 220 926 279 q 698 53 820 106 q 427 0 576 0 l 49 0 l 49 75 m 441 75 q 790 530 790 75 q 694 837 790 724 q 407 949 597 949 l 315 949 l 315 75 l 441 75 z "},"E":{"ha":907,"x_min":48,"x_max":853,"o":"m 48 75 q 133 87 114 75 q 157 113 152 99 q 163 147 163 127 l 163 869 q 138 927 163 911 q 49 943 113 943 l 49 1017 l 787 1017 l 813 771 l 715 770 l 696 847 q 669 916 683 902 q 584 941 644 941 l 315 941 l 315 547 l 447 547 q 541 557 524 547 q 565 586 558 567 q 571 641 571 605 l 659 641 l 659 378 l 571 378 q 546 457 571 441 q 447 472 522 472 l 315 472 l 315 75 l 604 75 q 708 127 682 75 q 724 161 716 144 l 755 245 l 853 245 l 827 0 l 48 0 l 48 75 z "},"F":{"ha":863,"x_min":49,"x_max":800,"o":"m 49 75 q 138 87 121 75 q 159 114 156 100 q 163 149 163 128 l 163 869 q 138 927 163 911 q 49 943 113 943 l 49 1017 l 773 1017 l 800 771 l 701 770 l 683 847 q 655 916 669 902 q 570 941 630 941 l 315 941 l 315 547 l 440 547 q 534 557 517 547 q 558 586 551 567 q 564 641 564 605 l 652 641 l 652 378 l 564 378 q 539 457 564 441 q 440 472 515 472 l 315 472 l 315 182 q 320 127 315 148 q 354 90 326 106 q 528 75 383 75 l 528 0 l 49 0 l 49 75 z "},"G":{"ha":1048,"x_min":53,"x_max":930,"o":"m 125 205 q 108 234 125 205 q 72 339 91 263 q 53 493 53 414 q 65 636 53 572 q 104 758 78 700 q 271 957 159 882 q 548 1031 384 1031 q 821 949 712 1031 q 930 751 930 868 q 867 643 930 671 q 825 634 847 634 q 754 661 781 634 q 727 724 727 688 q 785 823 727 796 q 692 913 758 880 q 559 946 627 946 q 323 838 414 946 q 232 515 232 730 q 327 187 232 300 q 557 75 422 75 q 729 130 668 75 q 789 253 789 186 q 759 337 789 319 q 619 354 728 354 l 619 444 l 930 444 l 930 0 l 839 0 l 814 81 q 633 -4 755 20 q 532 -14 589 -14 q 416 -1 475 -14 q 304 38 357 12 q 204 106 250 64 q 125 205 159 147 z "},"H":{"ha":1136,"x_min":49,"x_max":1088,"o":"m 49 75 q 133 87 113 75 q 158 114 153 100 q 163 149 163 128 l 163 869 q 148 924 163 913 q 49 943 121 943 l 49 1017 l 430 1017 l 430 943 q 346 930 366 943 q 321 903 326 918 q 315 869 315 889 l 315 566 l 821 566 l 821 869 q 806 924 821 913 q 707 943 779 943 l 707 1017 l 1088 1017 l 1088 943 q 1004 930 1023 943 q 979 903 984 918 q 973 869 973 889 l 974 149 q 989 94 974 104 q 1088 75 1016 75 l 1088 0 l 707 0 l 707 75 q 791 87 771 75 q 816 114 810 100 q 821 149 821 128 l 821 477 l 315 477 l 316 149 q 331 94 316 104 q 430 75 358 75 l 430 0 l 49 0 l 49 75 z "},"I":{"ha":490,"x_min":55,"x_max":436,"o":"m 55 75 q 139 87 119 75 q 164 114 159 100 q 170 149 170 128 l 169 869 q 153 924 169 913 q 55 943 127 943 l 55 1017 l 436 1017 l 436 943 q 352 930 372 943 q 327 903 332 918 q 321 869 321 889 l 322 149 q 338 94 322 104 q 436 75 364 75 l 436 0 l 55 0 l 55 75 z "},"J":{"ha":867,"x_min":56,"x_max":808,"o":"m 354 73 q 542 349 542 73 l 542 869 q 524 924 542 913 q 401 943 490 943 l 401 1017 l 808 1017 l 808 943 q 724 930 744 943 q 699 903 705 918 q 694 869 694 889 l 694 349 q 507 9 694 81 q 372 -14 446 -14 q 144 58 232 -14 q 56 235 56 130 q 88 327 56 292 q 167 363 120 363 q 243 332 214 363 q 272 263 272 302 q 253 197 272 224 q 204 157 234 170 q 262 95 220 118 q 354 73 304 73 z "},"K":{"ha":1059,"x_min":49,"x_max":1033,"o":"m 608 75 q 690 177 755 78 l 482 510 l 315 348 l 316 149 q 331 94 316 104 q 429 75 357 75 l 429 0 l 49 0 l 49 75 q 133 87 113 75 q 158 114 153 100 q 163 149 163 128 l 163 869 q 148 924 163 913 q 49 943 121 943 l 49 1017 l 429 1017 l 429 943 q 345 930 364 943 q 321 903 326 918 q 315 869 315 889 l 315 463 l 719 867 q 728 923 756 903 q 636 943 701 943 l 636 1017 l 999 1017 l 999 943 q 924 925 954 940 q 861 877 895 911 l 582 606 l 863 176 q 935 98 897 121 q 1024 75 973 75 q 1033 75 1029 75 l 1033 0 l 608 0 l 608 75 z "},"L":{"ha":865,"x_min":49,"x_max":820,"o":"m 49 75 q 133 87 113 75 q 158 114 153 100 q 163 149 163 128 l 163 869 q 148 924 163 913 q 49 943 121 943 l 49 1017 l 431 1017 l 431 943 q 347 930 366 943 q 321 903 327 918 q 316 869 316 889 l 316 79 l 550 79 q 699 197 659 79 l 726 274 l 820 273 l 773 0 l 49 0 l 49 75 z "},"M":{"ha":1336,"x_min":56,"x_max":1281,"o":"m 56 75 q 139 87 119 75 q 164 114 159 100 q 170 149 170 128 l 170 869 q 155 924 170 913 q 56 943 127 943 l 56 1017 l 376 1017 l 676 233 l 964 1017 l 1281 1017 l 1281 943 q 1197 930 1217 943 q 1172 903 1177 918 q 1166 869 1166 889 l 1166 149 q 1182 94 1166 105 q 1281 75 1209 75 l 1281 0 l 905 0 l 905 75 q 987 87 968 75 q 1010 114 1006 100 q 1015 149 1015 128 l 1015 872 l 701 0 l 625 0 l 278 873 l 278 149 q 293 94 278 104 q 392 75 320 75 l 392 0 l 56 0 l 56 75 z "},"N":{"ha":1119,"x_min":45,"x_max":1087,"o":"m 45 76 q 132 89 112 76 q 157 116 151 102 q 163 151 163 131 l 163 866 q 146 922 163 910 q 45 941 119 941 l 45 1017 l 279 1017 l 861 279 l 861 866 q 846 922 861 911 q 745 941 819 941 l 745 1017 l 1087 1017 l 1087 941 q 1001 928 1021 941 q 976 901 981 916 q 970 866 970 886 l 970 0 l 886 0 l 271 781 l 271 151 q 288 96 271 107 q 389 76 315 76 l 389 0 l 45 0 l 45 76 z "},"O":{"ha":1065,"x_min":53,"x_max":1012,"o":"m 53 509 q 92 738 53 637 q 198 903 132 838 q 532 1031 329 1031 q 867 905 736 1031 q 1012 512 1012 766 q 879 122 1012 258 q 532 -14 745 -14 q 186 124 320 -14 q 53 509 53 262 m 534 75 q 734 163 653 75 q 836 501 836 274 q 749 836 836 728 q 530 943 662 943 q 314 836 399 943 q 229 515 229 729 q 397 111 229 208 q 534 75 459 75 z "},"P":{"ha":861,"x_min":49,"x_max":814,"o":"m 50 75 q 138 87 121 75 q 159 114 156 100 q 163 149 163 128 l 163 869 q 148 924 163 913 q 49 943 121 943 l 49 1017 l 420 1017 q 781 863 698 1017 q 814 715 814 802 q 780 566 814 629 q 404 396 686 396 q 378 397 391 396 l 315 397 l 315 182 q 319 127 315 148 q 346 90 323 106 q 488 75 369 75 l 488 0 l 50 0 l 50 75 m 391 465 q 584 527 517 465 q 651 717 651 590 q 522 924 651 871 q 410 943 476 943 l 315 943 l 315 465 l 391 465 z "},"Q":{"ha":1065,"x_min":53,"x_max":1038,"o":"m 634 -4 q 532 -14 585 -14 q 186 124 319 -14 q 53 512 53 261 q 198 905 53 763 q 531 1031 328 1031 q 867 906 734 1031 q 1012 513 1012 768 q 871 118 1012 258 q 772 43 827 73 q 844 -121 804 -85 q 882 -135 860 -135 q 944 -102 922 -135 q 966 -26 966 -69 l 1032 -26 q 1038 -68 1038 -45 q 1032 -112 1038 -90 q 978 -198 1019 -163 q 875 -233 937 -233 q 711 -161 769 -233 q 634 -4 669 -111 m 735 168 q 836 511 836 288 q 749 839 836 735 q 532 943 663 943 q 315 836 401 943 q 229 515 229 728 q 344 150 229 264 q 404 280 355 222 q 531 338 452 338 q 704 233 644 338 q 735 168 722 203 m 415 100 q 616 87 511 54 q 507 244 584 244 q 441 206 465 244 q 415 100 418 168 z "},"R":{"ha":1000,"x_min":49,"x_max":998,"o":"m 872 84 q 925 206 925 84 l 990 206 q 998 163 998 182 q 997 124 998 145 q 981 68 996 102 q 841 -14 943 -14 q 697 38 739 -14 q 637 143 655 90 q 609 236 620 196 q 559 378 578 345 q 465 442 524 442 l 315 442 l 315 182 q 319 127 315 148 q 343 90 322 106 q 469 75 363 75 l 469 0 l 50 0 l 50 75 q 138 87 121 75 q 159 114 156 100 q 163 149 163 128 l 163 869 q 148 924 163 913 q 49 943 121 943 l 49 1017 l 465 1017 q 836 811 799 1017 q 842 732 842 777 q 781 565 842 634 q 614 466 720 496 q 750 319 705 438 q 783 220 765 281 q 811 136 800 159 q 872 84 835 84 m 467 510 q 631 566 583 510 q 679 727 679 622 q 623 888 679 833 q 425 943 566 943 l 315 943 l 315 510 l 467 510 z "},"S":{"ha":805,"x_min":71,"x_max":741,"o":"m 570 902 q 419 949 534 949 q 259 872 303 949 q 244 807 244 846 q 308 677 244 736 q 424 596 350 637 q 549 522 498 555 q 741 255 741 400 q 647 56 741 126 q 402 -14 552 -14 q 161 46 252 -14 q 71 182 71 105 q 132 286 71 259 q 174 295 151 295 q 244 267 216 295 q 271 195 271 238 q 232 121 271 151 q 407 68 285 68 q 575 151 530 68 q 591 217 591 179 q 524 339 591 283 q 405 415 488 368 q 273 492 321 461 q 96 761 96 606 q 187 956 96 882 q 413 1031 278 1031 q 634 973 547 1031 q 720 833 720 916 q 693 758 720 788 q 623 728 665 728 q 534 784 559 728 q 526 820 526 801 q 570 902 526 872 z "},"T":{"ha":934,"x_min":5,"x_max":928,"o":"m 249 75 q 351 87 326 75 q 383 114 376 100 q 391 149 391 128 l 391 939 l 252 939 q 123 820 140 939 l 104 682 l 5 683 l 35 1017 l 899 1017 l 928 683 l 830 682 l 810 820 q 781 898 803 875 q 682 939 742 939 l 543 939 l 543 149 q 571 90 543 106 q 685 75 600 75 l 685 0 l 249 0 l 249 75 z "},"U":{"ha":1087,"x_min":35,"x_max":1053,"o":"m 553 85 q 822 420 822 85 l 822 869 q 807 924 822 913 q 708 943 780 943 l 708 1017 l 1053 1017 l 1053 943 q 968 930 988 943 q 943 903 949 918 q 938 869 938 889 l 939 427 q 703 12 939 94 q 557 -14 627 -14 q 440 -4 488 -14 q 350 28 393 6 q 199 172 255 75 q 142 420 142 268 l 142 869 q 127 924 142 912 q 35 943 102 943 l 35 1017 l 415 1017 l 415 943 q 326 930 347 943 q 299 903 305 918 q 294 869 294 889 l 294 406 q 368 164 294 243 q 553 85 441 85 z "},"V":{"ha":1007,"x_min":-31,"x_max":1038,"o":"m 98 869 q 57 927 79 912 q -31 943 35 943 l -31 1017 l 395 1017 l 395 943 q 289 930 305 943 q 274 904 273 918 q 283 869 275 890 l 537 199 l 793 869 q 784 926 809 909 q 667 943 759 943 l 667 1017 l 1038 1017 l 1038 943 q 953 926 981 943 q 908 869 924 909 l 555 0 l 467 0 l 98 869 z "},"W":{"ha":1411,"x_min":-31,"x_max":1442,"o":"m 83 869 q 46 927 67 911 q -31 943 24 943 l -31 1017 l 366 1017 l 366 943 q 261 930 277 943 q 246 904 245 918 q 254 869 247 890 l 445 241 l 690 1017 l 779 1017 l 1029 244 l 1216 869 q 1219 898 1219 881 q 1195 928 1219 914 q 1091 943 1170 943 l 1091 1017 l 1442 1017 l 1442 943 q 1364 926 1391 943 q 1324 869 1337 909 l 1046 0 l 958 0 l 707 743 l 465 0 l 386 0 l 83 869 z "},"X":{"ha":1069,"x_min":47,"x_max":1027,"o":"m 47 75 q 197 149 144 75 l 457 503 l 223 869 q 163 925 199 907 q 61 943 127 943 l 61 1017 l 471 1017 l 471 943 q 391 926 402 943 q 405 869 380 909 l 572 607 l 743 869 q 749 925 768 907 q 650 943 730 943 l 650 1017 l 1007 1017 l 1007 943 q 857 869 905 943 l 627 520 l 865 149 q 924 93 888 112 q 1027 75 961 75 l 1027 0 l 617 0 l 617 75 q 698 91 686 75 q 684 149 709 108 l 512 416 l 312 149 q 338 80 271 94 q 405 75 363 75 l 405 0 l 47 0 l 47 75 z "},"Y":{"ha":926,"x_min":-31,"x_max":956,"o":"m 262 75 q 363 87 338 75 q 395 114 388 100 q 402 149 402 128 l 401 341 l 118 869 q 71 922 95 910 q -31 943 31 943 l -31 1017 l 362 1017 l 362 943 q 286 926 297 943 q 296 869 275 910 l 497 455 l 709 869 q 718 922 730 910 q 606 943 694 943 l 606 1017 l 956 1017 l 956 943 q 874 926 906 943 q 820 869 842 909 l 547 368 l 547 149 q 574 90 547 106 q 687 75 602 75 l 687 0 l 262 0 l 262 75 z "},"Z":{"ha":890,"x_min":66,"x_max":843,"o":"m 66 81 l 642 935 l 321 935 q 219 890 250 935 q 188 739 188 845 l 86 739 l 100 1017 l 821 1017 l 821 936 l 245 83 l 585 83 q 739 301 739 83 l 843 301 l 809 0 l 66 0 l 66 81 z "},"[":{"ha":552,"x_min":163,"x_max":498,"o":"m 163 1194 l 498 1194 l 498 1119 l 296 1119 l 296 -197 l 498 -197 l 498 -271 l 163 -271 l 163 1194 z "},"\\":{"ha":692,"x_min":74,"x_max":603,"o":"m 74 0 m 179 1090 l 75 1090 l 498 -100 l 603 -100 l 179 1090 z "},"]":{"ha":552,"x_min":53,"x_max":389,"o":"m 53 0 m 389 1194 l 54 1194 l 54 1119 l 256 1119 l 256 -197 l 54 -197 l 54 -271 l 389 -271 l 389 1194 z "},"^":{"ha":1037,"x_min":164,"x_max":872,"o":"m 477 1090 l 559 1090 l 872 410 l 768 368 l 518 921 l 269 368 l 164 410 l 477 1090 z "},"_":{"ha":969,"x_min":-12,"x_max":970,"o":"m 970 -129 l 970 -217 l -12 -217 l -12 -129 l 970 -129 z "},"`":{"ha":0,"x_min":-146,"x_max":64,"o":"m 62 858 q 64 841 64 850 q 55 820 64 831 q 30 810 46 810 q -31 851 -5 810 l -119 998 q -146 1078 -146 1044 q -68 1146 -146 1146 q -6 1117 -25 1146 q 28 1018 14 1088 l 62 858 z "},"a":{"ha":795,"x_min":65,"x_max":810,"o":"m 648 162 q 680 81 648 81 q 724 102 710 81 q 739 177 739 123 l 810 177 q 810 149 810 168 q 780 43 810 88 q 661 -14 743 -14 q 571 16 608 -14 q 519 95 534 46 q 271 -14 421 -14 q 126 35 188 -14 q 65 170 65 83 q 288 393 65 321 q 456 455 429 437 q 493 490 484 472 q 501 530 501 508 q 462 597 501 570 q 359 624 422 624 q 248 590 296 624 q 282 526 282 565 q 256 463 282 486 q 193 439 230 439 q 132 461 156 439 q 108 524 108 484 q 188 652 108 603 q 382 701 268 701 q 633 568 587 701 q 648 467 648 524 l 648 162 m 349 331 q 259 265 289 305 q 229 177 229 224 q 255 105 229 130 q 319 81 281 81 q 450 136 398 81 q 501 290 501 191 l 501 395 q 409 354 458 372 q 349 331 361 336 z "},"b":{"ha":837,"x_min":26,"x_max":778,"o":"m 258 79 q 229 0 229 52 l 129 0 l 129 876 q 120 939 129 924 q 74 954 112 954 l 26 954 l 26 1029 q 129 1039 92 1029 q 183 1053 167 1048 q 217 1057 199 1057 q 264 1037 253 1057 q 275 970 275 1016 l 275 607 q 483 701 348 701 q 698 615 618 701 q 778 360 778 528 q 695 89 778 192 q 463 -14 612 -14 q 258 79 340 -14 m 272 336 q 272 274 272 336 q 319 140 272 212 q 447 68 366 68 q 573 142 527 68 q 620 338 620 216 q 528 597 620 532 q 449 619 494 619 q 372 597 404 619 q 317 538 339 576 q 272 336 272 460 z "},"c":{"ha":714,"x_min":61,"x_max":663,"o":"m 519 576 q 410 623 480 623 q 237 473 277 623 q 224 346 224 420 q 277 138 224 208 q 409 68 330 68 q 508 102 467 68 q 564 199 549 136 l 657 199 q 583 51 657 115 q 381 -14 509 -14 q 165 66 254 -14 q 61 339 61 159 q 148 594 61 486 q 404 701 235 701 q 589 648 515 701 q 663 509 663 594 q 636 440 663 468 q 568 412 609 412 q 486 467 509 412 q 479 503 479 483 q 519 576 479 549 z "},"d":{"ha":826,"x_min":59,"x_max":808,"o":"m 581 107 q 361 -14 500 -14 q 141 78 222 -14 q 59 324 59 170 q 143 608 59 514 q 372 701 227 701 q 562 625 483 701 l 562 876 q 552 939 562 924 q 504 954 542 954 l 456 954 l 456 1029 q 561 1039 523 1029 q 615 1053 599 1048 q 650 1057 631 1057 q 697 1037 686 1057 q 708 970 708 1016 l 708 180 q 713 99 708 115 q 769 69 725 69 q 808 77 791 69 l 808 11 q 720 -14 775 -14 q 581 107 608 -14 m 308 91 q 387 68 340 68 q 520 143 476 68 q 565 350 565 218 q 461 602 565 547 q 388 620 428 620 q 262 546 308 620 q 217 350 217 473 q 308 91 217 154 z "},"e":{"ha":757,"x_min":61,"x_max":695,"o":"m 694 313 l 223 313 q 278 132 223 196 q 415 68 334 68 q 572 159 524 68 l 673 159 q 584 37 657 87 q 385 -14 510 -14 q 170 64 260 -14 q 61 326 61 157 q 148 598 61 494 q 395 701 234 701 q 670 530 608 701 q 695 401 695 462 q 694 313 695 340 m 537 414 q 396 622 537 622 q 272 560 317 622 q 224 389 228 498 l 536 389 q 537 414 537 402 z "},"f":{"ha":553,"x_min":56,"x_max":633,"o":"m 72 75 q 146 86 131 75 q 164 112 161 98 q 167 146 167 125 l 167 563 q 160 598 167 589 q 133 606 154 606 l 56 606 l 56 688 l 167 688 l 167 755 q 242 1006 167 913 q 444 1099 318 1099 q 582 1046 530 1099 q 633 925 633 994 q 582 833 633 857 q 547 826 565 826 q 484 850 511 826 q 457 905 457 875 q 507 979 457 962 q 478 1014 497 1002 q 444 1025 459 1025 q 414 1023 429 1025 q 385 1012 399 1021 q 315 765 315 970 l 315 688 l 519 688 l 519 606 l 315 606 l 315 152 q 338 87 315 100 q 458 75 361 75 l 458 0 l 72 0 l 72 75 z "},"g":{"ha":794,"x_min":45,"x_max":799,"o":"m 560 648 q 717 720 621 720 q 774 695 749 720 q 799 636 799 671 q 778 579 799 600 q 726 559 756 559 q 676 576 696 559 q 653 628 655 593 q 608 600 629 618 q 649 466 649 541 q 626 346 649 392 q 565 266 604 299 q 474 216 526 233 q 381 198 422 198 q 319 200 340 198 q 254 159 271 189 q 249 142 249 151 q 286 113 249 121 q 408 97 322 104 q 550 80 494 90 q 646 49 606 70 q 732 -106 732 3 q 626 -280 732 -215 q 366 -346 519 -346 q 64 -223 124 -346 q 45 -141 45 -186 q 186 46 45 -26 q 138 134 138 75 q 213 228 138 194 q 113 315 149 252 q 76 443 76 378 q 164 633 76 565 q 370 701 252 701 q 560 648 489 701 m 366 276 q 490 371 455 276 q 502 452 502 404 q 463 584 502 541 q 366 627 423 627 q 236 531 271 627 q 224 449 224 496 q 266 319 224 362 q 366 276 309 276 m 258 3 q 191 -119 191 -33 q 248 -227 191 -190 q 398 -264 305 -264 q 590 -187 544 -264 q 605 -134 605 -163 q 437 -20 605 -35 q 338 -10 384 -14 q 258 3 292 -6 z "},"h":{"ha":869,"x_min":53,"x_max":829,"o":"m 476 600 q 296 530 365 600 l 296 146 q 309 93 296 104 q 399 75 333 75 l 399 0 l 54 0 l 54 75 q 127 86 113 75 q 146 112 142 98 q 149 146 149 125 l 149 882 q 141 945 149 930 q 94 960 132 960 l 53 960 l 53 1035 q 153 1045 117 1035 q 204 1059 189 1055 q 237 1063 220 1063 q 284 1043 273 1063 q 296 977 296 1022 l 296 610 q 464 694 366 671 q 526 701 496 701 q 746 410 746 701 l 746 147 q 759 89 746 102 q 829 75 772 75 l 829 0 l 509 0 l 509 75 q 583 87 570 75 q 597 113 595 100 q 600 147 600 127 l 600 401 q 582 530 600 495 q 476 600 547 600 z "},"i":{"ha":454,"x_min":54,"x_max":405,"o":"m 229 827 q 154 856 184 827 q 123 928 123 886 q 154 1002 123 972 q 229 1032 185 1032 q 303 1002 272 1032 q 334 928 334 972 q 303 856 334 886 q 229 827 273 827 m 56 75 q 135 86 119 75 q 154 112 151 98 q 157 146 157 125 l 157 519 q 149 583 157 568 q 103 598 140 598 l 54 598 l 54 673 q 159 683 121 673 q 212 697 197 692 q 246 701 228 701 q 293 681 281 701 q 304 614 304 660 l 304 146 q 317 92 304 103 q 405 75 340 75 l 405 0 l 56 0 l 56 75 z "},"j":{"ha":422,"x_min":-68,"x_max":345,"o":"m 239 829 q 164 858 195 829 q 134 930 134 888 q 165 1004 134 974 q 239 1034 196 1034 q 314 1004 283 1034 q 345 930 345 974 q 314 858 345 888 q 239 829 283 829 m 76 -142 q 85 -151 76 -142 q 100 -174 94 -159 q 106 -214 106 -189 q 82 -262 106 -239 q 110 -268 100 -269 q 196 -135 196 -262 q 183 -18 196 -96 q 171 113 171 59 l 171 519 q 162 583 171 568 q 117 597 154 597 l 54 597 l 54 672 q 163 682 121 672 q 223 696 205 692 q 260 701 241 701 q 306 680 295 701 q 317 614 317 659 l 318 7 q 195 -326 318 -262 q 110 -346 155 -346 q -19 -309 31 -346 q -68 -225 -68 -272 q -50 -159 -68 -179 q 20 -125 -17 -125 q 76 -142 58 -125 z "},"k":{"ha":859,"x_min":39,"x_max":851,"o":"m 734 89 q 781 189 781 89 l 846 189 q 851 150 851 167 q 850 113 851 134 q 836 61 850 93 q 702 -14 800 -14 q 545 98 604 -14 q 511 163 528 130 q 438 285 467 252 q 317 340 388 340 q 306 340 311 340 q 295 339 300 340 l 295 147 q 313 90 295 105 q 396 75 331 75 l 396 0 l 45 0 l 45 75 q 126 91 104 75 q 149 147 149 107 l 149 882 q 140 945 149 930 q 94 960 132 960 l 39 960 l 39 1035 q 146 1045 107 1035 q 201 1059 184 1055 q 236 1063 218 1063 q 283 1043 271 1063 q 295 977 295 1023 l 295 413 l 330 413 q 525 582 441 492 q 545 606 538 596 l 428 606 l 428 688 l 802 688 l 802 606 q 544 486 676 603 q 464 412 504 451 q 644 224 575 370 q 675 157 661 187 q 703 108 690 127 q 734 89 717 89 z "},"l":{"ha":448,"x_min":41,"x_max":399,"o":"m 47 75 q 129 91 106 75 q 151 147 151 107 l 151 882 q 142 945 151 930 q 96 960 134 960 l 41 960 l 41 1035 q 148 1045 109 1035 q 203 1059 186 1055 q 238 1063 220 1063 q 285 1043 273 1063 q 297 977 297 1023 l 297 147 q 315 90 297 105 q 399 75 333 75 l 399 0 l 47 0 l 47 75 z "},"m":{"ha":1276,"x_min":53,"x_max":1236,"o":"m 954 701 q 1153 410 1153 701 l 1153 147 q 1166 89 1153 102 q 1236 75 1179 75 l 1236 0 l 916 0 l 916 75 q 990 87 977 75 q 1004 113 1002 100 q 1006 147 1006 127 l 1006 401 q 991 531 1006 496 q 953 583 977 566 q 899 600 929 600 q 795 578 845 600 q 717 521 746 556 q 726 410 726 471 l 726 147 q 739 89 726 102 q 810 75 752 75 l 810 0 l 489 0 l 489 75 q 563 87 551 75 q 578 113 576 100 q 580 147 580 127 l 580 401 q 565 531 580 496 q 526 583 550 566 q 473 600 503 600 q 374 580 421 600 q 296 528 326 560 l 296 146 q 309 92 296 103 q 398 75 334 75 l 398 0 l 54 0 l 54 75 q 127 86 113 75 q 146 112 142 98 q 149 146 149 125 l 149 515 q 141 579 149 564 q 94 594 132 594 l 53 594 l 53 669 q 154 679 117 669 q 206 693 191 688 q 240 697 222 697 q 285 677 275 697 q 296 610 296 656 l 296 609 q 464 693 365 669 q 527 701 496 701 q 696 592 648 701 q 879 690 772 663 q 954 701 917 701 z "},"n":{"ha":869,"x_min":53,"x_max":829,"o":"m 476 600 q 296 530 365 600 l 296 146 q 309 93 296 104 q 399 75 333 75 l 399 0 l 54 0 l 54 75 q 127 86 113 75 q 146 112 142 98 q 149 146 149 125 l 149 515 q 141 579 149 564 q 94 594 132 594 l 53 594 l 53 669 q 153 679 117 669 q 204 693 189 688 q 237 697 220 697 q 284 676 273 697 q 296 610 296 656 q 464 693 368 671 q 526 701 496 701 q 746 410 746 701 l 746 147 q 759 89 746 102 q 829 75 772 75 l 829 0 l 509 0 l 509 75 q 583 87 570 75 q 597 113 595 100 q 600 147 600 127 l 600 401 q 582 530 600 495 q 476 600 547 600 z "},"o":{"ha":790,"x_min":61,"x_max":729,"o":"m 61 347 q 86 497 61 429 q 157 612 112 566 q 395 701 247 701 q 637 611 545 701 q 729 356 729 522 q 644 89 729 191 q 395 -14 559 -14 q 146 86 231 -14 q 61 347 61 185 m 395 68 q 523 140 474 68 q 572 342 572 212 q 467 604 572 551 q 395 620 434 620 q 232 468 270 620 q 218 346 218 416 q 268 140 218 212 q 395 68 317 68 z "},"p":{"ha":848,"x_min":37,"x_max":789,"o":"m 477 -14 q 287 62 366 -14 l 287 -180 q 310 -245 287 -232 q 425 -258 332 -258 l 425 -332 l 45 -332 l 45 -258 q 119 -246 104 -258 q 137 -220 134 -234 q 140 -186 140 -207 l 140 519 q 132 583 140 568 q 85 597 123 597 l 37 597 l 37 672 q 142 682 104 672 q 197 696 180 692 q 231 701 213 701 q 278 680 267 701 q 290 614 290 659 l 290 612 q 497 701 366 701 q 709 613 628 701 q 789 356 789 524 q 706 87 789 188 q 477 -14 622 -14 m 283 336 q 283 274 283 336 q 332 140 283 212 q 460 68 380 68 q 586 141 541 68 q 631 338 631 215 q 536 597 631 534 q 456 620 503 620 q 378 598 410 620 q 326 538 347 576 q 283 336 283 461 z "},"q":{"ha":813,"x_min":59,"x_max":803,"o":"m 562 83 q 356 -14 490 -14 q 140 80 222 -14 q 59 337 59 173 q 143 602 59 502 q 361 701 227 701 q 577 608 496 701 q 605 688 605 636 l 708 688 l 708 -186 q 726 -243 708 -229 q 803 -258 744 -258 l 803 -332 l 417 -332 l 417 -258 q 533 -247 513 -258 q 557 -221 553 -237 q 562 -180 562 -206 l 562 83 m 388 70 q 522 146 478 70 q 565 349 565 223 q 517 548 565 475 q 388 620 469 620 q 262 546 308 620 q 217 350 217 473 q 308 92 217 155 q 388 70 340 70 z "},"r":{"ha":608,"x_min":54,"x_max":589,"o":"m 56 75 q 129 86 114 75 q 147 112 144 98 q 150 146 150 125 l 150 519 q 141 583 150 568 q 96 598 133 598 l 54 598 l 54 673 q 154 683 119 673 q 205 697 190 692 q 238 701 220 701 q 284 681 273 701 q 296 614 296 661 l 296 601 q 429 693 355 669 q 481 701 455 701 q 561 672 532 701 q 589 600 589 643 q 562 530 589 557 q 496 503 534 503 q 433 530 458 503 q 411 598 408 557 q 352 573 383 594 q 296 515 320 551 l 296 152 q 301 111 296 126 q 325 85 305 96 q 441 75 344 75 l 441 0 l 56 0 l 56 75 z "},"s":{"ha":661,"x_min":58,"x_max":604,"o":"m 433 597 q 319 632 398 632 q 213 575 241 632 q 205 538 205 559 q 222 498 205 517 q 264 461 238 479 q 322 428 290 444 q 389 393 354 412 q 462 353 423 374 q 604 181 604 275 q 530 37 604 87 q 336 -14 457 -14 q 136 30 215 -14 q 58 142 58 73 q 82 205 58 179 q 145 231 107 231 q 209 207 184 231 q 234 149 234 182 q 211 93 234 116 q 346 62 265 62 q 458 99 426 62 q 472 138 472 114 q 347 255 472 194 q 217 322 260 298 q 78 512 78 401 q 149 649 78 597 q 330 701 220 701 q 514 660 439 701 q 589 553 589 618 q 571 497 589 515 q 510 465 539 465 q 438 489 463 465 q 414 545 414 513 q 433 597 414 576 z "},"t":{"ha":568,"x_min":35,"x_max":534,"o":"m 338 -14 q 125 224 125 -14 l 125 563 q 118 598 125 589 q 91 606 112 606 l 35 606 l 35 688 l 60 688 q 136 720 112 688 q 162 827 160 753 l 163 888 l 271 888 l 271 688 l 479 688 l 479 606 l 271 606 l 271 226 q 330 75 271 100 q 362 68 346 68 q 455 186 433 68 l 534 186 q 418 1 527 47 q 338 -14 382 -14 z "},"u":{"ha":807,"x_min":43,"x_max":789,"o":"m 558 111 q 332 -14 473 -14 q 172 50 229 -14 q 115 238 115 113 l 115 519 q 107 583 115 568 q 61 598 98 598 l 43 598 l 43 673 q 134 683 106 673 q 174 697 162 692 q 204 701 186 701 q 250 680 239 701 q 262 612 262 659 l 262 233 q 277 132 262 159 q 380 79 307 79 q 476 118 429 79 q 543 208 524 157 l 543 519 q 534 584 542 570 q 488 598 526 598 l 450 598 l 450 673 q 549 683 514 673 q 599 697 584 692 q 631 701 614 701 q 678 681 666 701 q 690 614 690 661 l 690 180 q 696 99 690 115 q 750 69 707 69 q 789 77 773 69 l 789 11 q 701 -14 757 -14 q 558 111 583 -14 z "},"v":{"ha":720,"x_min":-41,"x_max":747,"o":"m 63 541 q 27 599 43 585 q -41 613 11 613 l -41 688 l 322 688 l 322 613 q 230 598 247 613 q 230 541 213 583 l 383 169 l 547 541 q 540 596 564 579 q 437 613 517 613 l 437 688 l 747 688 l 747 613 q 682 596 704 613 q 642 541 659 578 l 393 0 l 319 0 l 63 541 z "},"w":{"ha":1138,"x_min":-7,"x_max":1147,"o":"m 90 541 q 56 597 73 582 q -7 613 38 613 l -7 688 l 335 688 l 335 613 q 249 601 264 613 q 235 574 235 588 q 243 541 235 561 l 374 172 l 549 688 l 648 688 l 819 157 l 947 541 q 938 596 962 580 q 838 613 914 613 l 838 688 l 1147 688 l 1147 613 q 1079 595 1103 613 q 1043 541 1056 578 l 855 0 l 741 0 l 572 465 l 414 0 l 300 0 l 90 541 z "},"x":{"ha":798,"x_min":28,"x_max":766,"o":"m 28 75 q 100 94 72 75 q 155 146 129 114 l 323 345 l 155 549 q 98 595 132 577 q 28 613 64 613 l 28 688 l 385 688 l 385 613 q 328 600 343 613 q 322 549 302 574 l 430 412 l 538 549 q 533 595 561 577 q 443 613 505 613 l 443 688 l 766 688 l 766 613 q 694 596 723 613 q 641 549 666 578 l 475 355 l 641 146 q 766 75 696 75 l 766 0 l 411 0 l 411 75 q 488 96 464 75 q 488 146 511 117 l 370 288 l 258 146 q 262 95 233 115 q 353 75 290 75 l 353 0 l 28 0 l 28 75 z "},"y":{"ha":781,"x_min":3,"x_max":803,"o":"m 195 -262 q 224 -265 212 -265 q 253 -253 236 -264 q 285 -224 269 -242 q 337 -140 315 -189 q 359 -62 359 -90 q 352 -18 359 -33 q 336 8 345 -3 q 315 30 326 19 q 298 59 304 41 l 101 541 q 71 598 87 583 q 3 613 56 613 l 3 688 l 368 688 l 368 613 q 273 601 290 613 q 256 574 257 588 q 262 541 256 561 l 431 79 l 603 541 q 593 596 618 580 q 487 613 568 613 l 487 688 l 803 688 l 803 613 q 735 595 758 613 q 699 541 713 577 l 517 56 q 472 -49 493 2 q 429 -144 451 -100 q 325 -295 381 -244 q 194 -346 269 -346 q 78 -309 119 -346 q 37 -223 37 -272 q 64 -146 37 -175 q 132 -118 92 -118 q 213 -170 191 -118 q 220 -203 220 -185 q 195 -262 220 -237 z "},"z":{"ha":713,"x_min":59,"x_max":654,"o":"m 59 77 l 477 614 l 264 614 q 161 507 187 614 q 149 441 153 476 l 60 442 l 81 688 l 641 688 l 641 607 l 229 75 l 442 75 q 551 161 527 75 q 564 229 559 190 l 654 229 l 634 0 l 59 0 l 59 77 z "},"{":{"ha":629,"x_min":108,"x_max":575,"o":"m 354 979 l 367 644 q 233 459 367 496 q 367 273 367 422 q 360 105 367 208 q 354 -47 354 3 q 388 -181 354 -139 q 503 -222 422 -222 l 575 -222 l 575 -292 l 510 -292 q 239 -151 295 -292 q 219 -41 219 -100 q 225 136 219 36 q 232 278 232 236 q 202 391 232 361 q 108 421 173 421 l 108 497 q 202 527 173 497 q 232 644 232 556 q 230 704 232 669 q 219 947 219 886 q 510 1213 219 1213 l 575 1213 l 575 1144 l 504 1144 q 361 1047 385 1144 q 354 979 354 1017 z "},"|":{"ha":462,"x_min":174,"x_max":284,"o":"m 174 1121 l 284 1121 l 284 -100 l 174 -100 l 174 1121 z "},"}":{"ha":629,"x_min":53,"x_max":521,"o":"m 53 0 m 275 979 l 262 644 q 396 459 262 496 q 262 273 262 422 q 268 105 262 208 q 275 -47 275 3 q 241 -181 275 -139 q 125 -222 207 -222 l 54 -222 l 54 -292 l 119 -292 q 390 -151 334 -292 q 410 -41 410 -100 q 403 136 410 36 q 397 278 397 236 q 426 391 397 361 q 521 421 456 421 l 521 497 q 426 527 456 497 q 397 644 397 556 q 399 704 397 669 q 410 947 410 886 q 119 1213 410 1213 l 54 1213 l 54 1144 l 125 1144 q 267 1047 243 1144 q 275 979 275 1017 z "},"~":{"ha":1040,"x_min":115,"x_max":926,"o":"m 115 363 q 251 643 123 577 q 344 665 294 665 q 432 653 395 665 q 502 623 470 641 q 563 584 534 605 q 618 545 591 563 q 732 503 681 503 q 844 602 821 503 l 854 663 l 926 663 q 788 384 906 446 q 697 362 746 362 q 614 374 649 362 q 549 404 580 386 q 491 443 519 422 q 309 524 382 524 q 232 495 262 524 q 195 425 203 466 l 186 363 l 115 363 z "},"":{"ha":0,"x_min":0,"x_max":0,"o":""}," ":{"ha":463,"x_min":0,"x_max":0,"o":""},"¡":{"ha":397,"x_min":94,"x_max":302,"o":"m 94 0 m 169 646 q 149 475 160 561 q 104 -32 110 153 q 199 -81 102 -81 q 290 -60 271 -81 q 298 -32 299 -49 q 268 359 292 157 q 235 646 244 561 l 169 646 m 94 859 q 124 785 94 815 q 198 754 155 754 q 272 785 241 754 q 302 859 302 815 q 272 932 302 902 q 198 963 241 963 q 124 932 155 963 q 94 859 94 902 z "},"¢":{"ha":728,"x_min":65,"x_max":667,"o":"m 380 208 q 413 204 400 204 q 512 238 471 204 q 568 335 553 272 l 661 335 q 587 186 661 251 q 390 122 513 122 l 380 122 q 370 123 375 122 l 350 -38 l 283 -38 l 304 132 q 85 336 140 170 q 65 468 65 395 q 149 725 65 619 q 390 836 232 830 l 412 1012 l 479 1012 l 456 833 q 608 771 549 823 q 667 645 667 720 q 640 575 667 604 q 572 547 613 547 q 490 602 513 547 q 484 638 484 618 q 524 711 484 685 q 447 755 494 745 l 380 208 m 380 756 q 228 480 228 728 q 317 237 228 306 l 380 756 z "},"£":{"ha":979,"x_min":45,"x_max":926,"o":"m 749 909 q 652 954 713 954 q 526 883 570 954 q 458 581 473 796 l 696 581 l 696 515 l 455 515 l 436 273 q 614 178 524 249 q 693 126 664 138 q 746 115 722 115 q 821 147 795 115 q 847 254 847 179 l 924 254 q 926 205 926 230 q 920 148 926 180 q 898 85 914 115 q 802 1 869 32 q 647 -5 734 -29 q 557 41 591 12 q 484 109 523 71 q 420 165 446 146 q 337 34 396 81 q 207 -14 277 -14 q 90 26 136 -14 q 45 121 45 65 q 169 274 45 230 q 283 291 215 290 l 300 471 q 293 506 300 498 q 266 515 287 515 l 189 515 l 195 581 l 269 581 q 298 592 288 581 q 311 631 309 602 q 411 928 323 825 q 648 1031 499 1031 q 822 971 751 1031 q 893 831 893 911 q 864 750 893 783 q 789 717 834 717 q 715 745 745 717 q 685 810 685 774 q 749 909 685 884 m 129 107 q 145 73 129 88 q 196 58 161 58 q 273 165 262 58 l 276 208 q 163 177 197 205 q 129 107 129 149 z "},"¤":{"ha":936,"x_min":117,"x_max":824,"o":"m 618 250 q 470 207 551 207 q 325 245 389 207 l 214 130 l 117 227 l 231 336 q 188 486 188 404 q 231 637 188 570 l 117 747 l 214 844 l 325 727 q 470 765 389 765 q 617 722 550 765 l 727 837 l 824 739 l 708 628 q 746 486 746 564 q 708 345 746 409 l 824 234 l 727 136 l 618 250 m 467 298 q 592 353 543 298 q 642 486 642 407 q 592 619 642 565 q 467 673 543 673 q 341 619 390 673 q 293 486 293 564 q 341 353 293 408 q 467 298 390 298 z "},"¥":{"ha":1021,"x_min":18,"x_max":1004,"o":"m 310 75 q 411 87 387 75 q 443 114 435 100 q 450 149 450 128 l 450 254 l 209 254 l 209 321 l 450 321 l 450 439 l 437 457 l 209 457 l 209 531 l 388 531 l 159 869 q 106 926 135 909 q 18 943 78 943 l 18 1017 l 413 1017 l 413 943 q 332 925 347 943 q 340 869 316 908 l 544 564 l 757 869 q 762 926 781 909 q 654 943 743 943 l 654 1017 l 1004 1017 l 1004 943 q 923 925 954 943 q 868 869 892 907 l 638 531 l 825 531 l 825 457 l 596 457 l 596 321 l 825 321 l 825 254 l 596 254 l 596 149 q 623 90 596 105 q 735 75 650 75 l 735 0 l 310 0 l 310 75 z "},"¦":{"ha":462,"x_min":174,"x_max":284,"o":"m 174 1121 l 284 1121 l 284 578 l 174 578 l 174 1121 m 174 443 l 284 443 l 284 -100 l 174 -100 l 174 443 z "},"§":{"ha":869,"x_min":97,"x_max":763,"o":"m 622 153 q 715 -26 715 73 q 632 -186 715 -125 q 416 -247 548 -247 q 202 -193 285 -247 q 120 -60 120 -138 q 150 22 120 -12 q 224 56 180 56 q 297 28 269 56 q 325 -44 325 1 q 288 -119 325 -90 q 427 -165 330 -165 q 558 -103 524 -165 q 569 -57 569 -83 q 409 105 569 22 q 258 191 300 162 q 137 308 178 248 q 97 445 97 368 q 182 629 97 550 q 241 671 209 653 q 151 862 151 756 q 234 1033 151 968 q 439 1099 317 1099 q 640 1040 560 1099 q 720 895 720 981 q 690 812 720 846 q 614 779 660 779 q 522 833 547 779 q 515 867 515 849 q 564 961 515 929 q 435 1020 530 1020 q 308 954 340 1020 q 297 902 297 932 q 452 717 297 805 q 568 648 517 680 q 763 377 763 528 q 622 153 763 226 m 311 616 q 229 479 229 574 q 380 300 229 384 q 470 251 423 275 q 541 212 517 227 q 630 356 630 255 q 474 524 630 441 q 311 616 359 585 z "},"¨":{"ha":0,"x_min":-267,"x_max":267,"o":"m 163 831 q 89 860 119 831 q 59 932 59 889 q 89 1005 59 975 q 163 1035 119 1035 q 236 1005 206 1035 q 267 932 267 975 q 236 860 267 889 q 163 831 206 831 m -163 831 q -236 860 -206 831 q -267 932 -267 889 q -236 1005 -267 975 q -163 1035 -206 1035 q -89 1005 -119 1035 q -59 932 -59 975 q -89 860 -59 889 q -163 831 -119 831 z "},"©":{"ha":1301,"x_min":69,"x_max":1215,"o":"m 69 495 q 237 905 69 740 q 490 1048 344 1009 q 642 1068 563 1068 q 930 993 798 1068 q 1194 652 1131 878 q 1215 495 1215 577 q 1136 201 1215 334 q 793 -58 1020 3 q 642 -77 720 -77 q 355 -3 486 -77 q 147 201 224 71 q 69 495 69 332 m 158 476 q 196 293 158 385 q 300 135 234 201 q 454 32 366 68 q 625 -5 542 -5 q 770 12 708 -5 q 886 60 831 28 q 1061 240 996 126 q 1126 495 1126 354 q 985 857 1126 718 q 642 996 845 996 q 399 931 511 996 q 223 751 288 866 q 158 476 158 636 m 672 245 q 826 348 795 245 l 911 348 q 840 220 911 275 q 649 165 769 165 q 444 240 528 165 q 345 496 345 328 q 418 726 345 634 q 656 834 502 834 q 839 775 764 834 q 915 640 915 717 q 890 571 915 599 q 828 544 865 544 q 766 568 791 544 q 741 634 741 591 q 787 701 741 677 q 741 741 772 726 q 675 756 711 756 q 510 620 551 756 q 496 502 496 571 q 546 308 496 372 q 672 245 596 245 z "},"ª":{"ha":751,"x_min":113,"x_max":725,"o":"m 483 562 q 290 473 407 473 q 128 557 172 473 q 113 624 113 586 q 166 739 113 692 q 290 805 219 786 q 395 835 361 824 q 445 857 429 846 q 466 881 462 868 q 471 921 471 895 q 447 968 471 948 q 373 989 422 989 q 277 962 323 989 q 302 917 302 942 q 281 857 302 878 q 229 836 260 836 q 175 858 197 836 q 154 912 154 879 q 219 1020 154 979 q 385 1062 285 1062 q 581 952 546 1062 q 591 868 591 916 l 591 625 q 599 575 591 591 q 627 558 607 558 q 667 630 667 558 l 725 630 q 725 609 725 625 q 695 515 725 557 q 599 473 665 473 q 483 562 507 473 m 248 626 q 270 575 248 592 q 323 557 292 557 q 429 601 387 557 q 471 723 471 644 l 471 791 q 397 762 437 775 q 347 746 357 749 q 248 626 248 705 z "},"«":{"ha":935,"x_min":94,"x_max":850,"o":"m 94 1 m 94 371 l 475 697 l 475 613 l 277 349 l 475 85 l 475 1 l 94 327 l 94 371 m 469 371 l 850 697 l 850 613 l 652 349 l 850 85 l 850 1 l 469 327 l 469 371 z "},"¬":{"ha":922,"x_min":85,"x_max":811,"o":"m 85 518 l 811 518 l 811 168 l 701 168 l 701 408 l 85 408 l 85 518 z "},"­":{"ha":833,"x_min":0,"x_max":0,"o":""},"®":{"ha":1050,"x_min":58,"x_max":992,"o":"m 509 155 q 343 191 428 155 q 194 288 258 226 q 58 623 58 422 q 120 861 58 754 q 289 1029 182 967 q 524 1090 397 1090 q 854 958 718 1090 q 975 750 942 873 q 992 623 992 690 q 856 289 992 422 q 509 155 719 155 m 524 226 q 605 226 524 226 q 799 339 686 226 q 911 623 911 452 q 798 906 911 793 q 524 1020 686 1020 q 330 968 420 1020 q 152 732 195 890 q 138 608 138 680 q 169 463 138 536 q 252 338 199 391 q 524 226 362 226 m 717 428 q 745 508 745 428 l 783 508 q 788 481 788 492 q 788 456 788 469 q 777 422 787 443 q 686 370 751 370 q 581 486 608 370 q 548 580 564 557 q 511 602 532 602 l 451 602 l 451 471 q 463 430 451 439 q 528 422 474 422 l 528 379 l 295 379 l 295 422 q 342 432 332 422 q 353 471 353 442 l 353 786 q 342 825 353 815 q 295 834 331 834 l 295 883 l 526 883 q 679 844 631 883 q 726 749 726 806 q 618 618 726 654 q 658 563 647 598 q 674 506 669 528 q 717 428 691 428 m 492 647 q 585 672 549 647 q 621 741 621 698 q 594 810 621 785 q 517 836 568 836 l 451 836 l 451 647 l 492 647 z "},"¯":{"ha":0,"x_min":-231,"x_max":231,"o":"m -231 836 l -231 951 l 231 951 l 231 836 l -231 836 z "},"°":{"ha":739,"x_min":160,"x_max":578,"o":"m 369 612 q 221 673 282 612 q 160 821 160 734 q 221 970 160 909 q 369 1031 282 1031 q 517 970 456 1031 q 578 821 578 909 q 517 673 578 734 q 369 612 456 612 m 369 706 q 446 740 415 706 q 477 821 477 773 q 446 902 477 869 q 369 936 415 936 q 292 902 323 936 q 260 821 260 869 q 292 740 260 773 q 369 706 323 706 z "},"±":{"ha":922,"x_min":86,"x_max":833,"o":"m 86 111 l 404 111 l 404 406 l 86 406 l 86 516 l 404 516 l 404 834 l 515 834 l 515 516 l 833 516 l 833 406 l 515 406 l 515 111 l 833 111 l 833 0 l 86 0 l 86 111 z "},"²":{"ha":716,"x_min":108,"x_max":631,"o":"m 393 659 q 562 749 562 659 l 631 749 l 587 553 l 125 553 l 125 612 q 220 751 125 677 q 348 854 315 826 q 455 1038 455 947 q 388 1153 455 1129 q 341 1160 368 1160 q 287 1147 315 1160 q 245 1108 259 1135 q 290 1037 290 1083 q 264 965 290 991 q 209 939 238 939 q 134 966 160 939 q 108 1032 108 994 q 178 1180 108 1114 q 356 1246 248 1246 q 532 1193 464 1246 q 601 1050 601 1139 q 465 833 601 941 q 358 750 427 802 q 258 659 289 698 l 393 659 z "},"³":{"ha":714,"x_min":105,"x_max":617,"o":"m 502 903 q 617 747 617 841 q 538 597 617 654 q 348 540 458 540 q 171 584 237 540 q 105 688 105 629 q 123 751 105 730 q 191 787 155 787 q 251 763 228 787 q 274 705 274 739 q 252 648 274 671 q 346 619 280 619 q 461 690 433 619 q 471 741 471 714 q 448 826 471 791 q 384 861 424 861 l 308 861 l 308 932 l 360 932 q 441 969 412 932 q 471 1046 471 1006 q 438 1141 471 1112 q 365 1169 405 1169 q 257 1136 284 1169 q 283 1076 283 1110 q 259 1018 283 1042 q 209 994 235 994 q 142 1019 165 994 q 119 1077 119 1044 q 188 1196 119 1143 q 361 1249 258 1249 q 537 1196 465 1249 q 610 1059 610 1143 q 502 903 610 959 z "},"´":{"ha":0,"x_min":-71,"x_max":140,"o":"m 24 851 q -37 810 -1 810 q -62 820 -53 810 q -71 841 -71 831 q -69 858 -71 850 l -35 1018 q -7 1109 -20 1088 q 58 1146 18 1146 q 140 1080 140 1146 q 112 998 140 1044 l 24 851 z "},"µ":{"ha":866,"x_min":46,"x_max":850,"o":"m 675 148 q 717 81 675 81 q 785 177 760 81 l 850 177 q 669 -14 803 -14 q 563 48 597 -14 q 549 96 552 68 q 328 -14 462 -14 q 203 45 242 -14 q 214 -144 214 -67 q 188 -312 214 -269 q 132 -355 161 -355 q 65 -318 83 -355 q 46 -222 46 -281 q 59 -100 46 -164 q 90 26 72 -37 q 125 149 107 90 q 153 258 143 208 l 201 515 q 205 551 205 535 q 196 580 205 566 q 146 593 187 593 l 112 593 l 112 672 q 208 682 174 672 q 256 696 241 692 q 298 701 271 701 q 341 682 326 701 q 356 645 356 663 q 353 614 356 627 l 285 254 q 275 183 275 211 q 380 75 275 75 q 478 112 430 75 q 547 201 526 149 l 602 515 q 599 575 611 557 q 547 593 587 593 l 512 593 l 512 672 q 608 682 574 672 q 656 696 642 692 q 698 701 671 701 q 741 681 726 701 q 756 644 756 662 q 753 614 756 627 l 679 180 q 675 148 675 159 z "},"¶":{"ha":863,"x_min":80,"x_max":838,"o":"m 377 -254 q 434 -271 402 -271 q 523 -213 498 -271 q 547 1 547 -156 l 547 1017 l 838 1017 l 838 944 q 729 931 747 944 q 707 898 711 919 q 703 839 703 877 l 703 15 q 618 -267 703 -172 q 447 -346 549 -346 q 291 -299 346 -346 q 235 -182 235 -252 q 298 -83 235 -113 q 350 -75 318 -75 q 408 -100 382 -75 q 434 -161 434 -125 q 377 -254 434 -228 m 410 383 q 176 476 273 383 q 80 700 80 568 q 176 924 80 831 q 410 1017 273 1017 l 410 383 z "},"·":{"ha":464,"x_min":130,"x_max":342,"o":"m 130 328 m 130 430 q 161 504 130 473 q 236 534 193 534 q 311 504 279 534 q 342 430 342 473 q 311 358 342 387 q 236 328 280 328 q 161 358 192 328 q 130 430 130 387 z "},"¸":{"ha":446,"x_min":32,"x_max":320,"o":"m 320 -112 q 144 -284 320 -284 q 72 -273 104 -284 q 32 -257 39 -262 l 37 -185 q 89 -195 70 -195 q 176 -172 146 -195 q 235 -1 235 -125 q 235 9 235 4 l 302 31 q 320 -112 320 -52 z "},"¹":{"ha":560,"x_min":87,"x_max":503,"o":"m 94 618 q 198 632 174 618 q 229 661 222 646 q 237 699 237 676 l 237 943 q 228 1014 237 998 q 176 1030 218 1030 l 87 1030 l 87 1102 q 233 1145 172 1102 q 294 1232 294 1188 l 368 1232 l 368 699 q 386 639 368 651 q 503 618 416 618 l 503 553 l 94 553 l 94 618 z "},"º":{"ha":751,"x_min":94,"x_max":658,"o":"m 376 473 q 165 557 237 473 q 94 776 94 640 q 172 987 94 911 q 376 1062 250 1062 q 580 987 502 1062 q 658 776 658 911 q 586 557 658 640 q 376 473 515 473 m 376 544 q 408 544 376 544 q 480 603 440 544 q 520 766 520 662 q 434 978 520 935 q 376 991 408 991 q 271 935 310 991 q 232 771 232 879 q 272 604 232 663 q 376 544 311 544 z "},"»":{"ha":935,"x_min":85,"x_max":841,"o":"m 85 1 m 466 371 l 85 697 l 85 613 l 283 349 l 85 85 l 85 1 l 466 327 l 466 371 m 841 371 l 461 697 l 461 613 l 659 349 l 461 85 l 461 1 l 841 327 l 841 371 z "},"¼":{"ha":739,"x_min":47,"x_max":646,"o":"m 182 736 q 286 750 262 736 q 317 779 310 764 q 325 817 325 794 l 325 1061 q 316 1132 325 1116 q 264 1148 307 1148 l 175 1148 l 175 1220 q 321 1263 260 1220 q 382 1350 382 1306 l 456 1350 l 456 817 q 474 757 456 769 q 591 736 505 736 l 591 671 l 182 671 l 182 736 m 99 572 l 640 572 l 640 509 l 99 509 l 99 572 m 397 428 l 505 428 l 505 60 q 512 29 505 35 q 538 22 520 22 l 646 22 l 646 -52 l 534 -52 q 510 -57 515 -52 q 505 -85 505 -62 l 505 -128 q 524 -179 505 -166 q 609 -192 543 -192 l 609 -258 l 249 -258 l 249 -192 q 345 -182 330 -192 q 364 -159 361 -173 q 368 -121 368 -145 l 368 -52 l 80 -52 l 47 24 l 397 428 m 367 18 l 368 4 l 368 281 l 140 18 l 367 18 z "},"½":{"ha":739,"x_min":99,"x_max":661,"o":"m 182 736 q 286 750 262 736 q 317 779 310 764 q 325 817 325 794 l 325 1061 q 316 1132 325 1116 q 264 1148 307 1148 l 175 1148 l 175 1220 q 321 1263 260 1220 q 382 1350 382 1306 l 456 1350 l 456 817 q 474 757 456 769 q 591 736 505 736 l 591 671 l 182 671 l 182 736 m 99 572 l 640 572 l 640 509 l 99 509 l 99 572 m 422 -152 q 592 -61 592 -152 l 661 -61 l 616 -258 l 158 -258 l 158 -198 q 253 -59 158 -134 q 381 43 349 16 q 488 228 488 136 q 421 342 488 319 q 375 349 401 349 q 320 337 349 349 q 279 298 292 325 q 323 227 323 273 q 297 154 323 180 q 242 128 271 128 q 167 156 193 128 q 141 222 141 183 q 211 370 141 304 q 389 436 281 436 q 566 382 497 436 q 634 239 634 328 q 498 22 634 130 q 392 -59 460 -8 q 291 -152 325 -109 l 422 -152 z "},"¾":{"ha":739,"x_min":47,"x_max":646,"o":"m 518 1017 q 633 861 633 955 q 554 711 633 768 q 364 654 475 654 q 188 698 254 654 q 121 802 121 743 q 140 865 121 844 q 208 901 171 901 q 267 877 244 901 q 290 819 290 852 q 269 762 290 785 q 362 733 296 733 q 477 804 449 733 q 488 854 488 828 q 464 940 488 905 q 400 975 440 975 l 324 975 l 324 1046 l 376 1046 q 458 1083 428 1046 q 488 1160 488 1120 q 454 1255 488 1226 q 381 1283 421 1283 q 273 1250 300 1283 q 299 1190 299 1224 q 275 1132 299 1156 q 225 1108 252 1108 q 158 1133 182 1108 q 135 1191 135 1158 q 204 1310 135 1257 q 377 1362 274 1362 q 553 1310 481 1362 q 626 1173 626 1257 q 518 1017 626 1073 m 99 572 l 640 572 l 640 509 l 99 509 l 99 572 m 397 428 l 505 428 l 505 60 q 512 29 505 35 q 538 22 520 22 l 646 22 l 646 -52 l 534 -52 q 510 -57 515 -52 q 505 -85 505 -62 l 505 -128 q 524 -179 505 -166 q 609 -192 543 -192 l 609 -258 l 249 -258 l 249 -192 q 345 -182 330 -192 q 364 -159 361 -173 q 368 -121 368 -145 l 368 -52 l 80 -52 l 47 24 l 397 428 m 367 18 l 368 4 l 368 281 l 140 18 l 367 18 z "},"¿":{"ha":709,"x_min":41,"x_max":651,"o":"m 41 0 m 404 614 q 351 455 404 528 q 301 395 328 424 q 198 150 198 284 q 288 12 198 42 q 341 3 314 3 q 443 26 397 3 q 507 92 489 48 q 454 129 474 102 q 434 198 434 156 q 460 269 434 239 q 538 299 486 299 q 640 232 612 299 q 651 169 651 208 q 632 86 651 131 q 571 3 612 41 q 344 -81 478 -81 q 125 -8 210 -81 q 41 184 41 65 q 177 429 41 303 q 291 555 262 509 q 324 644 320 602 l 404 644 l 404 614 m 460 859 q 429 785 460 815 q 355 754 399 754 q 281 785 312 754 q 251 859 251 815 q 281 932 251 902 q 355 963 312 963 q 429 932 399 963 q 460 859 460 902 z "},"À":{"ha":1086,"x_min":-1,"x_max":1074,"o":"m 0 0 m -1 75 q 84 92 56 75 q 129 149 113 109 l 495 1017 l 611 1017 l 946 149 q 987 90 964 105 q 1074 75 1009 75 l 1074 0 l 656 0 l 656 75 q 762 87 745 75 q 778 113 779 99 q 768 149 777 127 l 707 319 l 313 319 l 243 149 q 253 91 228 108 q 370 75 278 75 l 370 0 l -1 0 l -1 75 m 681 393 l 524 833 l 344 393 l 681 393 m 655 1130 q 655 1123 655 1130 q 646 1105 655 1115 q 614 1095 636 1095 q 555 1122 593 1095 l 419 1223 q 380 1297 380 1253 q 415 1358 380 1341 q 446 1363 427 1363 q 504 1344 484 1363 q 559 1276 524 1326 l 643 1161 q 655 1130 655 1145 z "},"Á":{"ha":1086,"x_min":-1,"x_max":1074,"o":"m 0 0 m -1 75 q 84 92 56 75 q 129 149 113 109 l 495 1017 l 611 1017 l 946 149 q 987 90 964 105 q 1074 75 1009 75 l 1074 0 l 656 0 l 656 75 q 762 87 745 75 q 778 113 779 99 q 768 149 777 127 l 707 319 l 313 319 l 243 149 q 253 91 228 108 q 370 75 278 75 l 370 0 l -1 0 l -1 75 m 681 393 l 524 833 l 344 393 l 681 393 m 581 1122 q 522 1095 543 1095 q 481 1130 481 1095 q 493 1161 481 1145 l 576 1276 q 632 1344 612 1326 q 695 1363 652 1363 q 752 1322 738 1363 q 756 1295 756 1310 q 717 1223 756 1253 l 581 1122 z "},"Â":{"ha":1086,"x_min":-1,"x_max":1074,"o":"m 0 0 m -1 75 q 84 92 56 75 q 129 149 113 109 l 495 1017 l 611 1017 l 946 149 q 987 90 964 105 q 1074 75 1009 75 l 1074 0 l 656 0 l 656 75 q 762 87 745 75 q 778 113 779 99 q 768 149 777 127 l 707 319 l 313 319 l 243 149 q 253 91 228 108 q 370 75 278 75 l 370 0 l -1 0 l -1 75 m 681 393 l 524 833 l 344 393 l 681 393 m 798 1144 q 766 1120 798 1120 q 726 1133 748 1121 l 551 1221 l 377 1133 q 337 1120 355 1121 q 304 1144 304 1120 q 315 1166 304 1155 l 513 1356 l 589 1356 l 788 1166 q 798 1144 798 1155 z "},"Ã":{"ha":1086,"x_min":-1,"x_max":1074,"o":"m 0 0 m -1 75 q 84 92 56 75 q 129 149 113 109 l 495 1017 l 611 1017 l 946 149 q 987 90 964 105 q 1074 75 1009 75 l 1074 0 l 656 0 l 656 75 q 762 87 745 75 q 778 113 779 99 q 768 149 777 127 l 707 319 l 313 319 l 243 149 q 253 91 228 108 q 370 75 278 75 l 370 0 l -1 0 l -1 75 m 681 393 l 524 833 l 344 393 l 681 393 m 718 1131 q 648 1113 685 1113 q 586 1121 610 1113 q 542 1143 562 1130 q 506 1171 522 1156 q 466 1207 490 1185 q 425 1228 442 1228 q 358 1168 369 1228 l 349 1105 l 277 1105 q 384 1333 286 1280 q 455 1350 417 1350 q 516 1342 492 1350 q 561 1320 541 1333 q 597 1293 581 1308 q 637 1256 613 1278 q 679 1235 661 1235 q 743 1295 730 1235 l 753 1358 l 826 1358 q 718 1131 813 1181 z "},"Ä":{"ha":1086,"x_min":-1,"x_max":1074,"o":"m 0 0 m -1 75 q 84 92 56 75 q 129 149 113 109 l 495 1017 l 611 1017 l 946 149 q 987 90 964 105 q 1074 75 1009 75 l 1074 0 l 656 0 l 656 75 q 762 87 745 75 q 778 113 779 99 q 768 149 777 127 l 707 319 l 313 319 l 243 149 q 253 91 228 108 q 370 75 278 75 l 370 0 l -1 0 l -1 75 m 681 393 l 524 833 l 344 393 l 681 393 m 714 1123 q 641 1152 671 1123 q 610 1224 610 1181 q 641 1297 610 1267 q 714 1327 671 1327 q 788 1297 758 1327 q 818 1224 818 1267 q 788 1152 818 1181 q 714 1123 758 1123 m 389 1123 q 315 1152 345 1123 q 285 1224 285 1181 q 315 1297 285 1267 q 389 1327 345 1327 q 462 1297 432 1327 q 492 1224 492 1267 q 462 1152 492 1181 q 389 1123 432 1123 z "},"Å":{"ha":1072,"x_min":-7,"x_max":1067,"o":"m -7 75 q 78 92 49 75 q 122 149 106 109 l 465 963 q 365 1080 389 997 q 357 1139 357 1105 q 412 1267 357 1213 q 545 1322 467 1322 q 678 1267 623 1322 q 733 1130 733 1212 q 669 992 733 1048 q 625 964 649 975 l 939 149 q 980 90 958 105 q 1067 75 1002 75 l 1067 0 l 649 0 l 649 75 q 755 87 739 75 q 771 113 772 99 q 762 149 770 127 l 701 319 l 307 319 l 237 149 q 246 91 221 108 q 363 75 271 75 l 363 0 l -7 0 l -7 75 m 545 1027 q 621 1089 600 1027 q 628 1134 628 1109 q 604 1211 628 1181 q 545 1240 581 1240 q 468 1179 489 1240 q 461 1134 461 1159 q 513 1034 461 1059 q 545 1027 528 1027 m 674 393 l 517 833 l 337 393 l 674 393 z "},"Æ":{"ha":1462,"x_min":-15,"x_max":1401,"o":"m -15 75 q 128 149 79 75 l 583 838 q 560 937 635 916 q 510 943 541 943 l 433 943 l 433 1017 l 1355 1017 l 1381 771 l 1283 770 l 1265 847 q 1237 916 1251 902 q 1152 941 1212 941 l 898 941 l 898 547 l 1025 547 q 1083 548 1061 547 q 1119 561 1105 549 q 1133 641 1133 572 l 1234 641 l 1234 378 l 1133 378 q 1119 456 1133 444 q 1083 470 1105 468 q 1025 472 1061 472 l 898 472 l 898 75 l 1179 75 q 1280 123 1262 75 q 1291 161 1286 140 l 1310 245 l 1401 245 l 1375 0 l 630 0 l 630 75 q 715 87 696 75 q 739 113 734 99 q 745 147 745 127 l 745 319 l 354 319 l 243 149 q 238 92 218 110 q 349 75 259 75 l 349 0 l -15 0 l -15 75 m 745 393 l 745 913 l 403 393 l 745 393 z "},"Ç":{"ha":1011,"x_min":53,"x_max":909,"o":"m 597 -115 q 421 -284 597 -284 q 349 -273 382 -284 q 309 -257 317 -262 l 314 -185 q 366 -195 348 -195 q 448 -175 420 -195 q 511 -14 509 -132 q 198 109 323 -12 q 53 509 53 246 q 167 865 53 720 q 382 1010 248 969 q 534 1031 451 1031 q 802 956 697 1031 q 907 768 907 881 q 841 654 907 683 q 798 645 821 645 q 703 705 727 645 q 695 750 695 724 q 710 802 695 777 q 749 841 725 827 q 553 946 694 946 q 322 839 411 946 q 233 516 233 731 q 323 188 233 300 q 541 75 414 75 q 811 271 755 75 l 909 271 q 819 91 909 173 q 587 -9 728 8 q 597 -115 597 -66 z "},"È":{"ha":900,"x_min":55,"x_max":860,"o":"m 55 0 m 55 75 q 140 87 121 75 q 164 113 159 99 q 170 147 170 127 l 170 869 q 144 927 170 911 q 56 943 119 943 l 56 1017 l 793 1017 l 820 771 l 722 770 l 703 847 q 675 916 690 902 q 591 941 650 941 l 322 941 l 322 547 l 454 547 q 548 557 530 547 q 571 586 565 567 q 578 641 578 605 l 666 641 l 666 378 l 578 378 q 553 457 578 441 q 454 472 528 472 l 322 472 l 322 75 l 610 75 q 715 127 689 75 q 731 161 723 144 l 762 245 l 860 245 l 833 0 l 55 0 l 55 75 m 544 1130 q 544 1123 544 1130 q 534 1105 544 1115 q 503 1095 525 1095 q 444 1122 481 1095 l 308 1223 q 269 1297 269 1253 q 304 1358 269 1341 q 334 1363 315 1363 q 393 1344 373 1363 q 448 1276 412 1326 l 532 1161 q 544 1130 544 1145 z "},"É":{"ha":900,"x_min":55,"x_max":860,"o":"m 55 0 m 55 75 q 140 87 121 75 q 164 113 159 99 q 170 147 170 127 l 170 869 q 144 927 170 911 q 56 943 119 943 l 56 1017 l 793 1017 l 820 771 l 722 770 l 703 847 q 675 916 690 902 q 591 941 650 941 l 322 941 l 322 547 l 454 547 q 548 557 530 547 q 571 586 565 567 q 578 641 578 605 l 666 641 l 666 378 l 578 378 q 553 457 578 441 q 454 472 528 472 l 322 472 l 322 75 l 610 75 q 715 127 689 75 q 731 161 723 144 l 762 245 l 860 245 l 833 0 l 55 0 l 55 75 m 470 1122 q 410 1095 432 1095 q 370 1130 370 1095 q 382 1161 370 1145 l 465 1276 q 521 1344 501 1326 q 584 1363 541 1363 q 641 1322 627 1363 q 645 1295 645 1310 q 606 1223 645 1253 l 470 1122 z "},"Ê":{"ha":900,"x_min":55,"x_max":860,"o":"m 55 0 m 55 75 q 140 87 121 75 q 164 113 159 99 q 170 147 170 127 l 170 869 q 144 927 170 911 q 56 943 119 943 l 56 1017 l 793 1017 l 820 771 l 722 770 l 703 847 q 675 916 690 902 q 591 941 650 941 l 322 941 l 322 547 l 454 547 q 548 557 530 547 q 571 586 565 567 q 578 641 578 605 l 666 641 l 666 378 l 578 378 q 553 457 578 441 q 454 472 528 472 l 322 472 l 322 75 l 610 75 q 715 127 689 75 q 731 161 723 144 l 762 245 l 860 245 l 833 0 l 55 0 l 55 75 m 687 1144 q 654 1120 687 1120 q 614 1133 637 1121 l 440 1221 l 266 1133 q 226 1120 243 1121 q 193 1144 193 1120 q 203 1166 193 1155 l 402 1356 l 478 1356 l 677 1166 q 687 1144 687 1155 z "},"Ë":{"ha":900,"x_min":55,"x_max":860,"o":"m 55 0 m 55 75 q 140 87 121 75 q 164 113 159 99 q 170 147 170 127 l 170 869 q 144 927 170 911 q 56 943 119 943 l 56 1017 l 793 1017 l 820 771 l 722 770 l 703 847 q 675 916 690 902 q 591 941 650 941 l 322 941 l 322 547 l 454 547 q 548 557 530 547 q 571 586 565 567 q 578 641 578 605 l 666 641 l 666 378 l 578 378 q 553 457 578 441 q 454 472 528 472 l 322 472 l 322 75 l 610 75 q 715 127 689 75 q 731 161 723 144 l 762 245 l 860 245 l 833 0 l 55 0 l 55 75 m 603 1123 q 529 1152 559 1123 q 499 1224 499 1181 q 529 1297 499 1267 q 603 1327 559 1327 q 676 1297 646 1327 q 707 1224 707 1267 q 676 1152 707 1181 q 603 1123 646 1123 m 277 1123 q 204 1152 234 1123 q 174 1224 174 1181 q 204 1297 174 1267 q 277 1327 234 1327 q 351 1297 321 1327 q 381 1224 381 1267 q 351 1152 381 1181 q 277 1123 321 1123 z "},"Ì":{"ha":515,"x_min":67,"x_max":448,"o":"m 67 0 m 67 75 q 151 87 132 75 q 176 114 171 100 q 182 149 182 128 l 181 869 q 165 924 181 913 q 67 943 139 943 l 67 1017 l 448 1017 l 448 943 q 364 930 384 943 q 339 903 345 918 q 334 869 334 889 l 334 149 q 350 94 334 104 q 448 75 376 75 l 448 0 l 67 0 l 67 75 m 361 1130 q 361 1123 361 1130 q 351 1105 361 1115 q 320 1095 342 1095 q 260 1122 298 1095 l 125 1223 q 85 1297 85 1253 q 121 1358 85 1341 q 151 1363 132 1363 q 210 1344 190 1363 q 265 1276 229 1326 l 349 1161 q 361 1130 361 1145 z "},"Í":{"ha":515,"x_min":67,"x_max":462,"o":"m 67 0 m 67 75 q 151 87 132 75 q 176 114 171 100 q 182 149 182 128 l 181 869 q 165 924 181 913 q 67 943 139 943 l 67 1017 l 448 1017 l 448 943 q 364 930 384 943 q 339 903 345 918 q 334 869 334 889 l 334 149 q 350 94 334 104 q 448 75 376 75 l 448 0 l 67 0 l 67 75 m 287 1122 q 227 1095 249 1095 q 186 1130 186 1095 q 199 1161 186 1145 l 282 1276 q 338 1344 318 1326 q 400 1363 357 1363 q 458 1322 444 1363 q 462 1295 462 1310 q 422 1223 462 1253 l 287 1122 z "},"Î":{"ha":515,"x_min":10,"x_max":504,"o":"m 10 0 m 67 75 q 151 87 132 75 q 176 114 171 100 q 182 149 182 128 l 181 869 q 165 924 181 913 q 67 943 139 943 l 67 1017 l 448 1017 l 448 943 q 364 930 384 943 q 339 903 345 918 q 334 869 334 889 l 334 149 q 350 94 334 104 q 448 75 376 75 l 448 0 l 67 0 l 67 75 m 504 1144 q 471 1120 504 1120 q 431 1133 454 1121 l 257 1221 l 83 1133 q 43 1120 60 1121 q 10 1144 10 1120 q 20 1166 10 1155 l 219 1356 l 295 1356 l 494 1166 q 504 1144 504 1155 z "},"Ï":{"ha":515,"x_min":-9,"x_max":524,"o":"m 0 0 m 67 75 q 151 87 132 75 q 176 114 171 100 q 182 149 182 128 l 181 869 q 165 924 181 913 q 67 943 139 943 l 67 1017 l 448 1017 l 448 943 q 364 930 384 943 q 339 903 345 918 q 334 869 334 889 l 334 149 q 350 94 334 104 q 448 75 376 75 l 448 0 l 67 0 l 67 75 m 420 1123 q 346 1152 376 1123 q 316 1224 316 1181 q 346 1297 316 1267 q 420 1327 376 1327 q 493 1297 463 1327 q 524 1224 524 1267 q 493 1152 524 1181 q 420 1123 463 1123 m 94 1123 q 21 1152 51 1123 q -9 1224 -9 1181 q 21 1297 -9 1267 q 94 1327 51 1327 q 168 1297 138 1327 q 198 1224 198 1267 q 168 1152 198 1181 q 94 1123 138 1123 z "},"Ð":{"ha":1029,"x_min":56,"x_max":974,"o":"m 56 75 q 145 87 127 75 q 166 114 163 100 q 170 149 170 128 l 170 490 l 56 490 l 56 572 l 170 572 l 170 869 q 155 924 170 913 q 56 943 127 943 l 56 1017 l 427 1017 q 850 883 713 1017 q 974 533 974 760 q 692 51 974 172 q 420 0 574 0 l 56 0 l 56 75 m 435 75 q 793 518 793 75 q 698 838 793 726 q 407 949 603 949 l 326 949 l 326 572 l 557 572 l 557 490 l 326 490 l 326 75 l 435 75 z "},"Ñ":{"ha":1166,"x_min":66,"x_max":1108,"o":"m 66 0 m 66 76 q 153 89 133 76 q 178 116 172 102 q 184 151 184 131 l 184 866 q 168 922 184 910 q 66 941 140 941 l 66 1017 l 300 1017 l 882 279 l 882 866 q 867 922 882 911 q 766 941 840 941 l 766 1017 l 1108 1017 l 1108 941 q 1022 928 1042 941 q 997 901 1002 916 q 991 866 991 886 l 991 0 l 907 0 l 292 781 l 292 151 q 309 96 292 107 q 410 76 336 76 l 410 0 l 66 0 l 66 76 m 761 1131 q 690 1113 728 1113 q 629 1121 653 1113 q 585 1143 604 1130 q 549 1171 565 1156 q 509 1207 532 1185 q 467 1228 485 1228 q 401 1168 412 1228 l 392 1105 l 319 1105 q 427 1333 328 1280 q 497 1350 460 1350 q 559 1342 535 1350 q 603 1320 583 1333 q 640 1293 623 1308 q 680 1256 656 1278 q 722 1235 704 1235 q 785 1295 773 1235 l 795 1358 l 869 1358 q 761 1131 856 1181 z "},"Ò":{"ha":1070,"x_min":56,"x_max":1015,"o":"m 56 0 m 56 509 q 95 738 56 637 q 201 903 134 838 q 535 1031 332 1031 q 869 905 739 1031 q 1015 512 1015 766 q 881 122 1015 258 q 535 -14 748 -14 q 189 124 323 -14 q 56 509 56 262 m 537 75 q 736 163 656 75 q 838 501 838 274 q 751 836 838 728 q 533 943 665 943 q 317 836 402 943 q 232 515 232 729 q 400 111 232 208 q 537 75 462 75 m 639 1130 q 639 1123 639 1130 q 629 1105 639 1115 q 598 1095 620 1095 q 538 1122 576 1095 l 403 1223 q 363 1297 363 1253 q 399 1358 363 1341 q 429 1363 410 1363 q 488 1344 468 1363 q 543 1276 507 1326 l 627 1161 q 639 1130 639 1145 z "},"Ó":{"ha":1070,"x_min":56,"x_max":1015,"o":"m 56 0 m 56 509 q 95 738 56 637 q 201 903 134 838 q 535 1031 332 1031 q 869 905 739 1031 q 1015 512 1015 766 q 881 122 1015 258 q 535 -14 748 -14 q 189 124 323 -14 q 56 509 56 262 m 537 75 q 736 163 656 75 q 838 501 838 274 q 751 836 838 728 q 533 943 665 943 q 317 836 402 943 q 232 515 232 729 q 400 111 232 208 q 537 75 462 75 m 565 1122 q 505 1095 527 1095 q 465 1130 465 1095 q 477 1161 465 1145 l 560 1276 q 616 1344 596 1326 q 679 1363 635 1363 q 736 1322 722 1363 q 740 1295 740 1310 q 701 1223 740 1253 l 565 1122 z "},"Ô":{"ha":1070,"x_min":56,"x_max":1015,"o":"m 56 0 m 56 509 q 95 738 56 637 q 201 903 134 838 q 535 1031 332 1031 q 869 905 739 1031 q 1015 512 1015 766 q 881 122 1015 258 q 535 -14 748 -14 q 189 124 323 -14 q 56 509 56 262 m 537 75 q 736 163 656 75 q 838 501 838 274 q 751 836 838 728 q 533 943 665 943 q 317 836 402 943 q 232 515 232 729 q 400 111 232 208 q 537 75 462 75 m 782 1144 q 749 1120 782 1120 q 709 1133 732 1121 l 535 1221 l 361 1133 q 321 1120 338 1121 q 288 1144 288 1120 q 298 1166 288 1155 l 497 1356 l 573 1356 l 772 1166 q 782 1144 782 1155 z "},"Õ":{"ha":1070,"x_min":56,"x_max":1015,"o":"m 56 0 m 56 509 q 95 738 56 637 q 201 903 134 838 q 535 1031 332 1031 q 869 905 739 1031 q 1015 512 1015 766 q 881 122 1015 258 q 535 -14 748 -14 q 189 124 323 -14 q 56 509 56 262 m 537 75 q 736 163 656 75 q 838 501 838 274 q 751 836 838 728 q 533 943 665 943 q 317 836 402 943 q 232 515 232 729 q 400 111 232 208 q 537 75 462 75 m 702 1131 q 631 1113 669 1113 q 570 1121 594 1113 q 526 1143 545 1130 q 490 1171 506 1156 q 450 1207 473 1185 q 408 1228 426 1228 q 342 1168 353 1228 l 333 1105 l 260 1105 q 368 1333 269 1280 q 438 1350 401 1350 q 500 1342 476 1350 q 544 1320 524 1333 q 581 1293 564 1308 q 621 1256 597 1278 q 663 1235 645 1235 q 726 1295 714 1235 l 736 1358 l 810 1358 q 702 1131 797 1181 z "},"Ö":{"ha":1070,"x_min":56,"x_max":1015,"o":"m 56 0 m 56 509 q 95 738 56 637 q 201 903 134 838 q 535 1031 332 1031 q 869 905 739 1031 q 1015 512 1015 766 q 881 122 1015 258 q 535 -14 748 -14 q 189 124 323 -14 q 56 509 56 262 m 537 75 q 736 163 656 75 q 838 501 838 274 q 751 836 838 728 q 533 943 665 943 q 317 836 402 943 q 232 515 232 729 q 400 111 232 208 q 537 75 462 75 m 698 1123 q 624 1152 654 1123 q 594 1224 594 1181 q 624 1297 594 1267 q 698 1327 654 1327 q 771 1297 741 1327 q 802 1224 802 1267 q 771 1152 802 1181 q 698 1123 741 1123 m 372 1123 q 299 1152 329 1123 q 269 1224 269 1181 q 299 1297 269 1267 q 372 1327 329 1327 q 446 1297 416 1327 q 476 1224 476 1267 q 446 1152 476 1181 q 372 1123 416 1123 z "},"×":{"ha":922,"x_min":150,"x_max":755,"o":"m 374 446 l 150 671 l 228 749 l 452 524 l 677 749 l 755 671 l 530 446 l 755 221 l 677 143 l 452 368 l 228 143 l 150 221 l 374 446 z "},"Ø":{"ha":1070,"x_min":56,"x_max":1015,"o":"m 823 944 q 1015 501 1015 807 q 881 122 1015 258 q 535 -14 748 -14 q 290 47 396 -14 l 220 -70 l 150 -22 l 220 96 q 56 498 56 235 q 201 903 56 760 q 535 1031 332 1031 q 749 987 652 1031 l 816 1099 l 886 1052 l 823 944 m 693 892 q 533 943 623 943 q 317 836 402 943 q 232 531 232 729 q 294 221 232 332 l 693 892 m 350 148 q 542 75 428 75 q 736 163 656 75 q 838 515 838 274 q 755 831 838 718 l 350 148 z "},"Ù":{"ha":1096,"x_min":43,"x_max":1060,"o":"m 43 0 m 560 85 q 829 420 829 85 l 829 869 q 814 924 829 913 q 715 943 787 943 l 715 1017 l 1060 1017 l 1060 943 q 976 930 996 943 q 951 903 956 918 q 945 869 945 889 l 946 427 q 710 12 946 94 q 565 -14 635 -14 q 448 -4 495 -14 q 357 28 401 6 q 206 172 262 75 q 150 420 150 268 l 150 869 q 135 924 150 912 q 43 943 110 943 l 43 1017 l 422 1017 l 422 943 q 333 930 354 943 q 307 903 313 918 q 301 869 301 889 l 301 406 q 375 164 301 243 q 560 85 449 85 m 685 1130 q 685 1123 685 1130 q 675 1105 685 1115 q 644 1095 666 1095 q 585 1122 623 1095 l 449 1223 q 410 1297 410 1253 q 445 1358 410 1341 q 475 1363 456 1363 q 534 1344 514 1363 q 589 1276 553 1326 l 673 1161 q 685 1130 685 1145 z "},"Ú":{"ha":1096,"x_min":43,"x_max":1060,"o":"m 43 0 m 560 85 q 829 420 829 85 l 829 869 q 814 924 829 913 q 715 943 787 943 l 715 1017 l 1060 1017 l 1060 943 q 976 930 996 943 q 951 903 956 918 q 945 869 945 889 l 946 427 q 710 12 946 94 q 565 -14 635 -14 q 448 -4 495 -14 q 357 28 401 6 q 206 172 262 75 q 150 420 150 268 l 150 869 q 135 924 150 912 q 43 943 110 943 l 43 1017 l 422 1017 l 422 943 q 333 930 354 943 q 307 903 313 918 q 301 869 301 889 l 301 406 q 375 164 301 243 q 560 85 449 85 m 611 1122 q 551 1095 573 1095 q 511 1130 511 1095 q 523 1161 511 1145 l 606 1276 q 662 1344 642 1326 q 725 1363 682 1363 q 782 1322 768 1363 q 786 1295 786 1310 q 747 1223 786 1253 l 611 1122 z "},"Û":{"ha":1096,"x_min":43,"x_max":1060,"o":"m 43 0 m 560 85 q 829 420 829 85 l 829 869 q 814 924 829 913 q 715 943 787 943 l 715 1017 l 1060 1017 l 1060 943 q 976 930 996 943 q 951 903 956 918 q 945 869 945 889 l 946 427 q 710 12 946 94 q 565 -14 635 -14 q 448 -4 495 -14 q 357 28 401 6 q 206 172 262 75 q 150 420 150 268 l 150 869 q 135 924 150 912 q 43 943 110 943 l 43 1017 l 422 1017 l 422 943 q 333 930 354 943 q 307 903 313 918 q 301 869 301 889 l 301 406 q 375 164 301 243 q 560 85 449 85 m 828 1144 q 795 1120 828 1120 q 755 1133 778 1121 l 581 1221 l 407 1133 q 367 1120 385 1121 q 334 1144 334 1120 q 345 1166 334 1155 l 543 1356 l 619 1356 l 818 1166 q 828 1144 828 1155 z "},"Ü":{"ha":1096,"x_min":43,"x_max":1060,"o":"m 43 0 m 560 85 q 829 420 829 85 l 829 869 q 814 924 829 913 q 715 943 787 943 l 715 1017 l 1060 1017 l 1060 943 q 976 930 996 943 q 951 903 956 918 q 945 869 945 889 l 946 427 q 710 12 946 94 q 565 -14 635 -14 q 448 -4 495 -14 q 357 28 401 6 q 206 172 262 75 q 150 420 150 268 l 150 869 q 135 924 150 912 q 43 943 110 943 l 43 1017 l 422 1017 l 422 943 q 333 930 354 943 q 307 903 313 918 q 301 869 301 889 l 301 406 q 375 164 301 243 q 560 85 449 85 m 744 1123 q 670 1152 701 1123 q 640 1224 640 1181 q 670 1297 640 1267 q 744 1327 701 1327 q 818 1297 787 1327 q 848 1224 848 1267 q 818 1152 848 1181 q 744 1123 787 1123 m 418 1123 q 345 1152 375 1123 q 315 1224 315 1181 q 345 1297 315 1267 q 418 1327 375 1327 q 492 1297 462 1327 q 522 1224 522 1267 q 492 1152 522 1181 q 418 1123 462 1123 z "},"Ý":{"ha":938,"x_min":-24,"x_max":962,"o":"m 0 0 m 268 75 q 369 87 345 75 q 401 114 394 100 q 408 149 408 128 l 408 341 l 124 869 q 77 922 101 910 q -24 943 37 943 l -24 1017 l 368 1017 l 368 943 q 292 926 303 943 q 302 869 281 910 l 503 455 l 715 869 q 724 922 736 910 q 612 943 701 943 l 612 1017 l 962 1017 l 962 943 q 880 926 912 943 q 826 869 848 909 l 553 368 l 553 149 q 581 90 553 106 q 693 75 608 75 l 693 0 l 268 0 l 268 75 m 539 1122 q 479 1095 501 1095 q 439 1130 439 1095 q 451 1161 439 1145 l 534 1276 q 590 1344 570 1326 q 653 1363 610 1363 q 710 1322 696 1363 q 714 1295 714 1310 q 675 1223 714 1253 l 539 1122 z "},"Þ":{"ha":867,"x_min":36,"x_max":801,"o":"m 801 515 q 366 212 801 212 q 326 213 347 212 l 302 213 l 302 176 q 305 126 302 146 q 319 95 307 106 q 425 75 339 75 l 425 0 l 36 0 l 36 75 q 125 87 107 75 q 146 114 142 100 q 149 149 149 128 l 149 869 q 134 924 149 913 q 36 943 107 943 l 36 1017 l 425 1017 l 425 943 q 322 929 338 943 q 305 897 307 916 q 302 848 302 878 l 302 823 l 399 823 q 774 659 701 823 q 801 515 801 600 m 356 282 q 637 502 637 282 q 387 748 637 748 l 302 748 l 302 282 l 356 282 z "},"ß":{"ha":885,"x_min":33,"x_max":828,"o":"m 48 75 q 121 87 106 75 q 138 113 135 99 q 141 147 141 127 l 141 562 q 135 598 141 589 q 108 606 128 606 l 33 606 l 33 688 l 104 688 q 131 695 124 688 q 138 729 138 703 q 234 1016 138 920 q 475 1112 329 1112 q 713 963 656 1112 q 733 852 733 911 q 691 680 733 749 q 575 581 648 610 q 757 477 686 557 q 828 268 828 396 q 756 63 828 140 q 569 -14 684 -14 q 376 168 376 -14 q 378 206 376 187 l 436 206 q 461 123 446 144 q 553 84 491 84 q 644 143 615 84 q 672 279 672 201 q 589 477 672 420 q 378 525 519 525 l 378 602 q 583 808 568 602 q 585 867 585 838 q 551 986 585 935 q 460 1038 518 1038 q 376 1019 402 1038 q 309 909 330 985 q 288 688 288 833 l 288 0 l 48 0 l 48 75 z "},"à":{"ha":795,"x_min":65,"x_max":810,"o":"m 65 0 m 648 162 q 680 81 648 81 q 724 102 710 81 q 739 177 739 123 l 810 177 q 810 149 810 168 q 780 43 810 88 q 661 -14 743 -14 q 571 16 608 -14 q 519 95 534 46 q 271 -14 421 -14 q 126 35 188 -14 q 65 170 65 83 q 288 393 65 321 q 456 455 429 437 q 493 490 484 472 q 501 530 501 508 q 462 597 501 570 q 359 624 422 624 q 248 590 296 624 q 282 526 282 565 q 256 463 282 486 q 193 439 230 439 q 132 461 156 439 q 108 524 108 484 q 188 652 108 603 q 382 701 268 701 q 633 568 587 701 q 648 467 648 524 l 648 162 m 349 331 q 259 265 289 305 q 229 177 229 224 q 255 105 229 130 q 319 81 281 81 q 450 136 398 81 q 501 290 501 191 l 501 395 q 409 354 458 372 q 349 331 361 336 m 457 858 q 459 841 459 850 q 450 820 459 831 q 425 810 441 810 q 364 851 389 810 l 276 998 q 248 1078 248 1044 q 326 1146 248 1146 q 389 1117 370 1146 q 423 1018 408 1088 l 457 858 z "},"á":{"ha":795,"x_min":65,"x_max":810,"o":"m 65 0 m 648 162 q 680 81 648 81 q 724 102 710 81 q 739 177 739 123 l 810 177 q 810 149 810 168 q 780 43 810 88 q 661 -14 743 -14 q 571 16 608 -14 q 519 95 534 46 q 271 -14 421 -14 q 126 35 188 -14 q 65 170 65 83 q 288 393 65 321 q 456 455 429 437 q 493 490 484 472 q 501 530 501 508 q 462 597 501 570 q 359 624 422 624 q 248 590 296 624 q 282 526 282 565 q 256 463 282 486 q 193 439 230 439 q 132 461 156 439 q 108 524 108 484 q 188 652 108 603 q 382 701 268 701 q 633 568 587 701 q 648 467 648 524 l 648 162 m 349 331 q 259 265 289 305 q 229 177 229 224 q 255 105 229 130 q 319 81 281 81 q 450 136 398 81 q 501 290 501 191 l 501 395 q 409 354 458 372 q 349 331 361 336 m 434 851 q 374 810 409 810 q 348 820 357 810 q 339 841 339 831 q 341 858 339 850 l 375 1018 q 404 1109 390 1088 q 469 1146 429 1146 q 550 1080 550 1146 q 522 998 550 1044 l 434 851 z "},"â":{"ha":795,"x_min":65,"x_max":810,"o":"m 65 0 m 648 162 q 680 81 648 81 q 724 102 710 81 q 739 177 739 123 l 810 177 q 810 149 810 168 q 780 43 810 88 q 661 -14 743 -14 q 571 16 608 -14 q 519 95 534 46 q 271 -14 421 -14 q 126 35 188 -14 q 65 170 65 83 q 288 393 65 321 q 456 455 429 437 q 493 490 484 472 q 501 530 501 508 q 462 597 501 570 q 359 624 422 624 q 248 590 296 624 q 282 526 282 565 q 256 463 282 486 q 193 439 230 439 q 132 461 156 439 q 108 524 108 484 q 188 652 108 603 q 382 701 268 701 q 633 568 587 701 q 648 467 648 524 l 648 162 m 349 331 q 259 265 289 305 q 229 177 229 224 q 255 105 229 130 q 319 81 281 81 q 450 136 398 81 q 501 290 501 191 l 501 395 q 409 354 458 372 q 349 331 361 336 m 241 814 q 201 791 216 791 q 165 816 165 791 q 172 833 165 824 l 357 1085 l 433 1085 l 618 833 q 624 819 624 824 q 596 791 624 791 q 549 814 573 791 l 395 932 l 241 814 z "},"ã":{"ha":795,"x_min":65,"x_max":810,"o":"m 65 0 m 648 162 q 680 81 648 81 q 724 102 710 81 q 739 177 739 123 l 810 177 q 810 149 810 168 q 780 43 810 88 q 661 -14 743 -14 q 571 16 608 -14 q 519 95 534 46 q 271 -14 421 -14 q 126 35 188 -14 q 65 170 65 83 q 288 393 65 321 q 456 455 429 437 q 493 490 484 472 q 501 530 501 508 q 462 597 501 570 q 359 624 422 624 q 248 590 296 624 q 282 526 282 565 q 256 463 282 486 q 193 439 230 439 q 132 461 156 439 q 108 524 108 484 q 188 652 108 603 q 382 701 268 701 q 633 568 587 701 q 648 467 648 524 l 648 162 m 349 331 q 259 265 289 305 q 229 177 229 224 q 255 105 229 130 q 319 81 281 81 q 450 136 398 81 q 501 290 501 191 l 501 395 q 409 354 458 372 q 349 331 361 336 m 562 853 q 491 836 528 836 q 429 844 454 836 q 385 865 405 852 q 349 893 366 878 q 309 929 333 908 q 268 951 286 951 q 201 891 212 951 l 193 828 l 120 828 q 227 1055 129 1003 q 298 1073 260 1073 q 360 1064 336 1073 q 404 1043 384 1056 q 440 1015 424 1030 q 480 979 456 1000 q 522 958 505 958 q 586 1017 574 958 l 596 1080 l 669 1080 q 562 853 656 903 z "},"ä":{"ha":795,"x_min":65,"x_max":810,"o":"m 65 0 m 648 162 q 680 81 648 81 q 724 102 710 81 q 739 177 739 123 l 810 177 q 810 149 810 168 q 780 43 810 88 q 661 -14 743 -14 q 571 16 608 -14 q 519 95 534 46 q 271 -14 421 -14 q 126 35 188 -14 q 65 170 65 83 q 288 393 65 321 q 456 455 429 437 q 493 490 484 472 q 501 530 501 508 q 462 597 501 570 q 359 624 422 624 q 248 590 296 624 q 282 526 282 565 q 256 463 282 486 q 193 439 230 439 q 132 461 156 439 q 108 524 108 484 q 188 652 108 603 q 382 701 268 701 q 633 568 587 701 q 648 467 648 524 l 648 162 m 349 331 q 259 265 289 305 q 229 177 229 224 q 255 105 229 130 q 319 81 281 81 q 450 136 398 81 q 501 290 501 191 l 501 395 q 409 354 458 372 q 349 331 361 336 m 557 831 q 484 860 514 831 q 454 932 454 889 q 484 1005 454 975 q 557 1035 514 1035 q 631 1005 601 1035 q 661 932 661 975 q 631 860 661 889 q 557 831 601 831 m 232 831 q 158 860 189 831 q 128 932 128 889 q 158 1005 128 975 q 232 1035 189 1035 q 306 1005 275 1035 q 336 932 336 975 q 306 860 336 889 q 232 831 275 831 z "},"å":{"ha":795,"x_min":65,"x_max":810,"o":"m 65 0 m 648 162 q 680 81 648 81 q 724 102 710 81 q 739 177 739 123 l 810 177 q 810 149 810 168 q 780 43 810 88 q 661 -14 743 -14 q 571 16 608 -14 q 519 95 534 46 q 271 -14 421 -14 q 126 35 188 -14 q 65 170 65 83 q 288 393 65 321 q 456 455 429 437 q 493 490 484 472 q 501 530 501 508 q 462 597 501 570 q 359 624 422 624 q 248 590 296 624 q 282 526 282 565 q 256 463 282 486 q 193 439 230 439 q 132 461 156 439 q 108 524 108 484 q 188 652 108 603 q 382 701 268 701 q 633 568 587 701 q 648 467 648 524 l 648 162 m 349 331 q 259 265 289 305 q 229 177 229 224 q 255 105 229 130 q 319 81 281 81 q 450 136 398 81 q 501 290 501 191 l 501 395 q 409 354 458 372 q 349 331 361 336 m 395 796 q 261 851 316 796 q 207 984 207 905 q 262 1118 207 1063 q 395 1173 317 1173 q 528 1117 473 1173 q 583 984 583 1062 q 528 851 583 906 q 395 796 473 796 m 395 877 q 471 939 450 877 q 478 984 478 959 q 454 1061 478 1031 q 395 1090 431 1090 q 318 1029 339 1090 q 311 984 311 1009 q 362 884 311 909 q 395 877 378 877 z "},"æ":{"ha":1196,"x_min":65,"x_max":1134,"o":"m 554 125 q 283 -14 477 -14 q 130 35 195 -14 q 65 168 65 83 q 131 307 65 252 q 282 388 197 361 q 409 428 367 414 q 474 457 450 443 q 506 490 497 472 q 514 532 514 508 q 479 601 514 575 q 390 627 444 627 q 241 581 303 627 q 273 515 273 557 q 218 434 273 457 q 175 427 202 427 q 123 451 147 427 q 99 515 99 475 q 188 649 99 596 q 414 701 277 701 q 612 624 551 701 q 832 701 698 701 q 1109 531 1046 701 q 1134 370 1134 463 q 1133 313 1134 340 l 662 313 q 718 133 662 197 q 842 68 773 68 q 949 92 911 68 q 1010 158 987 115 l 1112 159 q 1022 37 1095 87 q 826 -14 949 -14 q 610 62 703 -14 q 554 125 578 88 m 976 414 q 835 622 976 622 q 711 560 756 622 q 662 389 666 498 l 975 389 q 976 414 976 402 m 514 395 q 361 331 479 377 q 228 182 228 282 q 256 107 228 134 q 325 81 284 81 q 460 136 406 81 q 514 290 514 191 l 514 395 z "},"ç":{"ha":714,"x_min":61,"x_max":663,"o":"m 457 -115 q 281 -284 457 -284 q 209 -273 241 -284 q 169 -257 176 -262 l 174 -185 q 225 -195 208 -195 q 308 -175 279 -195 q 371 -13 368 -132 q 159 71 243 -8 q 61 326 61 165 q 148 594 61 486 q 404 701 235 701 q 589 648 515 701 q 663 509 663 594 q 636 440 663 468 q 568 412 609 412 q 486 467 509 412 q 479 503 479 483 q 519 576 479 549 q 410 623 480 623 q 237 473 277 623 q 224 346 224 420 q 277 138 224 208 q 409 68 330 68 q 508 102 467 68 q 564 199 549 136 l 657 199 q 601 67 657 127 q 447 -9 544 7 q 457 -115 457 -66 z "},"è":{"ha":764,"x_min":72,"x_max":706,"o":"m 72 0 m 705 313 l 234 313 q 289 132 234 196 q 426 68 345 68 q 583 159 535 68 l 684 159 q 594 37 668 87 q 396 -14 521 -14 q 180 64 271 -14 q 72 326 72 157 q 158 598 72 494 q 406 701 245 701 q 681 530 618 701 q 706 401 706 462 q 705 313 706 340 m 548 414 q 407 622 548 622 q 283 560 328 622 q 235 389 239 498 l 547 389 q 548 414 548 402 m 471 858 q 473 841 473 850 q 464 820 473 831 q 439 810 455 810 q 378 851 404 810 l 290 998 q 262 1078 262 1044 q 340 1146 262 1146 q 403 1117 384 1146 q 437 1018 422 1088 l 471 858 z "},"é":{"ha":764,"x_min":72,"x_max":706,"o":"m 72 0 m 705 313 l 234 313 q 289 132 234 196 q 426 68 345 68 q 583 159 535 68 l 684 159 q 594 37 668 87 q 396 -14 521 -14 q 180 64 271 -14 q 72 326 72 157 q 158 598 72 494 q 406 701 245 701 q 681 530 618 701 q 706 401 706 462 q 705 313 706 340 m 548 414 q 407 622 548 622 q 283 560 328 622 q 235 389 239 498 l 547 389 q 548 414 548 402 m 448 851 q 388 810 423 810 q 362 820 372 810 q 353 841 353 831 q 355 858 353 850 l 389 1018 q 418 1109 404 1088 q 483 1146 443 1146 q 564 1080 564 1146 q 536 998 564 1044 l 448 851 z "},"ê":{"ha":764,"x_min":72,"x_max":706,"o":"m 72 0 m 705 313 l 234 313 q 289 132 234 196 q 426 68 345 68 q 583 159 535 68 l 684 159 q 594 37 668 87 q 396 -14 521 -14 q 180 64 271 -14 q 72 326 72 157 q 158 598 72 494 q 406 701 245 701 q 681 530 618 701 q 706 401 706 462 q 705 313 706 340 m 548 414 q 407 622 548 622 q 283 560 328 622 q 235 389 239 498 l 547 389 q 548 414 548 402 m 255 814 q 215 791 231 791 q 180 816 180 791 q 186 833 180 824 l 371 1085 l 447 1085 l 632 833 q 638 819 638 824 q 610 791 638 791 q 563 814 587 791 l 409 932 l 255 814 z "},"ë":{"ha":764,"x_min":72,"x_max":706,"o":"m 72 0 m 705 313 l 234 313 q 289 132 234 196 q 426 68 345 68 q 583 159 535 68 l 684 159 q 594 37 668 87 q 396 -14 521 -14 q 180 64 271 -14 q 72 326 72 157 q 158 598 72 494 q 406 701 245 701 q 681 530 618 701 q 706 401 706 462 q 705 313 706 340 m 548 414 q 407 622 548 622 q 283 560 328 622 q 235 389 239 498 l 547 389 q 548 414 548 402 m 572 831 q 498 860 528 831 q 468 932 468 889 q 498 1005 468 975 q 572 1035 528 1035 q 645 1005 615 1035 q 675 932 675 975 q 645 860 675 889 q 572 831 615 831 m 246 831 q 173 860 203 831 q 142 932 142 889 q 173 1005 142 975 q 246 1035 203 1035 q 320 1005 290 1035 q 350 932 350 975 q 320 860 350 889 q 246 831 290 831 z "},"ì":{"ha":493,"x_min":92,"x_max":442,"o":"m 92 0 m 93 75 q 172 86 156 75 q 191 112 188 98 q 195 146 195 125 l 195 519 q 186 583 195 568 q 140 598 178 598 l 92 598 l 92 673 q 196 683 158 673 q 250 697 234 692 q 283 701 265 701 q 330 681 319 701 q 341 614 341 660 l 341 146 q 355 92 341 103 q 442 75 378 75 l 442 0 l 93 0 l 93 75 m 322 858 q 324 841 324 850 q 315 820 324 831 q 290 810 306 810 q 229 851 254 810 l 141 998 q 113 1078 113 1044 q 191 1146 113 1146 q 254 1117 235 1146 q 288 1018 273 1088 l 322 858 z "},"í":{"ha":493,"x_min":92,"x_max":442,"o":"m 92 0 m 93 75 q 172 86 156 75 q 191 112 188 98 q 195 146 195 125 l 195 519 q 186 583 195 568 q 140 598 178 598 l 92 598 l 92 673 q 196 683 158 673 q 250 697 234 692 q 283 701 265 701 q 330 681 319 701 q 341 614 341 660 l 341 146 q 355 92 341 103 q 442 75 378 75 l 442 0 l 93 0 l 93 75 m 299 851 q 239 810 274 810 q 213 820 222 810 q 204 841 204 831 q 206 858 204 850 l 240 1018 q 269 1109 255 1088 q 334 1146 294 1146 q 415 1080 415 1146 q 387 998 415 1044 l 299 851 z "},"î":{"ha":493,"x_min":31,"x_max":489,"o":"m 31 0 m 93 75 q 172 86 156 75 q 191 112 188 98 q 195 146 195 125 l 195 519 q 186 583 195 568 q 140 598 178 598 l 92 598 l 92 673 q 196 683 158 673 q 250 697 234 692 q 283 701 265 701 q 330 681 319 701 q 341 614 341 660 l 341 146 q 355 92 341 103 q 442 75 378 75 l 442 0 l 93 0 l 93 75 m 106 814 q 66 791 81 791 q 31 816 31 791 q 37 833 31 824 l 222 1085 l 298 1085 l 483 833 q 489 819 489 824 q 461 791 489 791 q 414 814 438 791 l 260 932 l 106 814 z "},"ï":{"ha":507,"x_min":0,"x_max":533,"o":"m 0 0 m 100 75 q 179 86 163 75 q 198 112 195 98 q 201 146 201 125 l 201 519 q 193 583 201 568 q 147 598 184 598 l 98 598 l 98 673 q 203 683 165 673 q 256 697 241 692 q 290 701 272 701 q 337 681 326 701 q 348 614 348 660 l 348 146 q 361 92 348 103 q 449 75 385 75 l 449 0 l 100 0 l 100 75 m 429 831 q 356 860 386 831 q 326 932 326 889 q 356 1005 326 975 q 429 1035 386 1035 q 503 1005 473 1035 q 533 932 533 975 q 503 860 533 889 q 429 831 473 831 m 104 831 q 30 860 60 831 q 0 932 0 889 q 30 1005 0 975 q 104 1035 60 1035 q 177 1005 147 1035 q 208 932 208 975 q 177 860 208 889 q 104 831 147 831 z "},"ð":{"ha":770,"x_min":59,"x_max":713,"o":"m 213 1102 q 392 1032 297 1088 l 481 1128 l 541 1073 l 460 987 q 692 616 635 848 q 713 449 713 530 q 706 313 713 368 q 684 210 699 258 q 576 46 650 105 q 380 -14 502 -14 q 145 82 232 -11 q 59 340 59 176 q 144 603 59 505 q 392 701 230 701 q 562 638 487 701 q 398 920 547 794 l 296 811 l 237 867 l 331 967 q 185 1034 251 1015 l 213 1102 m 389 70 q 562 350 562 70 q 516 553 562 482 q 387 623 469 623 q 260 549 305 623 q 215 350 215 474 q 308 92 215 155 q 389 70 341 70 z "},"ñ":{"ha":869,"x_min":53,"x_max":829,"o":"m 53 0 m 476 600 q 296 530 365 600 l 296 146 q 309 93 296 104 q 399 75 333 75 l 399 0 l 54 0 l 54 75 q 127 86 113 75 q 146 112 142 98 q 149 146 149 125 l 149 515 q 141 579 149 564 q 94 594 132 594 l 53 594 l 53 669 q 153 679 117 669 q 204 693 189 688 q 237 697 220 697 q 284 676 273 697 q 296 610 296 656 q 464 693 368 671 q 526 701 496 701 q 746 410 746 701 l 746 147 q 759 89 746 102 q 829 75 772 75 l 829 0 l 509 0 l 509 75 q 583 87 570 75 q 597 113 595 100 q 600 147 600 127 l 600 401 q 582 530 600 495 q 476 600 547 600 m 631 853 q 561 836 598 836 q 499 844 524 836 q 455 865 475 852 q 419 893 435 878 q 379 929 403 908 q 338 951 355 951 q 271 891 282 951 l 262 828 l 190 828 q 297 1055 199 1003 q 368 1073 330 1073 q 430 1064 406 1073 q 474 1043 454 1056 q 510 1015 494 1030 q 550 979 526 1000 q 592 958 574 958 q 656 1017 644 958 l 666 1080 l 739 1080 q 631 853 726 903 z "},"ò":{"ha":797,"x_min":68,"x_max":736,"o":"m 68 0 m 68 347 q 93 497 68 429 q 164 612 119 566 q 402 701 254 701 q 644 611 552 701 q 736 356 736 522 q 651 89 736 191 q 402 -14 566 -14 q 153 86 238 -14 q 68 347 68 185 m 402 68 q 530 140 481 68 q 579 342 579 212 q 473 604 579 551 q 402 620 441 620 q 239 468 277 620 q 225 346 225 416 q 274 140 225 212 q 402 68 323 68 m 460 858 q 463 841 463 850 q 453 820 463 831 q 428 810 444 810 q 368 851 393 810 l 279 998 q 252 1078 252 1044 q 330 1146 252 1146 q 392 1117 373 1146 q 427 1018 412 1088 l 460 858 z "},"ó":{"ha":797,"x_min":68,"x_max":736,"o":"m 68 0 m 68 347 q 93 497 68 429 q 164 612 119 566 q 402 701 254 701 q 644 611 552 701 q 736 356 736 522 q 651 89 736 191 q 402 -14 566 -14 q 153 86 238 -14 q 68 347 68 185 m 402 68 q 530 140 481 68 q 579 342 579 212 q 473 604 579 551 q 402 620 441 620 q 239 468 277 620 q 225 346 225 416 q 274 140 225 212 q 402 68 323 68 m 437 851 q 377 810 412 810 q 352 820 361 810 q 342 841 342 831 q 345 858 342 850 l 378 1018 q 407 1109 393 1088 q 472 1146 432 1146 q 553 1080 553 1146 q 526 998 553 1044 l 437 851 z "},"ô":{"ha":797,"x_min":68,"x_max":736,"o":"m 68 0 m 68 347 q 93 497 68 429 q 164 612 119 566 q 402 701 254 701 q 644 611 552 701 q 736 356 736 522 q 651 89 736 191 q 402 -14 566 -14 q 153 86 238 -14 q 68 347 68 185 m 402 68 q 530 140 481 68 q 579 342 579 212 q 473 604 579 551 q 402 620 441 620 q 239 468 277 620 q 225 346 225 416 q 274 140 225 212 q 402 68 323 68 m 244 814 q 204 791 220 791 q 169 816 169 791 q 175 833 169 824 l 360 1085 l 436 1085 l 621 833 q 627 819 627 824 q 600 791 627 791 q 552 814 576 791 l 398 932 l 244 814 z "},"õ":{"ha":797,"x_min":68,"x_max":736,"o":"m 68 0 m 68 347 q 93 497 68 429 q 164 612 119 566 q 402 701 254 701 q 644 611 552 701 q 736 356 736 522 q 651 89 736 191 q 402 -14 566 -14 q 153 86 238 -14 q 68 347 68 185 m 402 68 q 530 140 481 68 q 579 342 579 212 q 473 604 579 551 q 402 620 441 620 q 239 468 277 620 q 225 346 225 416 q 274 140 225 212 q 402 68 323 68 m 565 853 q 494 836 532 836 q 433 844 457 836 q 389 865 408 852 q 353 893 369 878 q 313 929 336 908 q 271 951 289 951 q 205 891 216 951 l 196 828 l 123 828 q 231 1055 132 1003 q 301 1073 264 1073 q 363 1064 339 1073 q 407 1043 387 1056 q 444 1015 427 1030 q 484 979 460 1000 q 526 958 508 958 q 589 1017 577 958 l 600 1080 l 673 1080 q 565 853 660 903 z "},"ö":{"ha":797,"x_min":68,"x_max":736,"o":"m 68 0 m 68 347 q 93 497 68 429 q 164 612 119 566 q 402 701 254 701 q 644 611 552 701 q 736 356 736 522 q 651 89 736 191 q 402 -14 566 -14 q 153 86 238 -14 q 68 347 68 185 m 402 68 q 530 140 481 68 q 579 342 579 212 q 473 604 579 551 q 402 620 441 620 q 239 468 277 620 q 225 346 225 416 q 274 140 225 212 q 402 68 323 68 m 561 831 q 487 860 517 831 q 457 932 457 889 q 487 1005 457 975 q 561 1035 517 1035 q 634 1005 604 1035 q 665 932 665 975 q 634 860 665 889 q 561 831 604 831 m 235 831 q 162 860 192 831 q 132 932 132 889 q 162 1005 132 975 q 235 1035 192 1035 q 309 1005 279 1035 q 339 932 339 975 q 309 860 339 889 q 235 831 279 831 z "},"÷":{"ha":922,"x_min":86,"x_max":833,"o":"m 460 651 q 377 685 411 651 q 342 768 342 720 q 377 851 342 817 q 460 886 411 886 q 543 851 509 886 q 577 768 577 817 q 543 685 577 720 q 460 651 509 651 m 86 516 l 833 516 l 833 406 l 86 406 l 86 516 m 342 158 q 377 241 342 207 q 460 275 411 275 q 543 241 509 275 q 577 158 577 207 q 543 75 577 109 q 460 41 509 41 q 377 75 411 41 q 342 158 342 109 z "},"ø":{"ha":797,"x_min":68,"x_max":736,"o":"m 397 -14 q 231 24 304 -14 l 170 -70 l 115 -31 l 176 63 q 68 337 68 158 q 161 608 68 515 q 402 701 254 701 q 566 666 493 701 l 623 754 l 679 715 l 623 629 q 736 343 736 536 q 651 89 736 191 q 397 -14 566 -14 m 402 620 q 225 331 225 620 q 252 181 225 247 l 509 578 q 402 620 467 620 m 292 117 q 409 68 337 68 q 530 140 481 68 q 579 329 579 212 q 550 516 579 446 l 292 117 z "},"ù":{"ha":814,"x_min":43,"x_max":789,"o":"m 43 0 m 558 111 q 332 -14 473 -14 q 172 50 229 -14 q 115 238 115 113 l 115 519 q 107 583 115 568 q 61 598 98 598 l 43 598 l 43 673 q 134 683 106 673 q 174 697 162 692 q 204 701 186 701 q 250 680 239 701 q 262 612 262 659 l 262 233 q 277 132 262 159 q 380 79 307 79 q 476 118 429 79 q 543 208 524 157 l 543 519 q 534 584 542 570 q 488 598 526 598 l 450 598 l 450 673 q 549 683 514 673 q 599 697 584 692 q 631 701 614 701 q 678 681 666 701 q 690 614 690 661 l 690 180 q 696 99 690 115 q 750 69 707 69 q 789 77 773 69 l 789 11 q 701 -14 757 -14 q 558 111 583 -14 m 456 858 q 458 841 458 850 q 449 820 458 831 q 423 810 439 810 q 363 851 388 810 l 275 998 q 247 1078 247 1044 q 325 1146 247 1146 q 388 1117 368 1146 q 422 1018 407 1088 l 456 858 z "},"ú":{"ha":814,"x_min":43,"x_max":789,"o":"m 43 0 m 558 111 q 332 -14 473 -14 q 172 50 229 -14 q 115 238 115 113 l 115 519 q 107 583 115 568 q 61 598 98 598 l 43 598 l 43 673 q 134 683 106 673 q 174 697 162 692 q 204 701 186 701 q 250 680 239 701 q 262 612 262 659 l 262 233 q 277 132 262 159 q 380 79 307 79 q 476 118 429 79 q 543 208 524 157 l 543 519 q 534 584 542 570 q 488 598 526 598 l 450 598 l 450 673 q 549 683 514 673 q 599 697 584 692 q 631 701 614 701 q 678 681 666 701 q 690 614 690 661 l 690 180 q 696 99 690 115 q 750 69 707 69 q 789 77 773 69 l 789 11 q 701 -14 757 -14 q 558 111 583 -14 m 433 851 q 372 810 408 810 q 347 820 356 810 q 338 841 338 831 q 340 858 338 850 l 374 1018 q 402 1109 389 1088 q 467 1146 427 1146 q 549 1080 549 1146 q 521 998 549 1044 l 433 851 z "},"û":{"ha":814,"x_min":43,"x_max":789,"o":"m 43 0 m 558 111 q 332 -14 473 -14 q 172 50 229 -14 q 115 238 115 113 l 115 519 q 107 583 115 568 q 61 598 98 598 l 43 598 l 43 673 q 134 683 106 673 q 174 697 162 692 q 204 701 186 701 q 250 680 239 701 q 262 612 262 659 l 262 233 q 277 132 262 159 q 380 79 307 79 q 476 118 429 79 q 543 208 524 157 l 543 519 q 534 584 542 570 q 488 598 526 598 l 450 598 l 450 673 q 549 683 514 673 q 599 697 584 692 q 631 701 614 701 q 678 681 666 701 q 690 614 690 661 l 690 180 q 696 99 690 115 q 750 69 707 69 q 789 77 773 69 l 789 11 q 701 -14 757 -14 q 558 111 583 -14 m 239 814 q 199 791 215 791 q 164 816 164 791 q 170 833 164 824 l 355 1085 l 431 1085 l 616 833 q 623 819 623 824 q 595 791 623 791 q 547 814 572 791 l 393 932 l 239 814 z "},"ü":{"ha":814,"x_min":43,"x_max":789,"o":"m 43 0 m 558 111 q 332 -14 473 -14 q 172 50 229 -14 q 115 238 115 113 l 115 519 q 107 583 115 568 q 61 598 98 598 l 43 598 l 43 673 q 134 683 106 673 q 174 697 162 692 q 204 701 186 701 q 250 680 239 701 q 262 612 262 659 l 262 233 q 277 132 262 159 q 380 79 307 79 q 476 118 429 79 q 543 208 524 157 l 543 519 q 534 584 542 570 q 488 598 526 598 l 450 598 l 450 673 q 549 683 514 673 q 599 697 584 692 q 631 701 614 701 q 678 681 666 701 q 690 614 690 661 l 690 180 q 696 99 690 115 q 750 69 707 69 q 789 77 773 69 l 789 11 q 701 -14 757 -14 q 558 111 583 -14 m 556 831 q 483 860 513 831 q 452 932 452 889 q 483 1005 452 975 q 556 1035 513 1035 q 630 1005 600 1035 q 660 932 660 975 q 630 860 660 889 q 556 831 600 831 m 231 831 q 157 860 187 831 q 127 932 127 889 q 157 1005 127 975 q 231 1035 187 1035 q 304 1005 274 1035 q 334 932 334 975 q 304 860 334 889 q 231 831 274 831 z "},"ý":{"ha":781,"x_min":3,"x_max":803,"o":"m 3 0 m 195 -262 q 224 -265 212 -265 q 253 -253 236 -264 q 285 -224 269 -242 q 337 -140 315 -189 q 359 -62 359 -90 q 352 -18 359 -33 q 336 8 345 -3 q 315 30 326 19 q 298 59 304 41 l 101 541 q 71 598 87 583 q 3 613 56 613 l 3 688 l 368 688 l 368 613 q 273 601 290 613 q 256 574 257 588 q 262 541 256 561 l 431 79 l 603 541 q 593 596 618 580 q 487 613 568 613 l 487 688 l 803 688 l 803 613 q 735 595 758 613 q 699 541 713 577 l 517 56 q 472 -49 493 2 q 429 -144 451 -100 q 325 -295 381 -244 q 194 -346 269 -346 q 78 -309 119 -346 q 37 -223 37 -272 q 64 -146 37 -175 q 132 -118 92 -118 q 213 -170 191 -118 q 220 -203 220 -185 q 195 -262 220 -237 m 464 851 q 404 810 439 810 q 378 820 387 810 q 369 841 369 831 q 371 858 369 850 l 405 1018 q 433 1109 420 1088 q 498 1146 458 1146 q 580 1080 580 1146 q 552 998 580 1044 l 464 851 z "},"þ":{"ha":819,"x_min":7,"x_max":760,"o":"m 420 -14 q 257 47 332 -14 l 257 -180 q 280 -245 257 -232 q 395 -258 302 -258 l 395 -332 l 16 -332 l 16 -258 q 89 -246 74 -258 q 107 -220 104 -234 q 111 -186 111 -207 l 111 876 q 102 939 111 924 q 56 954 94 954 l 7 954 l 7 1029 q 111 1039 73 1029 q 164 1053 149 1048 q 199 1057 180 1057 q 246 1037 235 1057 q 257 970 257 1016 l 257 629 q 452 701 342 701 q 676 611 593 701 q 760 355 760 522 q 675 88 760 189 q 420 -14 590 -14 m 300 538 q 254 336 254 460 q 302 140 254 212 q 431 68 350 68 q 556 141 511 68 q 602 338 602 215 q 511 597 602 533 q 433 619 478 619 q 355 597 388 619 q 300 538 322 576 z "},"ÿ":{"ha":781,"x_min":3,"x_max":803,"o":"m 3 0 m 195 -262 q 224 -265 212 -265 q 253 -253 236 -264 q 285 -224 269 -242 q 337 -140 315 -189 q 359 -62 359 -90 q 352 -18 359 -33 q 336 8 345 -3 q 315 30 326 19 q 298 59 304 41 l 101 541 q 71 598 87 583 q 3 613 56 613 l 3 688 l 368 688 l 368 613 q 273 601 290 613 q 256 574 257 588 q 262 541 256 561 l 431 79 l 603 541 q 593 596 618 580 q 487 613 568 613 l 487 688 l 803 688 l 803 613 q 735 595 758 613 q 699 541 713 577 l 517 56 q 472 -49 493 2 q 429 -144 451 -100 q 325 -295 381 -244 q 194 -346 269 -346 q 78 -309 119 -346 q 37 -223 37 -272 q 64 -146 37 -175 q 132 -118 92 -118 q 213 -170 191 -118 q 220 -203 220 -185 q 195 -262 220 -237 m 587 831 q 514 860 544 831 q 484 932 484 889 q 514 1005 484 975 q 587 1035 544 1035 q 661 1005 631 1035 q 691 932 691 975 q 661 860 691 889 q 587 831 631 831 m 262 831 q 188 860 218 831 q 158 932 158 889 q 188 1005 158 975 q 262 1035 218 1035 q 335 1005 305 1035 q 366 932 366 975 q 335 860 366 889 q 262 831 305 831 z "},"Ā":{"ha":1086,"x_min":-1,"x_max":1074,"o":"m 0 0 m -1 75 q 84 92 56 75 q 129 149 113 109 l 495 1017 l 611 1017 l 946 149 q 987 90 964 105 q 1074 75 1009 75 l 1074 0 l 656 0 l 656 75 q 762 87 745 75 q 778 113 779 99 q 768 149 777 127 l 707 319 l 313 319 l 243 149 q 253 91 228 108 q 370 75 278 75 l 370 0 l -1 0 l -1 75 m 681 393 l 524 833 l 344 393 l 681 393 m 307 1149 l 307 1264 l 795 1264 l 795 1149 l 307 1149 z "},"ā":{"ha":795,"x_min":65,"x_max":810,"o":"m 65 0 m 648 162 q 680 81 648 81 q 724 102 710 81 q 739 177 739 123 l 810 177 q 810 149 810 168 q 780 43 810 88 q 661 -14 743 -14 q 571 16 608 -14 q 519 95 534 46 q 271 -14 421 -14 q 126 35 188 -14 q 65 170 65 83 q 288 393 65 321 q 456 455 429 437 q 493 490 484 472 q 501 530 501 508 q 462 597 501 570 q 359 624 422 624 q 248 590 296 624 q 282 526 282 565 q 256 463 282 486 q 193 439 230 439 q 132 461 156 439 q 108 524 108 484 q 188 652 108 603 q 382 701 268 701 q 633 568 587 701 q 648 467 648 524 l 648 162 m 349 331 q 259 265 289 305 q 229 177 229 224 q 255 105 229 130 q 319 81 281 81 q 450 136 398 81 q 501 290 501 191 l 501 395 q 409 354 458 372 q 349 331 361 336 m 164 836 l 164 951 l 625 951 l 625 836 l 164 836 z "},"Ă":{"ha":1086,"x_min":-1,"x_max":1074,"o":"m 0 0 m -1 75 q 84 92 56 75 q 129 149 113 109 l 495 1017 l 611 1017 l 946 149 q 987 90 964 105 q 1074 75 1009 75 l 1074 0 l 656 0 l 656 75 q 762 87 745 75 q 778 113 779 99 q 768 149 777 127 l 707 319 l 313 319 l 243 149 q 253 91 228 108 q 370 75 278 75 l 370 0 l -1 0 l -1 75 m 681 393 l 524 833 l 344 393 l 681 393 m 551 1249 q 702 1343 665 1249 l 779 1343 q 713 1181 775 1242 q 551 1120 651 1120 q 390 1181 452 1120 q 323 1343 328 1242 l 401 1343 q 551 1249 438 1249 z "},"ă":{"ha":795,"x_min":65,"x_max":810,"o":"m 65 0 m 648 162 q 680 81 648 81 q 724 102 710 81 q 739 177 739 123 l 810 177 q 810 149 810 168 q 780 43 810 88 q 661 -14 743 -14 q 571 16 608 -14 q 519 95 534 46 q 271 -14 421 -14 q 126 35 188 -14 q 65 170 65 83 q 288 393 65 321 q 456 455 429 437 q 493 490 484 472 q 501 530 501 508 q 462 597 501 570 q 359 624 422 624 q 248 590 296 624 q 282 526 282 565 q 256 463 282 486 q 193 439 230 439 q 132 461 156 439 q 108 524 108 484 q 188 652 108 603 q 382 701 268 701 q 633 568 587 701 q 648 467 648 524 l 648 162 m 349 331 q 259 265 289 305 q 229 177 229 224 q 255 105 229 130 q 319 81 281 81 q 450 136 398 81 q 501 290 501 191 l 501 395 q 409 354 458 372 q 349 331 361 336 m 395 930 q 545 1045 508 930 l 623 1045 q 557 869 618 936 q 395 802 495 802 q 233 869 294 802 q 167 1045 171 936 l 244 1045 q 395 930 281 930 z "},"Ą":{"ha":1086,"x_min":-1,"x_max":1074,"o":"m 861 -180 q 935 -241 861 -241 q 982 -217 961 -241 q 1003 -149 1003 -193 l 1064 -149 q 1064 -178 1064 -153 q 1052 -238 1064 -203 q 895 -346 1015 -346 q 783 -308 827 -346 q 739 -201 739 -269 q 880 0 739 -100 l 644 0 l 644 75 q 750 87 733 75 q 765 113 766 99 q 756 149 764 127 l 695 319 l 312 319 l 243 149 q 253 91 228 108 q 370 75 278 75 l 370 0 l -1 0 l -1 75 q 84 92 56 75 q 129 149 113 109 l 495 1017 l 611 1017 l 946 149 q 987 90 964 105 q 1074 75 1009 75 l 1074 0 l 1042 0 q 919 -56 977 0 q 861 -180 861 -113 m 669 393 l 517 819 l 517 825 l 342 393 l 669 393 z "},"ą":{"ha":791,"x_min":66,"x_max":806,"o":"m 682 -37 q 570 -181 570 -102 q 643 -241 570 -241 q 690 -217 669 -241 q 711 -149 711 -193 l 772 -149 q 772 -178 772 -153 q 760 -238 772 -203 q 603 -346 723 -346 q 491 -308 535 -346 q 448 -201 448 -269 q 600 -2 448 -103 q 519 95 539 24 q 271 -14 421 -14 q 126 35 187 -14 q 66 170 66 83 q 288 393 66 321 q 456 455 429 437 q 493 490 484 472 q 501 530 501 508 q 462 597 501 570 q 359 624 422 624 q 248 590 296 624 q 282 522 282 563 q 227 441 282 464 q 183 434 211 434 q 132 458 156 434 q 108 522 108 482 q 189 652 108 602 q 382 701 269 701 q 629 568 586 701 q 644 467 644 524 l 644 162 q 675 81 644 81 q 720 102 706 81 q 734 177 734 123 l 806 177 q 806 137 806 168 q 788 63 806 106 q 732 -5 770 20 q 682 -37 710 -20 m 349 331 q 259 265 289 305 q 229 177 229 224 q 255 105 229 130 q 319 81 281 81 q 450 136 398 81 q 501 290 501 191 l 501 395 q 409 354 458 372 q 349 331 361 336 z "},"Ć":{"ha":1011,"x_min":53,"x_max":909,"o":"m 53 0 m 541 75 q 811 271 755 75 l 909 271 q 880 167 909 218 q 800 76 852 116 q 507 -14 686 -14 q 201 106 328 -14 q 53 509 53 243 q 167 865 53 720 q 382 1010 248 969 q 534 1031 451 1031 q 802 956 697 1031 q 907 768 907 881 q 841 654 907 683 q 798 645 821 645 q 703 705 727 645 q 695 750 695 724 q 710 802 695 777 q 749 841 725 827 q 553 946 694 946 q 322 839 411 946 q 233 516 233 731 q 323 188 233 300 q 541 75 414 75 m 552 1122 q 492 1095 514 1095 q 452 1130 452 1095 q 464 1161 452 1145 l 547 1276 q 603 1344 583 1326 q 666 1363 623 1363 q 723 1322 709 1363 q 727 1295 727 1310 q 688 1223 727 1253 l 552 1122 z "},"ć":{"ha":714,"x_min":61,"x_max":663,"o":"m 61 0 m 519 576 q 410 623 480 623 q 237 473 277 623 q 224 346 224 420 q 277 138 224 208 q 409 68 330 68 q 508 102 467 68 q 564 199 549 136 l 657 199 q 583 51 657 115 q 381 -14 509 -14 q 165 66 254 -14 q 61 339 61 159 q 148 594 61 486 q 404 701 235 701 q 589 648 515 701 q 663 509 663 594 q 636 440 663 468 q 568 412 609 412 q 486 467 509 412 q 479 503 479 483 q 519 576 479 549 m 424 851 q 363 810 399 810 q 338 820 347 810 q 329 841 329 831 q 331 858 329 850 l 365 1018 q 393 1109 380 1088 q 458 1146 418 1146 q 540 1080 540 1146 q 512 998 540 1044 l 424 851 z "},"Ĉ":{"ha":1011,"x_min":53,"x_max":909,"o":"m 53 0 m 541 75 q 811 271 755 75 l 909 271 q 880 167 909 218 q 800 76 852 116 q 507 -14 686 -14 q 201 106 328 -14 q 53 509 53 243 q 167 865 53 720 q 382 1010 248 969 q 534 1031 451 1031 q 802 956 697 1031 q 907 768 907 881 q 841 654 907 683 q 798 645 821 645 q 703 705 727 645 q 695 750 695 724 q 710 802 695 777 q 749 841 725 827 q 553 946 694 946 q 322 839 411 946 q 233 516 233 731 q 323 188 233 300 q 541 75 414 75 m 769 1144 q 736 1120 769 1120 q 696 1133 719 1121 l 522 1221 l 348 1133 q 308 1120 326 1121 q 275 1144 275 1120 q 286 1166 275 1155 l 484 1356 l 560 1356 l 759 1166 q 769 1144 769 1155 z "},"ĉ":{"ha":714,"x_min":61,"x_max":663,"o":"m 61 0 m 519 576 q 410 623 480 623 q 237 473 277 623 q 224 346 224 420 q 277 138 224 208 q 409 68 330 68 q 508 102 467 68 q 564 199 549 136 l 657 199 q 583 51 657 115 q 381 -14 509 -14 q 165 66 254 -14 q 61 339 61 159 q 148 594 61 486 q 404 701 235 701 q 589 648 515 701 q 663 509 663 594 q 636 440 663 468 q 568 412 609 412 q 486 467 509 412 q 479 503 479 483 q 519 576 479 549 m 231 814 q 191 791 206 791 q 155 816 155 791 q 161 833 155 824 l 347 1085 l 422 1085 l 608 833 q 614 819 614 824 q 586 791 614 791 q 538 814 563 791 l 385 932 l 231 814 z "},"Ċ":{"ha":1011,"x_min":53,"x_max":909,"o":"m 53 0 m 541 75 q 811 271 755 75 l 909 271 q 880 167 909 218 q 800 76 852 116 q 507 -14 686 -14 q 201 106 328 -14 q 53 509 53 243 q 167 865 53 720 q 382 1010 248 969 q 534 1031 451 1031 q 802 956 697 1031 q 907 768 907 881 q 841 654 907 683 q 798 645 821 645 q 703 705 727 645 q 695 750 695 724 q 710 802 695 777 q 749 841 725 827 q 553 946 694 946 q 322 839 411 946 q 233 516 233 731 q 323 188 233 300 q 541 75 414 75 m 522 1135 q 420 1199 448 1135 q 411 1243 411 1219 q 420 1288 411 1268 q 445 1320 429 1307 q 522 1346 475 1346 q 592 1326 569 1346 q 633 1242 633 1291 q 601 1165 633 1196 q 522 1135 568 1135 z "},"ċ":{"ha":714,"x_min":61,"x_max":663,"o":"m 61 0 m 519 576 q 410 623 480 623 q 237 473 277 623 q 224 346 224 420 q 277 138 224 208 q 409 68 330 68 q 508 102 467 68 q 564 199 549 136 l 657 199 q 583 51 657 115 q 381 -14 509 -14 q 165 66 254 -14 q 61 339 61 159 q 148 594 61 486 q 404 701 235 701 q 589 648 515 701 q 663 509 663 594 q 636 440 663 468 q 568 412 609 412 q 486 467 509 412 q 479 503 479 483 q 519 576 479 549 m 385 823 q 282 887 311 823 q 273 932 273 907 q 306 1007 273 979 q 385 1034 338 1034 q 454 1015 431 1034 q 496 931 496 979 q 463 853 496 884 q 385 823 431 823 z "},"Č":{"ha":1011,"x_min":53,"x_max":909,"o":"m 53 0 m 541 75 q 811 271 755 75 l 909 271 q 880 167 909 218 q 800 76 852 116 q 507 -14 686 -14 q 201 106 328 -14 q 53 509 53 243 q 167 865 53 720 q 382 1010 248 969 q 534 1031 451 1031 q 802 956 697 1031 q 907 768 907 881 q 841 654 907 683 q 798 645 821 645 q 703 705 727 645 q 695 750 695 724 q 710 802 695 777 q 749 841 725 827 q 553 946 694 946 q 322 839 411 946 q 233 516 233 731 q 323 188 233 300 q 541 75 414 75 m 736 1337 q 769 1314 769 1337 q 759 1292 769 1303 l 560 1101 l 484 1101 l 286 1292 q 275 1314 275 1303 q 308 1337 275 1337 q 348 1325 326 1337 l 522 1236 l 696 1325 q 736 1337 719 1337 z "},"č":{"ha":714,"x_min":61,"x_max":663,"o":"m 61 0 m 519 576 q 410 623 480 623 q 237 473 277 623 q 224 346 224 420 q 277 138 224 208 q 409 68 330 68 q 508 102 467 68 q 564 199 549 136 l 657 199 q 583 51 657 115 q 381 -14 509 -14 q 165 66 254 -14 q 61 339 61 159 q 148 594 61 486 q 404 701 235 701 q 589 648 515 701 q 663 509 663 594 q 636 440 663 468 q 568 412 609 412 q 486 467 509 412 q 479 503 479 483 q 519 576 479 549 m 347 791 l 161 1042 q 155 1057 155 1052 q 183 1084 155 1084 q 231 1062 206 1084 l 385 943 l 538 1062 q 578 1084 563 1084 q 614 1060 614 1084 q 608 1042 614 1052 l 422 791 l 347 791 z "},"Ď":{"ha":1029,"x_min":56,"x_max":974,"o":"m 56 0 m 56 75 q 145 87 127 75 q 166 114 163 100 q 170 149 170 128 l 170 869 q 155 924 170 913 q 56 943 127 943 l 56 1017 l 420 1017 q 947 730 858 1017 q 974 537 974 640 q 954 357 974 435 q 897 220 933 279 q 705 53 827 106 q 433 0 583 0 l 56 0 l 56 75 m 448 75 q 797 530 797 75 q 701 837 797 724 q 414 949 604 949 l 322 949 l 322 75 l 448 75 m 706 1337 q 739 1314 739 1337 q 728 1292 739 1303 l 530 1101 l 454 1101 l 255 1292 q 245 1314 245 1303 q 277 1337 245 1337 q 317 1325 295 1337 l 492 1236 l 666 1325 q 706 1337 688 1337 z "},"ď":{"ha":1008,"x_min":65,"x_max":1012,"o":"m 842 663 q 899 827 899 753 q 878 880 899 869 q 819 977 819 910 q 874 1070 819 1044 q 913 1078 891 1078 q 984 1042 956 1078 q 1012 956 1012 1006 q 979 786 1012 873 q 922 661 946 698 l 842 663 m 587 107 q 368 -14 507 -14 q 147 78 229 -14 q 65 324 65 170 q 149 608 65 514 q 378 701 233 701 q 568 625 489 701 l 568 876 q 558 939 568 924 q 510 954 548 954 l 462 954 l 462 1029 q 567 1039 529 1029 q 621 1053 605 1048 q 656 1057 637 1057 q 703 1037 692 1057 q 714 970 714 1016 l 714 180 q 720 99 714 115 q 775 69 731 69 q 814 77 798 69 l 814 11 q 726 -14 781 -14 q 587 107 614 -14 m 314 91 q 393 68 347 68 q 527 143 482 68 q 571 350 571 218 q 467 602 571 547 q 394 620 434 620 q 269 546 314 620 q 223 350 223 473 q 314 91 223 154 z "},"Đ":{"ha":1029,"x_min":56,"x_max":974,"o":"m 56 0 m 56 75 q 145 87 127 75 q 166 114 163 100 q 170 149 170 128 l 170 490 l 56 490 l 56 572 l 170 572 l 170 869 q 155 924 170 913 q 56 943 127 943 l 56 1017 l 427 1017 q 850 883 713 1017 q 974 533 974 760 q 692 51 974 172 q 420 0 574 0 l 56 0 l 56 75 m 435 75 q 793 518 793 75 q 698 838 793 726 q 407 949 603 949 l 326 949 l 326 572 l 557 572 l 557 490 l 326 490 l 326 75 l 435 75 z "},"đ":{"ha":832,"x_min":65,"x_max":814,"o":"m 587 107 q 368 -14 507 -14 q 147 78 229 -14 q 65 324 65 170 q 149 608 65 514 q 378 701 233 701 q 568 625 489 701 l 568 775 l 376 775 l 376 857 l 568 857 l 568 876 q 558 939 568 924 q 510 954 548 954 l 462 954 l 462 1029 q 567 1039 529 1029 q 621 1053 605 1048 q 656 1057 637 1057 q 703 1037 692 1057 q 714 970 714 1016 l 714 857 l 814 857 l 814 775 l 714 775 l 714 180 q 720 99 714 115 q 775 69 731 69 q 814 77 798 69 l 814 11 q 726 -14 781 -14 q 587 107 614 -14 m 314 91 q 393 68 347 68 q 527 143 482 68 q 571 350 571 218 q 467 602 571 547 q 394 620 434 620 q 269 546 314 620 q 223 350 223 473 q 314 91 223 154 z "},"Ē":{"ha":900,"x_min":55,"x_max":860,"o":"m 55 0 m 55 75 q 140 87 121 75 q 164 113 159 99 q 170 147 170 127 l 170 869 q 144 927 170 911 q 56 943 119 943 l 56 1017 l 793 1017 l 820 771 l 722 770 l 703 847 q 675 916 690 902 q 591 941 650 941 l 322 941 l 322 547 l 454 547 q 548 557 530 547 q 571 586 565 567 q 578 641 578 605 l 666 641 l 666 378 l 578 378 q 553 457 578 441 q 454 472 528 472 l 322 472 l 322 75 l 610 75 q 715 127 689 75 q 731 161 723 144 l 762 245 l 860 245 l 833 0 l 55 0 l 55 75 m 196 1149 l 196 1264 l 684 1264 l 684 1149 l 196 1149 z "},"ē":{"ha":764,"x_min":72,"x_max":706,"o":"m 72 0 m 705 313 l 234 313 q 289 132 234 196 q 426 68 345 68 q 583 159 535 68 l 684 159 q 594 37 668 87 q 396 -14 521 -14 q 180 64 271 -14 q 72 326 72 157 q 158 598 72 494 q 406 701 245 701 q 681 530 618 701 q 706 401 706 462 q 705 313 706 340 m 548 414 q 407 622 548 622 q 283 560 328 622 q 235 389 239 498 l 547 389 q 548 414 548 402 m 178 836 l 178 951 l 640 951 l 640 836 l 178 836 z "},"Ĕ":{"ha":900,"x_min":55,"x_max":860,"o":"m 55 0 m 55 75 q 140 87 121 75 q 164 113 159 99 q 170 147 170 127 l 170 869 q 144 927 170 911 q 56 943 119 943 l 56 1017 l 793 1017 l 820 771 l 722 770 l 703 847 q 675 916 690 902 q 591 941 650 941 l 322 941 l 322 547 l 454 547 q 548 557 530 547 q 571 586 565 567 q 578 641 578 605 l 666 641 l 666 378 l 578 378 q 553 457 578 441 q 454 472 528 472 l 322 472 l 322 75 l 610 75 q 715 127 689 75 q 731 161 723 144 l 762 245 l 860 245 l 833 0 l 55 0 l 55 75 m 440 1249 q 591 1343 553 1249 l 668 1343 q 602 1181 664 1242 q 440 1120 540 1120 q 279 1181 340 1120 q 212 1343 216 1242 l 290 1343 q 440 1249 327 1249 z "},"ĕ":{"ha":764,"x_min":72,"x_max":706,"o":"m 72 0 m 705 313 l 234 313 q 289 132 234 196 q 426 68 345 68 q 583 159 535 68 l 684 159 q 594 37 668 87 q 396 -14 521 -14 q 180 64 271 -14 q 72 326 72 157 q 158 598 72 494 q 406 701 245 701 q 681 530 618 701 q 706 401 706 462 q 705 313 706 340 m 548 414 q 407 622 548 622 q 283 560 328 622 q 235 389 239 498 l 547 389 q 548 414 548 402 m 409 930 q 559 1045 522 930 l 637 1045 q 571 869 633 936 q 409 802 509 802 q 247 869 309 802 q 181 1045 185 936 l 258 1045 q 409 930 296 930 z "},"Ė":{"ha":900,"x_min":55,"x_max":860,"o":"m 55 0 m 55 75 q 140 87 121 75 q 164 113 159 99 q 170 147 170 127 l 170 869 q 144 927 170 911 q 56 943 119 943 l 56 1017 l 793 1017 l 820 771 l 722 770 l 703 847 q 675 916 690 902 q 591 941 650 941 l 322 941 l 322 547 l 454 547 q 548 557 530 547 q 571 586 565 567 q 578 641 578 605 l 666 641 l 666 378 l 578 378 q 553 457 578 441 q 454 472 528 472 l 322 472 l 322 75 l 610 75 q 715 127 689 75 q 731 161 723 144 l 762 245 l 860 245 l 833 0 l 55 0 l 55 75 m 440 1135 q 338 1199 366 1135 q 329 1243 329 1219 q 338 1288 329 1268 q 363 1320 347 1307 q 440 1346 393 1346 q 510 1326 487 1346 q 551 1242 551 1291 q 519 1165 551 1196 q 440 1135 486 1135 z "},"ė":{"ha":764,"x_min":72,"x_max":706,"o":"m 72 0 m 705 313 l 234 313 q 289 132 234 196 q 426 68 345 68 q 583 159 535 68 l 684 159 q 594 37 668 87 q 396 -14 521 -14 q 180 64 271 -14 q 72 326 72 157 q 158 598 72 494 q 406 701 245 701 q 681 530 618 701 q 706 401 706 462 q 705 313 706 340 m 548 414 q 407 622 548 622 q 283 560 328 622 q 235 389 239 498 l 547 389 q 548 414 548 402 m 409 823 q 307 887 335 823 q 298 932 298 907 q 330 1007 298 979 q 409 1034 362 1034 q 479 1015 456 1034 q 520 931 520 979 q 488 853 520 884 q 409 823 455 823 z "},"Ę":{"ha":900,"x_min":55,"x_max":826,"o":"m 597 -180 q 670 -241 597 -241 q 718 -217 696 -241 q 739 -149 739 -193 l 800 -149 q 800 -178 800 -153 q 787 -238 800 -203 q 630 -346 750 -346 q 518 -308 562 -346 q 475 -201 475 -269 q 619 0 475 -95 l 55 0 l 55 75 q 140 87 121 75 q 164 113 159 99 q 170 147 170 127 l 170 869 q 144 927 170 911 q 56 943 119 943 l 56 1017 l 780 1017 l 806 771 l 708 770 l 690 847 q 662 916 676 902 q 577 941 637 941 l 332 941 l 332 547 l 450 547 q 508 548 486 547 q 544 561 530 549 q 557 641 557 572 l 659 641 l 659 378 l 557 378 q 544 456 557 444 q 508 470 530 468 q 450 472 486 472 l 332 472 l 332 75 l 604 75 q 705 123 687 75 q 716 161 711 140 l 734 245 l 826 245 l 800 0 l 777 0 q 654 -56 712 0 q 597 -180 597 -113 z "},"ę":{"ha":764,"x_min":68,"x_max":703,"o":"m 460 -60 q 402 -181 402 -120 q 476 -241 402 -241 q 523 -217 502 -241 q 544 -149 544 -193 l 605 -149 q 605 -178 605 -153 q 593 -238 605 -203 q 435 -346 555 -346 q 324 -308 368 -346 q 280 -201 280 -269 q 412 -14 280 -101 l 406 -14 q 176 64 270 -14 q 68 325 68 155 q 154 598 68 494 q 403 701 241 701 q 678 522 613 701 q 703 391 703 453 q 702 302 703 330 l 230 302 q 284 127 230 186 q 422 68 339 68 q 579 159 532 68 l 680 159 q 561 14 662 77 q 460 -60 488 -30 m 546 379 q 547 414 547 391 q 521 545 547 492 q 405 622 485 622 q 280 555 324 622 q 233 379 237 489 l 546 379 z "},"Ě":{"ha":900,"x_min":55,"x_max":860,"o":"m 55 0 m 55 75 q 140 87 121 75 q 164 113 159 99 q 170 147 170 127 l 170 869 q 144 927 170 911 q 56 943 119 943 l 56 1017 l 793 1017 l 820 771 l 722 770 l 703 847 q 675 916 690 902 q 591 941 650 941 l 322 941 l 322 547 l 454 547 q 548 557 530 547 q 571 586 565 567 q 578 641 578 605 l 666 641 l 666 378 l 578 378 q 553 457 578 441 q 454 472 528 472 l 322 472 l 322 75 l 610 75 q 715 127 689 75 q 731 161 723 144 l 762 245 l 860 245 l 833 0 l 55 0 l 55 75 m 654 1337 q 687 1314 687 1337 q 677 1292 687 1303 l 478 1101 l 402 1101 l 203 1292 q 193 1314 193 1303 q 226 1337 193 1337 q 266 1325 243 1337 l 440 1236 l 614 1325 q 654 1337 637 1337 z "},"ě":{"ha":764,"x_min":72,"x_max":706,"o":"m 72 0 m 705 313 l 234 313 q 289 132 234 196 q 426 68 345 68 q 583 159 535 68 l 684 159 q 594 37 668 87 q 396 -14 521 -14 q 180 64 271 -14 q 72 326 72 157 q 158 598 72 494 q 406 701 245 701 q 681 530 618 701 q 706 401 706 462 q 705 313 706 340 m 548 414 q 407 622 548 622 q 283 560 328 622 q 235 389 239 498 l 547 389 q 548 414 548 402 m 371 791 l 186 1042 q 180 1057 180 1052 q 208 1084 180 1084 q 255 1062 231 1084 l 409 943 l 563 1062 q 603 1084 587 1084 q 638 1060 638 1084 q 632 1042 638 1052 l 447 791 l 371 791 z "},"Ĝ":{"ha":1085,"x_min":90,"x_max":967,"o":"m 90 0 m 161 205 q 144 234 161 205 q 109 339 127 263 q 90 493 90 414 q 102 636 90 572 q 140 758 115 700 q 308 957 195 882 q 585 1031 420 1031 q 858 949 749 1031 q 967 751 967 868 q 903 643 967 671 q 861 634 884 634 q 791 661 818 634 q 764 724 764 688 q 821 823 764 796 q 729 913 794 880 q 595 946 664 946 q 360 838 451 946 q 269 515 269 730 q 363 187 269 300 q 594 75 458 75 q 765 130 705 75 q 826 253 826 186 q 795 337 826 319 q 656 354 765 354 l 656 444 l 966 444 l 966 0 l 876 0 l 850 81 q 670 -4 792 20 q 568 -14 625 -14 q 453 -1 511 -14 q 340 38 394 12 q 241 106 287 64 q 161 205 195 147 m 833 1144 q 800 1120 833 1120 q 760 1133 783 1121 l 586 1221 l 412 1133 q 372 1120 389 1121 q 339 1144 339 1120 q 349 1166 339 1155 l 548 1356 l 624 1356 l 823 1166 q 833 1144 833 1155 z "},"ĝ":{"ha":794,"x_min":45,"x_max":799,"o":"m 45 0 m 560 648 q 717 720 621 720 q 774 695 749 720 q 799 636 799 671 q 778 579 799 600 q 726 559 756 559 q 676 576 696 559 q 653 628 655 593 q 608 600 629 618 q 649 466 649 541 q 626 346 649 392 q 565 266 604 299 q 474 216 526 233 q 381 198 422 198 q 319 200 340 198 q 254 159 271 189 q 249 142 249 151 q 286 113 249 121 q 408 97 322 104 q 550 80 494 90 q 646 49 606 70 q 732 -106 732 3 q 626 -280 732 -215 q 366 -346 519 -346 q 64 -223 124 -346 q 45 -141 45 -186 q 186 46 45 -26 q 138 134 138 75 q 213 228 138 194 q 113 315 149 252 q 76 443 76 378 q 164 633 76 565 q 370 701 252 701 q 560 648 489 701 m 366 276 q 490 371 455 276 q 502 452 502 404 q 463 584 502 541 q 366 627 423 627 q 236 531 271 627 q 224 449 224 496 q 266 319 224 362 q 366 276 309 276 m 258 3 q 191 -119 191 -33 q 248 -227 191 -190 q 398 -264 305 -264 q 590 -187 544 -264 q 605 -134 605 -163 q 437 -20 605 -35 q 338 -10 384 -14 q 258 3 292 -6 m 227 814 q 186 791 202 791 q 151 816 151 791 q 157 833 151 824 l 342 1085 l 418 1085 l 604 833 q 610 819 610 824 q 582 791 610 791 q 534 814 559 791 l 380 932 l 227 814 z "},"Ğ":{"ha":1085,"x_min":90,"x_max":967,"o":"m 90 0 m 161 205 q 144 234 161 205 q 109 339 127 263 q 90 493 90 414 q 102 636 90 572 q 140 758 115 700 q 308 957 195 882 q 585 1031 420 1031 q 858 949 749 1031 q 967 751 967 868 q 903 643 967 671 q 861 634 884 634 q 791 661 818 634 q 764 724 764 688 q 821 823 764 796 q 729 913 794 880 q 595 946 664 946 q 360 838 451 946 q 269 515 269 730 q 363 187 269 300 q 594 75 458 75 q 765 130 705 75 q 826 253 826 186 q 795 337 826 319 q 656 354 765 354 l 656 444 l 966 444 l 966 0 l 876 0 l 850 81 q 670 -4 792 20 q 568 -14 625 -14 q 453 -1 511 -14 q 340 38 394 12 q 241 106 287 64 q 161 205 195 147 m 586 1249 q 736 1343 699 1249 l 814 1343 q 747 1181 810 1242 q 586 1120 686 1120 q 425 1181 486 1120 q 358 1343 362 1242 l 435 1343 q 586 1249 473 1249 z "},"ğ":{"ha":794,"x_min":45,"x_max":799,"o":"m 45 0 m 560 648 q 717 720 621 720 q 774 695 749 720 q 799 636 799 671 q 778 579 799 600 q 726 559 756 559 q 676 576 696 559 q 653 628 655 593 q 608 600 629 618 q 649 466 649 541 q 626 346 649 392 q 565 266 604 299 q 474 216 526 233 q 381 198 422 198 q 319 200 340 198 q 254 159 271 189 q 249 142 249 151 q 286 113 249 121 q 408 97 322 104 q 550 80 494 90 q 646 49 606 70 q 732 -106 732 3 q 626 -280 732 -215 q 366 -346 519 -346 q 64 -223 124 -346 q 45 -141 45 -186 q 186 46 45 -26 q 138 134 138 75 q 213 228 138 194 q 113 315 149 252 q 76 443 76 378 q 164 633 76 565 q 370 701 252 701 q 560 648 489 701 m 366 276 q 490 371 455 276 q 502 452 502 404 q 463 584 502 541 q 366 627 423 627 q 236 531 271 627 q 224 449 224 496 q 266 319 224 362 q 366 276 309 276 m 258 3 q 191 -119 191 -33 q 248 -227 191 -190 q 398 -264 305 -264 q 590 -187 544 -264 q 605 -134 605 -163 q 437 -20 605 -35 q 338 -10 384 -14 q 258 3 292 -6 m 380 930 q 531 1045 494 930 l 608 1045 q 543 869 604 936 q 380 802 481 802 q 218 869 280 802 q 153 1045 157 936 l 230 1045 q 380 930 267 930 z "},"Ġ":{"ha":1085,"x_min":90,"x_max":967,"o":"m 90 0 m 161 205 q 144 234 161 205 q 109 339 127 263 q 90 493 90 414 q 102 636 90 572 q 140 758 115 700 q 308 957 195 882 q 585 1031 420 1031 q 858 949 749 1031 q 967 751 967 868 q 903 643 967 671 q 861 634 884 634 q 791 661 818 634 q 764 724 764 688 q 821 823 764 796 q 729 913 794 880 q 595 946 664 946 q 360 838 451 946 q 269 515 269 730 q 363 187 269 300 q 594 75 458 75 q 765 130 705 75 q 826 253 826 186 q 795 337 826 319 q 656 354 765 354 l 656 444 l 966 444 l 966 0 l 876 0 l 850 81 q 670 -4 792 20 q 568 -14 625 -14 q 453 -1 511 -14 q 340 38 394 12 q 241 106 287 64 q 161 205 195 147 m 586 1135 q 484 1199 512 1135 q 475 1243 475 1219 q 484 1288 475 1268 q 509 1320 493 1307 q 586 1346 539 1346 q 656 1326 633 1346 q 697 1242 697 1291 q 665 1165 697 1196 q 586 1135 632 1135 z "},"ġ":{"ha":794,"x_min":45,"x_max":799,"o":"m 45 0 m 560 648 q 717 720 621 720 q 774 695 749 720 q 799 636 799 671 q 778 579 799 600 q 726 559 756 559 q 676 576 696 559 q 653 628 655 593 q 608 600 629 618 q 649 466 649 541 q 626 346 649 392 q 565 266 604 299 q 474 216 526 233 q 381 198 422 198 q 319 200 340 198 q 254 159 271 189 q 249 142 249 151 q 286 113 249 121 q 408 97 322 104 q 550 80 494 90 q 646 49 606 70 q 732 -106 732 3 q 626 -280 732 -215 q 366 -346 519 -346 q 64 -223 124 -346 q 45 -141 45 -186 q 186 46 45 -26 q 138 134 138 75 q 213 228 138 194 q 113 315 149 252 q 76 443 76 378 q 164 633 76 565 q 370 701 252 701 q 560 648 489 701 m 366 276 q 490 371 455 276 q 502 452 502 404 q 463 584 502 541 q 366 627 423 627 q 236 531 271 627 q 224 449 224 496 q 266 319 224 362 q 366 276 309 276 m 258 3 q 191 -119 191 -33 q 248 -227 191 -190 q 398 -264 305 -264 q 590 -187 544 -264 q 605 -134 605 -163 q 437 -20 605 -35 q 338 -10 384 -14 q 258 3 292 -6 m 380 823 q 278 887 307 823 q 269 932 269 907 q 301 1007 269 979 q 380 1034 334 1034 q 450 1015 427 1034 q 492 931 492 979 q 459 853 492 884 q 380 823 427 823 z "},"Ģ":{"ha":1085,"x_min":90,"x_max":967,"o":"m 90 0 m 161 205 q 144 234 161 205 q 109 339 127 263 q 90 493 90 414 q 102 636 90 572 q 140 758 115 700 q 308 957 195 882 q 585 1031 420 1031 q 858 949 749 1031 q 967 751 967 868 q 903 643 967 671 q 861 634 884 634 q 791 661 818 634 q 764 724 764 688 q 821 823 764 796 q 729 913 794 880 q 595 946 664 946 q 360 838 451 946 q 269 515 269 730 q 363 187 269 300 q 594 75 458 75 q 765 130 705 75 q 826 253 826 186 q 795 337 826 319 q 656 354 765 354 l 656 444 l 966 444 l 966 0 l 876 0 l 850 81 q 670 -4 792 20 q 568 -14 625 -14 q 453 -1 511 -14 q 340 38 394 12 q 241 106 287 64 q 161 205 195 147 m 556 -247 q 544 -242 556 -247 q 518 -215 533 -237 q 504 -172 504 -193 q 528 -111 504 -133 q 590 -88 551 -88 q 654 -116 629 -88 q 680 -184 680 -144 q 637 -310 680 -257 q 529 -371 595 -363 l 503 -330 q 564 -286 549 -315 q 556 -247 578 -257 z "},"ģ":{"ha":794,"x_min":45,"x_max":799,"o":"m 45 0 m 560 648 q 717 720 621 720 q 774 695 749 720 q 799 636 799 671 q 778 579 799 600 q 726 559 756 559 q 676 576 696 559 q 653 628 655 593 q 608 600 629 618 q 649 466 649 541 q 626 346 649 392 q 565 266 604 299 q 474 216 526 233 q 381 198 422 198 q 319 200 340 198 q 254 159 271 189 q 249 142 249 151 q 286 113 249 121 q 408 97 322 104 q 550 80 494 90 q 646 49 606 70 q 732 -106 732 3 q 626 -280 732 -215 q 366 -346 519 -346 q 64 -223 124 -346 q 45 -141 45 -186 q 186 46 45 -26 q 138 134 138 75 q 213 228 138 194 q 113 315 149 252 q 76 443 76 378 q 164 633 76 565 q 370 701 252 701 q 560 648 489 701 m 366 276 q 490 371 455 276 q 502 452 502 404 q 463 584 502 541 q 366 627 423 627 q 236 531 271 627 q 224 449 224 496 q 266 319 224 362 q 366 276 309 276 m 258 3 q 191 -119 191 -33 q 248 -227 191 -190 q 398 -264 305 -264 q 590 -187 544 -264 q 605 -134 605 -163 q 437 -20 605 -35 q 338 -10 384 -14 q 258 3 292 -6 m 495 1112 q 410 1061 434 1096 q 412 1013 387 1030 q 478 912 478 972 q 460 857 478 876 q 398 825 429 825 q 349 834 367 825 q 317 861 330 844 q 290 942 290 896 q 303 1023 290 988 q 340 1086 316 1057 q 467 1157 393 1148 l 495 1112 z "},"Ĥ":{"ha":1159,"x_min":63,"x_max":1102,"o":"m 63 0 m 63 75 q 147 87 127 75 q 172 114 167 100 q 178 149 178 128 l 177 869 q 162 924 177 913 q 63 943 135 943 l 63 1017 l 444 1017 l 444 943 q 360 930 380 943 q 335 903 340 918 q 330 869 330 889 l 330 566 l 835 566 l 835 869 q 820 924 835 913 q 721 943 793 943 l 721 1017 l 1102 1017 l 1102 943 q 1018 930 1038 943 q 993 903 998 918 q 987 869 987 889 l 988 149 q 1003 94 988 104 q 1102 75 1030 75 l 1102 0 l 721 0 l 721 75 q 805 87 785 75 q 830 114 825 100 q 836 149 836 128 l 835 477 l 330 477 l 330 149 q 345 94 330 104 q 444 75 372 75 l 444 0 l 63 0 l 63 75 m 826 1144 q 793 1120 826 1120 q 753 1133 776 1121 l 579 1221 l 405 1133 q 365 1120 382 1121 q 332 1144 332 1120 q 342 1166 332 1155 l 541 1356 l 617 1356 l 816 1166 q 826 1144 826 1155 z "},"ĥ":{"ha":876,"x_min":-9,"x_max":838,"o":"m 484 600 q 306 530 375 600 l 306 146 q 319 92 306 102 q 406 75 341 75 l 406 0 l 62 0 l 62 75 q 135 86 120 75 q 153 112 150 98 q 157 146 157 125 l 157 834 q 148 898 157 883 q 102 913 140 913 l 60 913 l 60 987 q 161 997 124 987 q 214 1011 198 1007 q 248 1016 230 1016 q 295 995 283 1016 q 306 929 306 975 l 306 610 q 473 694 376 671 q 535 701 505 701 q 755 410 755 701 l 755 147 q 768 89 755 102 q 838 75 781 75 l 838 0 l 517 0 l 517 75 q 591 87 579 75 q 604 113 602 100 q 606 147 606 127 l 606 401 q 589 530 606 496 q 484 600 556 600 m 66 1082 q 26 1060 41 1060 q -9 1084 -9 1060 q -3 1102 -9 1093 l 182 1354 l 258 1354 l 443 1102 q 449 1087 449 1093 q 421 1060 449 1060 q 374 1082 398 1060 l 220 1201 l 66 1082 z "},"Ħ":{"ha":1159,"x_min":55,"x_max":1103,"o":"m 63 75 q 147 87 127 75 q 172 114 167 100 q 178 149 178 128 l 177 707 l 55 707 l 55 795 l 177 795 l 177 869 q 161 924 177 913 q 63 943 135 943 l 63 1017 l 444 1017 l 444 943 q 360 930 380 943 q 335 903 340 918 q 330 869 330 889 l 330 795 l 835 795 l 835 869 q 819 924 835 913 q 721 943 793 943 l 721 1017 l 1102 1017 l 1102 943 q 1018 930 1038 943 q 993 903 998 918 q 987 869 987 889 l 987 795 l 1103 795 l 1103 707 l 987 707 l 988 149 q 1004 94 988 104 q 1102 75 1030 75 l 1102 0 l 721 0 l 721 75 q 805 87 785 75 q 830 114 825 100 q 836 149 836 128 l 835 477 l 330 477 l 330 149 q 346 94 330 104 q 444 75 372 75 l 444 0 l 63 0 l 63 75 m 835 566 l 835 707 l 330 707 l 330 566 l 835 566 z "},"ħ":{"ha":876,"x_min":60,"x_max":838,"o":"m 484 600 q 304 530 373 600 l 304 146 q 317 93 304 104 q 407 75 341 75 l 407 0 l 62 0 l 62 75 q 136 86 121 75 q 154 112 151 98 q 157 146 157 125 l 157 775 l 60 775 l 60 857 l 157 857 l 157 882 q 149 945 157 930 q 102 960 140 960 l 61 960 l 61 1035 q 161 1045 125 1035 q 213 1059 197 1055 q 245 1063 228 1063 q 293 1043 281 1063 q 304 977 304 1022 l 304 857 l 498 857 l 498 775 l 304 775 l 304 610 q 472 694 374 671 q 534 701 504 701 q 754 410 754 701 l 754 147 q 767 89 754 102 q 838 75 780 75 l 838 0 l 517 0 l 517 75 q 591 87 578 75 q 606 113 604 100 q 608 147 608 127 l 608 401 q 590 530 608 495 q 484 600 555 600 z "},"Ĩ":{"ha":515,"x_min":-18,"x_max":532,"o":"m 0 0 m 67 75 q 151 87 132 75 q 176 114 171 100 q 182 149 182 128 l 181 869 q 165 924 181 913 q 67 943 139 943 l 67 1017 l 448 1017 l 448 943 q 364 930 384 943 q 339 903 345 918 q 334 869 334 889 l 334 149 q 350 94 334 104 q 448 75 376 75 l 448 0 l 67 0 l 67 75 m 424 1131 q 353 1113 391 1113 q 292 1121 316 1113 q 248 1143 267 1130 q 212 1171 228 1156 q 172 1207 195 1185 q 130 1228 148 1228 q 64 1168 75 1228 l 55 1105 l -18 1105 q 90 1333 -9 1280 q 160 1350 123 1350 q 222 1342 198 1350 q 266 1320 246 1333 q 302 1293 286 1308 q 343 1256 319 1278 q 385 1235 367 1235 q 448 1295 436 1235 l 458 1358 l 532 1358 q 424 1131 519 1181 z "},"ĩ":{"ha":507,"x_min":-8,"x_max":541,"o":"m 0 0 m 100 75 q 179 86 163 75 q 198 112 195 98 q 201 146 201 125 l 201 519 q 193 583 201 568 q 147 598 184 598 l 98 598 l 98 673 q 203 683 165 673 q 256 697 241 692 q 290 701 272 701 q 337 681 326 701 q 348 614 348 660 l 348 146 q 361 92 348 103 q 449 75 385 75 l 449 0 l 100 0 l 100 75 m 433 853 q 363 836 400 836 q 301 844 326 836 q 257 865 277 852 q 221 893 237 878 q 181 929 205 908 q 140 951 157 951 q 73 891 84 951 l 64 828 l -8 828 q 99 1055 1 1003 q 170 1073 132 1073 q 232 1064 208 1073 q 276 1043 256 1056 q 312 1015 296 1030 q 352 979 328 1000 q 394 958 376 958 q 458 1017 446 958 l 468 1080 l 541 1080 q 433 853 528 903 z "},"Ī":{"ha":515,"x_min":13,"x_max":501,"o":"m 13 0 m 67 75 q 151 87 132 75 q 176 114 171 100 q 182 149 182 128 l 181 869 q 165 924 181 913 q 67 943 139 943 l 67 1017 l 448 1017 l 448 943 q 364 930 384 943 q 339 903 345 918 q 334 869 334 889 l 334 149 q 350 94 334 104 q 448 75 376 75 l 448 0 l 67 0 l 67 75 m 13 1149 l 13 1264 l 501 1264 l 501 1149 l 13 1149 z "},"ī":{"ha":507,"x_min":36,"x_max":497,"o":"m 36 0 m 100 75 q 179 86 163 75 q 198 112 195 98 q 201 146 201 125 l 201 519 q 193 583 201 568 q 147 598 184 598 l 98 598 l 98 673 q 203 683 165 673 q 256 697 241 692 q 290 701 272 701 q 337 681 326 701 q 348 614 348 660 l 348 146 q 361 92 348 103 q 449 75 385 75 l 449 0 l 100 0 l 100 75 m 36 836 l 36 951 l 497 951 l 497 836 l 36 836 z "},"Ĭ":{"ha":515,"x_min":29,"x_max":485,"o":"m 29 0 m 67 75 q 151 87 132 75 q 176 114 171 100 q 182 149 182 128 l 181 869 q 165 924 181 913 q 67 943 139 943 l 67 1017 l 448 1017 l 448 943 q 364 930 384 943 q 339 903 345 918 q 334 869 334 889 l 334 149 q 350 94 334 104 q 448 75 376 75 l 448 0 l 67 0 l 67 75 m 257 1249 q 408 1343 370 1249 l 485 1343 q 418 1181 481 1242 q 257 1120 357 1120 q 96 1181 157 1120 q 29 1343 33 1242 l 106 1343 q 257 1249 144 1249 z "},"ĭ":{"ha":507,"x_min":39,"x_max":494,"o":"m 39 0 m 100 75 q 179 86 163 75 q 198 112 195 98 q 201 146 201 125 l 201 519 q 193 583 201 568 q 147 598 184 598 l 98 598 l 98 673 q 203 683 165 673 q 256 697 241 692 q 290 701 272 701 q 337 681 326 701 q 348 614 348 660 l 348 146 q 361 92 348 103 q 449 75 385 75 l 449 0 l 100 0 l 100 75 m 267 930 q 417 1045 380 930 l 494 1045 q 429 869 490 936 q 267 802 367 802 q 104 869 166 802 q 39 1045 43 936 l 116 1045 q 267 930 153 930 z "},"Į":{"ha":515,"x_min":65,"x_max":450,"o":"m 210 -180 q 283 -241 210 -241 q 331 -217 310 -241 q 352 -149 352 -193 l 413 -149 q 413 -178 413 -153 q 401 -238 413 -203 q 243 -346 363 -346 q 132 -308 176 -346 q 88 -201 88 -269 q 229 0 88 -100 l 65 0 l 65 75 q 149 87 130 75 q 174 114 169 100 q 180 149 180 128 l 179 869 q 164 924 179 913 q 65 943 137 943 l 65 1017 l 450 1017 l 450 943 q 366 930 385 943 q 340 903 346 918 q 335 869 335 889 l 336 149 q 351 94 336 104 q 450 75 378 75 l 450 0 l 391 0 q 268 -56 326 0 q 210 -180 210 -113 z "},"į":{"ha":493,"x_min":90,"x_max":443,"o":"m 254 823 q 151 887 180 823 q 142 932 142 907 q 175 1007 142 979 q 254 1034 207 1034 q 323 1015 300 1034 q 365 931 365 979 q 332 853 365 884 q 254 823 300 823 m 218 -180 q 292 -241 218 -241 q 339 -217 318 -241 q 360 -149 360 -193 l 421 -149 q 421 -178 421 -153 q 409 -238 421 -203 q 252 -346 372 -346 q 140 -308 184 -346 q 96 -201 96 -269 q 241 0 96 -95 l 92 0 l 92 75 q 171 86 155 75 q 190 112 186 98 q 193 146 193 125 l 193 519 q 185 583 193 568 q 139 598 176 598 l 90 598 l 90 673 q 195 683 157 673 q 250 697 234 692 q 284 701 266 701 q 331 681 320 701 q 342 614 342 660 l 342 146 q 360 89 342 103 q 443 75 378 75 l 443 0 l 402 0 q 280 -57 341 0 q 218 -180 218 -113 z "},"İ":{"ha":515,"x_min":67,"x_max":448,"o":"m 67 0 m 67 75 q 151 87 132 75 q 176 114 171 100 q 182 149 182 128 l 181 869 q 165 924 181 913 q 67 943 139 943 l 67 1017 l 448 1017 l 448 943 q 364 930 384 943 q 339 903 345 918 q 334 869 334 889 l 334 149 q 350 94 334 104 q 448 75 376 75 l 448 0 l 67 0 l 67 75 m 257 1135 q 155 1199 183 1135 q 146 1243 146 1219 q 155 1288 146 1268 q 180 1320 164 1307 q 257 1346 210 1346 q 327 1326 304 1346 q 368 1242 368 1291 q 336 1165 368 1196 q 257 1135 303 1135 z "},"ı":{"ha":454,"x_min":54,"x_max":405,"o":"m 56 75 q 135 86 119 75 q 154 112 151 98 q 157 146 157 125 l 157 519 q 149 583 157 568 q 103 598 140 598 l 54 598 l 54 673 q 159 683 121 673 q 212 697 197 692 q 246 701 228 701 q 293 681 281 701 q 304 614 304 660 l 304 146 q 317 92 304 103 q 405 75 340 75 l 405 0 l 56 0 l 56 75 z "},"Ĳ":{"ha":1348,"x_min":67,"x_max":1290,"o":"m 67 0 m 67 75 q 151 87 132 75 q 176 114 171 100 q 182 149 182 128 l 181 869 q 165 924 181 913 q 67 943 139 943 l 67 1017 l 448 1017 l 448 943 q 364 930 384 943 q 339 903 345 918 q 334 869 334 889 l 334 149 q 350 94 334 104 q 448 75 376 75 l 448 0 l 67 0 l 67 75 m 836 73 q 1023 349 1023 73 l 1023 869 q 1005 924 1023 913 q 883 943 972 943 l 883 1017 l 1290 1017 l 1290 943 q 1206 930 1225 943 q 1181 903 1186 918 q 1175 869 1175 889 l 1176 349 q 988 9 1176 81 q 853 -14 927 -14 q 626 58 713 -14 q 538 235 538 130 q 570 327 538 292 q 648 363 602 363 q 724 332 695 363 q 753 263 753 302 q 734 197 753 224 q 686 157 715 170 q 744 95 702 118 q 836 73 785 73 z "},"ĳ":{"ha":920,"x_min":102,"x_max":844,"o":"m 102 0 m 276 827 q 201 856 232 827 q 170 928 170 886 q 201 1002 170 972 q 276 1032 233 1032 q 351 1002 319 1032 q 382 928 382 972 q 351 856 382 886 q 276 827 320 827 m 103 75 q 182 86 166 75 q 201 112 198 98 q 205 146 205 125 l 205 519 q 196 583 205 568 q 151 598 188 598 l 102 598 l 102 673 q 206 683 168 673 q 260 697 244 692 q 294 701 275 701 q 340 681 329 701 q 351 614 351 660 l 351 146 q 365 92 351 103 q 452 75 388 75 l 452 0 l 103 0 l 103 75 m 738 829 q 663 858 694 829 q 632 930 632 888 q 663 1004 632 974 q 738 1034 694 1034 q 812 1004 781 1034 q 844 930 844 974 q 813 858 844 888 q 738 829 782 829 m 574 -142 q 583 -151 574 -142 q 598 -174 592 -159 q 605 -214 605 -189 q 581 -262 605 -239 q 608 -268 598 -269 q 694 -135 694 -262 q 682 -18 694 -96 q 669 113 669 59 l 669 519 q 661 583 669 568 q 615 597 652 597 l 553 597 l 553 672 q 662 682 619 672 q 722 696 704 692 q 758 701 740 701 q 805 680 793 701 q 816 614 816 659 l 817 7 q 694 -326 817 -262 q 608 -346 653 -346 q 479 -309 529 -346 q 430 -225 430 -272 q 449 -159 430 -179 q 519 -125 481 -125 q 574 -142 556 -125 z "},"Ĵ":{"ha":867,"x_min":56,"x_max":857,"o":"m 56 0 m 354 73 q 542 349 542 73 l 542 869 q 524 924 542 913 q 401 943 490 943 l 401 1017 l 808 1017 l 808 943 q 724 930 744 943 q 699 903 705 918 q 694 869 694 889 l 694 349 q 507 9 694 81 q 372 -14 446 -14 q 144 58 232 -14 q 56 235 56 130 q 88 327 56 292 q 167 363 120 363 q 243 332 214 363 q 272 263 272 302 q 253 197 272 224 q 204 157 234 170 q 262 95 220 118 q 354 73 304 73 m 857 1144 q 825 1120 857 1120 q 785 1133 807 1121 l 610 1221 l 436 1133 q 396 1120 414 1121 q 363 1144 363 1120 q 374 1166 363 1155 l 572 1356 l 648 1356 l 847 1166 q 857 1144 857 1155 z "},"ĵ":{"ha":426,"x_min":-64,"x_max":448,"o":"m 0 0 m 80 -142 q 89 -151 80 -142 q 104 -174 98 -159 q 111 -214 111 -189 q 86 -262 111 -239 q 114 -268 104 -269 q 200 -135 200 -262 q 188 -18 200 -96 q 175 113 175 59 l 175 519 q 166 583 175 568 q 121 597 158 597 l 58 597 l 58 672 q 167 682 125 672 q 228 696 210 692 q 264 701 245 701 q 310 680 299 701 q 321 614 321 659 l 322 7 q 199 -326 322 -262 q 114 -346 159 -346 q -15 -309 35 -346 q -64 -225 -64 -272 q -45 -159 -64 -179 q 24 -125 -13 -125 q 80 -142 62 -125 m 64 814 q 24 791 40 791 q -11 816 -11 791 q -5 833 -11 824 l 180 1085 l 256 1085 l 441 833 q 448 819 448 824 q 420 791 448 791 q 372 814 397 791 l 218 932 l 64 814 z "},"Ķ":{"ha":1072,"x_min":55,"x_max":1039,"o":"m 55 0 m 614 75 q 696 177 761 78 l 488 510 l 321 348 l 322 149 q 337 94 322 104 q 435 75 363 75 l 435 0 l 55 0 l 55 75 q 139 87 119 75 q 164 114 159 100 q 170 149 170 128 l 169 869 q 154 924 169 913 q 55 943 127 943 l 55 1017 l 435 1017 l 435 943 q 351 930 370 943 q 327 903 332 918 q 321 869 321 889 l 321 463 l 725 867 q 734 923 762 903 q 642 943 707 943 l 642 1017 l 1005 1017 l 1005 943 q 930 925 960 940 q 867 877 901 911 l 588 606 l 869 176 q 941 98 903 121 q 1030 75 979 75 q 1039 75 1035 75 l 1039 0 l 614 0 l 614 75 m 520 -247 q 508 -242 520 -247 q 483 -215 497 -237 q 468 -172 468 -193 q 492 -111 468 -133 q 554 -88 515 -88 q 618 -116 593 -88 q 644 -184 644 -144 q 602 -310 644 -257 q 493 -371 559 -363 l 467 -330 q 528 -286 513 -315 q 520 -247 543 -257 z "},"ķ":{"ha":847,"x_min":27,"x_max":840,"o":"m 27 0 m 722 89 q 769 189 769 89 l 835 189 q 840 150 840 167 q 839 113 840 134 q 824 61 838 93 q 691 -14 789 -14 q 533 98 593 -14 q 500 163 516 130 q 427 285 456 252 q 305 340 376 340 q 294 340 300 340 q 283 339 289 340 l 283 147 q 301 90 283 105 q 385 75 319 75 l 385 0 l 34 0 l 34 75 q 115 91 93 75 q 137 147 137 107 l 137 882 q 129 945 137 930 q 82 960 120 960 l 27 960 l 27 1035 q 134 1045 96 1035 q 190 1059 173 1055 q 224 1063 206 1063 q 272 1043 260 1063 q 283 977 283 1023 l 283 413 l 318 413 q 513 582 430 492 q 534 606 527 596 l 416 606 l 416 688 l 791 688 l 791 606 q 532 486 665 603 q 452 412 492 451 q 633 224 564 370 q 664 157 650 187 q 692 108 678 127 q 722 89 705 89 m 426 -247 q 414 -242 426 -247 q 388 -215 403 -237 q 374 -172 374 -193 q 397 -111 374 -133 q 460 -88 421 -88 q 524 -116 498 -88 q 550 -184 550 -144 q 507 -310 550 -257 q 399 -371 465 -363 l 373 -330 q 433 -286 418 -315 q 426 -247 448 -257 z "},"ĸ":{"ha":847,"x_min":33,"x_max":840,"o":"m 722 89 q 769 189 769 89 l 835 189 q 840 150 840 167 q 839 113 840 134 q 823 61 838 93 q 688 -14 787 -14 q 529 90 589 -14 q 496 149 512 119 q 425 262 454 230 q 305 313 376 313 l 294 313 q 281 312 288 313 l 281 147 q 300 90 281 104 q 384 75 319 75 l 384 0 l 33 0 l 33 75 q 114 91 92 75 q 136 147 136 107 l 136 541 q 117 598 136 583 q 33 613 99 613 l 33 688 l 363 688 l 363 613 q 299 597 317 613 q 281 541 281 581 l 281 386 l 350 386 q 529 580 428 448 q 549 606 542 596 l 477 606 l 477 688 l 792 688 l 792 606 q 544 461 676 603 q 466 379 506 420 q 635 206 568 335 q 691 106 677 124 q 722 89 706 89 z "},"Ĺ":{"ha":865,"x_min":55,"x_max":826,"o":"m 55 0 m 55 75 q 139 87 119 75 q 164 114 159 100 q 170 149 170 128 l 169 869 q 154 924 169 913 q 55 943 127 943 l 55 1017 l 437 1017 l 437 943 q 353 930 372 943 q 328 903 333 918 q 322 869 322 889 l 322 79 l 556 79 q 705 197 665 79 l 732 274 l 826 273 l 779 0 l 55 0 l 55 75 m 277 1122 q 217 1095 239 1095 q 176 1130 176 1095 q 189 1161 176 1145 l 272 1276 q 328 1344 308 1326 q 390 1363 347 1363 q 448 1322 433 1363 q 452 1295 452 1310 q 412 1223 452 1253 l 277 1122 z "},"ĺ":{"ha":465,"x_min":73,"x_max":481,"o":"m 79 75 q 160 91 138 75 q 182 147 182 107 l 182 821 q 174 884 182 869 q 127 899 165 899 l 73 899 l 73 974 q 181 984 142 974 q 237 998 220 994 q 273 1002 254 1002 q 320 982 308 1002 q 332 916 332 962 l 332 147 q 350 90 332 105 q 433 75 368 75 l 433 0 l 79 0 l 79 75 m 306 1113 q 246 1085 268 1085 q 205 1120 205 1085 q 218 1152 205 1136 l 301 1266 q 357 1335 337 1316 q 419 1354 376 1354 q 477 1313 463 1354 q 481 1285 481 1301 q 441 1214 481 1243 l 306 1113 z "},"Ļ":{"ha":865,"x_min":55,"x_max":826,"o":"m 55 0 m 55 75 q 139 87 119 75 q 164 114 159 100 q 170 149 170 128 l 169 869 q 154 924 169 913 q 55 943 127 943 l 55 1017 l 437 1017 l 437 943 q 353 930 372 943 q 328 903 333 918 q 322 869 322 889 l 322 79 l 556 79 q 705 197 665 79 l 732 274 l 826 273 l 779 0 l 55 0 l 55 75 m 410 -247 q 399 -242 410 -247 q 373 -215 387 -237 q 358 -172 358 -193 q 382 -111 358 -133 q 444 -88 406 -88 q 509 -116 483 -88 q 534 -184 534 -144 q 492 -310 534 -257 q 383 -371 449 -363 l 357 -330 q 418 -286 403 -315 q 410 -247 433 -257 z "},"ļ":{"ha":465,"x_min":74,"x_max":432,"o":"m 74 0 m 81 75 q 162 91 140 75 q 184 147 184 107 l 184 882 q 175 945 184 930 q 129 960 167 960 l 74 960 l 74 1035 q 181 1045 142 1035 q 236 1059 220 1055 q 271 1063 253 1063 q 318 1043 307 1063 q 330 977 330 1023 l 330 147 q 348 90 330 105 q 432 75 366 75 l 432 0 l 81 0 l 81 75 m 226 -247 q 215 -242 226 -247 q 189 -215 203 -237 q 174 -172 174 -193 q 198 -111 174 -133 q 260 -88 222 -88 q 325 -116 299 -88 q 351 -184 351 -144 q 308 -310 351 -257 q 199 -371 265 -363 l 174 -330 q 234 -286 219 -315 q 226 -247 249 -257 z "},"Ľ":{"ha":865,"x_min":55,"x_max":826,"o":"m 598 602 q 655 766 655 692 q 633 819 655 808 q 574 916 574 849 q 630 1009 574 983 q 669 1017 647 1017 q 740 981 712 1017 q 768 895 768 945 q 735 725 768 812 q 677 600 702 637 l 598 602 m 55 75 q 139 87 119 75 q 164 114 159 100 q 170 149 170 128 l 169 869 q 153 924 169 913 q 55 943 127 943 l 55 1017 l 437 1017 l 437 943 q 353 930 372 943 q 328 903 333 918 q 322 869 322 889 l 322 79 l 556 79 q 705 197 665 79 l 732 274 l 826 273 l 779 0 l 55 0 l 55 75 z "},"ľ":{"ha":632,"x_min":74,"x_max":632,"o":"m 463 663 q 519 827 519 753 q 498 880 519 869 q 439 977 439 910 q 494 1070 439 1044 q 533 1078 511 1078 q 604 1042 576 1078 q 632 956 632 1006 q 599 786 632 873 q 542 661 566 698 l 463 663 m 81 75 q 162 91 140 75 q 184 147 184 107 l 184 882 q 175 945 184 930 q 129 960 167 960 l 74 960 l 74 1035 q 181 1045 142 1035 q 236 1059 220 1055 q 271 1063 253 1063 q 318 1043 307 1063 q 330 977 330 1023 l 330 147 q 348 90 330 105 q 432 75 366 75 l 432 0 l 81 0 l 81 75 z "},"Ŀ":{"ha":865,"x_min":55,"x_max":826,"o":"m 55 0 m 55 75 q 139 87 119 75 q 164 114 159 100 q 170 149 170 128 l 169 869 q 154 924 169 913 q 55 943 127 943 l 55 1017 l 437 1017 l 437 943 q 353 930 372 943 q 328 903 333 918 q 322 869 322 889 l 322 79 l 556 79 q 705 197 665 79 l 732 274 l 826 273 l 779 0 l 55 0 l 55 75 m 570 552 q 602 626 570 595 q 676 656 633 656 q 751 626 720 656 q 782 552 782 595 q 751 480 782 509 q 676 450 720 450 q 601 480 632 450 q 570 552 570 509 z "},"ŀ":{"ha":684,"x_min":74,"x_max":704,"o":"m 74 0 m 81 75 q 162 91 140 75 q 184 147 184 107 l 184 882 q 175 945 184 930 q 129 960 167 960 l 74 960 l 74 1035 q 181 1045 142 1035 q 236 1059 220 1055 q 271 1063 253 1063 q 318 1043 307 1063 q 330 977 330 1023 l 330 147 q 348 90 330 105 q 432 75 366 75 l 432 0 l 81 0 l 81 75 m 492 484 q 524 558 492 528 q 598 588 555 588 q 673 558 642 588 q 704 484 704 528 q 673 412 704 441 q 598 382 642 382 q 523 412 554 382 q 492 484 492 441 z "},"Ł":{"ha":865,"x_min":33,"x_max":826,"o":"m 55 75 q 139 87 119 75 q 164 114 159 100 q 170 149 170 128 l 169 280 l 96 206 l 33 254 l 169 391 l 169 869 q 153 924 169 913 q 55 943 127 943 l 55 1017 l 437 1017 l 437 943 q 353 930 372 943 q 328 903 333 918 q 322 869 322 889 l 322 544 l 547 770 l 610 722 l 322 433 l 322 79 l 556 79 q 705 197 665 79 l 732 274 l 826 273 l 779 0 l 55 0 l 55 75 z "},"ł":{"ha":465,"x_min":7,"x_max":508,"o":"m 81 75 q 162 91 140 75 q 184 147 184 107 l 184 330 l 66 187 l 7 232 l 184 447 l 184 882 q 175 945 184 930 q 129 960 167 960 l 74 960 l 74 1035 q 181 1045 142 1035 q 236 1059 220 1055 q 271 1063 253 1063 q 318 1043 307 1063 q 330 977 330 1023 l 330 625 l 449 770 l 508 725 l 330 509 l 330 147 q 348 90 330 105 q 432 75 366 75 l 432 0 l 81 0 l 81 75 z "},"Ń":{"ha":1166,"x_min":66,"x_max":1108,"o":"m 66 0 m 66 76 q 153 89 133 76 q 178 116 172 102 q 184 151 184 131 l 184 866 q 168 922 184 910 q 66 941 140 941 l 66 1017 l 300 1017 l 882 279 l 882 866 q 867 922 882 911 q 766 941 840 941 l 766 1017 l 1108 1017 l 1108 941 q 1022 928 1042 941 q 997 901 1002 916 q 991 866 991 886 l 991 0 l 907 0 l 292 781 l 292 151 q 309 96 292 107 q 410 76 336 76 l 410 0 l 66 0 l 66 76 m 624 1122 q 564 1095 586 1095 q 524 1130 524 1095 q 536 1161 524 1145 l 619 1276 q 675 1344 655 1326 q 738 1363 694 1363 q 795 1322 781 1363 q 799 1295 799 1310 q 760 1223 799 1253 l 624 1122 z "},"ń":{"ha":869,"x_min":53,"x_max":829,"o":"m 53 0 m 476 600 q 296 530 365 600 l 296 146 q 309 93 296 104 q 399 75 333 75 l 399 0 l 54 0 l 54 75 q 127 86 113 75 q 146 112 142 98 q 149 146 149 125 l 149 515 q 141 579 149 564 q 94 594 132 594 l 53 594 l 53 669 q 153 679 117 669 q 204 693 189 688 q 237 697 220 697 q 284 676 273 697 q 296 610 296 656 q 464 693 368 671 q 526 701 496 701 q 746 410 746 701 l 746 147 q 759 89 746 102 q 829 75 772 75 l 829 0 l 509 0 l 509 75 q 583 87 570 75 q 597 113 595 100 q 600 147 600 127 l 600 401 q 582 530 600 495 q 476 600 547 600 m 504 851 q 444 810 479 810 q 418 820 427 810 q 409 841 409 831 q 411 858 409 850 l 445 1018 q 473 1109 460 1088 q 538 1146 498 1146 q 620 1080 620 1146 q 592 998 620 1044 l 504 851 z "},"Ņ":{"ha":1166,"x_min":66,"x_max":1108,"o":"m 66 0 m 66 76 q 153 89 133 76 q 178 116 172 102 q 184 151 184 131 l 184 866 q 168 922 184 910 q 66 941 140 941 l 66 1017 l 300 1017 l 882 279 l 882 866 q 867 922 882 911 q 766 941 840 941 l 766 1017 l 1108 1017 l 1108 941 q 1022 928 1042 941 q 997 901 1002 916 q 991 866 991 886 l 991 0 l 907 0 l 292 781 l 292 151 q 309 96 292 107 q 410 76 336 76 l 410 0 l 66 0 l 66 76 m 607 -247 q 595 -242 607 -247 q 569 -215 584 -237 q 555 -172 555 -193 q 578 -111 555 -133 q 641 -88 602 -88 q 705 -116 680 -88 q 731 -184 731 -144 q 688 -310 731 -257 q 580 -371 646 -363 l 554 -330 q 614 -286 600 -315 q 607 -247 629 -257 z "},"ņ":{"ha":869,"x_min":53,"x_max":829,"o":"m 53 0 m 476 600 q 296 530 365 600 l 296 146 q 309 93 296 104 q 399 75 333 75 l 399 0 l 54 0 l 54 75 q 127 86 113 75 q 146 112 142 98 q 149 146 149 125 l 149 515 q 141 579 149 564 q 94 594 132 594 l 53 594 l 53 669 q 153 679 117 669 q 204 693 189 688 q 237 697 220 697 q 284 676 273 697 q 296 610 296 656 q 464 693 368 671 q 526 701 496 701 q 746 410 746 701 l 746 147 q 759 89 746 102 q 829 75 772 75 l 829 0 l 509 0 l 509 75 q 583 87 570 75 q 597 113 595 100 q 600 147 600 127 l 600 401 q 582 530 600 495 q 476 600 547 600 m 438 -247 q 426 -242 438 -247 q 400 -215 415 -237 q 386 -172 386 -193 q 410 -111 386 -133 q 472 -88 433 -88 q 536 -116 511 -88 q 562 -184 562 -144 q 519 -310 562 -257 q 411 -371 477 -363 l 385 -330 q 446 -286 431 -315 q 438 -247 460 -257 z "},"Ň":{"ha":1166,"x_min":66,"x_max":1108,"o":"m 66 0 m 66 76 q 153 89 133 76 q 178 116 172 102 q 184 151 184 131 l 184 866 q 168 922 184 910 q 66 941 140 941 l 66 1017 l 300 1017 l 882 279 l 882 866 q 867 922 882 911 q 766 941 840 941 l 766 1017 l 1108 1017 l 1108 941 q 1022 928 1042 941 q 997 901 1002 916 q 991 866 991 886 l 991 0 l 907 0 l 292 781 l 292 151 q 309 96 292 107 q 410 76 336 76 l 410 0 l 66 0 l 66 76 m 808 1337 q 841 1314 841 1337 q 831 1292 841 1303 l 632 1101 l 556 1101 l 357 1292 q 347 1314 347 1303 q 380 1337 347 1337 q 420 1325 397 1337 l 594 1236 l 768 1325 q 808 1337 791 1337 z "},"ň":{"ha":869,"x_min":53,"x_max":829,"o":"m 53 0 m 476 600 q 296 530 365 600 l 296 146 q 309 93 296 104 q 399 75 333 75 l 399 0 l 54 0 l 54 75 q 127 86 113 75 q 146 112 142 98 q 149 146 149 125 l 149 515 q 141 579 149 564 q 94 594 132 594 l 53 594 l 53 669 q 153 679 117 669 q 204 693 189 688 q 237 697 220 697 q 284 676 273 697 q 296 610 296 656 q 464 693 368 671 q 526 701 496 701 q 746 410 746 701 l 746 147 q 759 89 746 102 q 829 75 772 75 l 829 0 l 509 0 l 509 75 q 583 87 570 75 q 597 113 595 100 q 600 147 600 127 l 600 401 q 582 530 600 495 q 476 600 547 600 m 427 791 l 241 1042 q 235 1057 235 1052 q 263 1084 235 1084 q 311 1062 286 1084 l 465 943 l 618 1062 q 659 1084 643 1084 q 694 1060 694 1084 q 688 1042 694 1052 l 503 791 l 427 791 z "},"Ŋ":{"ha":1166,"x_min":66,"x_max":1108,"o":"m 683 -250 q 740 -269 707 -269 q 844 -219 806 -269 q 882 -104 882 -170 q 797 140 882 24 l 292 781 l 292 151 q 308 96 292 107 q 410 76 336 76 l 410 0 l 66 0 l 66 76 q 153 89 133 76 q 178 116 172 102 q 184 151 184 131 l 184 866 q 168 922 184 910 q 66 941 140 941 l 66 1017 l 300 1017 l 882 279 l 882 866 q 867 922 882 911 q 766 941 840 941 l 766 1017 l 1108 1017 l 1108 941 q 1022 928 1042 941 q 997 901 1002 916 q 991 866 991 886 l 991 0 q 834 -323 991 -254 q 730 -346 783 -346 q 570 -297 633 -346 q 507 -173 507 -248 q 541 -81 507 -119 q 624 -43 575 -43 q 703 -76 673 -43 q 734 -162 734 -109 q 683 -250 734 -216 z "},"ŋ":{"ha":870,"x_min":53,"x_max":747,"o":"m 542 -203 q 517 -262 542 -237 q 543 -264 534 -265 q 631 -148 631 -258 q 615 42 631 -86 q 600 233 600 170 l 600 401 q 582 531 600 496 q 537 583 565 566 q 477 600 510 600 q 376 581 424 600 q 296 530 328 562 l 296 146 q 309 92 296 102 q 396 75 331 75 l 396 0 l 54 0 l 54 75 q 127 86 113 75 q 146 112 142 98 q 149 146 149 125 l 149 515 q 141 579 149 564 q 94 594 132 594 l 53 594 l 53 669 q 153 679 117 669 q 204 693 189 688 q 237 697 220 697 q 284 676 273 697 q 296 610 296 656 q 465 693 368 671 q 528 701 497 701 q 746 410 746 701 l 747 7 q 526 -346 747 -346 q 372 -271 412 -346 q 359 -221 359 -247 q 386 -146 359 -175 q 454 -118 412 -118 q 535 -170 513 -118 q 542 -203 542 -185 z "},"Ō":{"ha":1070,"x_min":56,"x_max":1015,"o":"m 56 0 m 56 509 q 95 738 56 637 q 201 903 134 838 q 535 1031 332 1031 q 869 905 739 1031 q 1015 512 1015 766 q 881 122 1015 258 q 535 -14 748 -14 q 189 124 323 -14 q 56 509 56 262 m 537 75 q 736 163 656 75 q 838 501 838 274 q 751 836 838 728 q 533 943 665 943 q 317 836 402 943 q 232 515 232 729 q 400 111 232 208 q 537 75 462 75 m 291 1149 l 291 1264 l 779 1264 l 779 1149 l 291 1149 z "},"ō":{"ha":797,"x_min":68,"x_max":736,"o":"m 68 0 m 68 347 q 93 497 68 429 q 164 612 119 566 q 402 701 254 701 q 644 611 552 701 q 736 356 736 522 q 651 89 736 191 q 402 -14 566 -14 q 153 86 238 -14 q 68 347 68 185 m 402 68 q 530 140 481 68 q 579 342 579 212 q 473 604 579 551 q 402 620 441 620 q 239 468 277 620 q 225 346 225 416 q 274 140 225 212 q 402 68 323 68 m 168 836 l 168 951 l 629 951 l 629 836 l 168 836 z "},"Ŏ":{"ha":1070,"x_min":56,"x_max":1015,"o":"m 56 0 m 56 509 q 95 738 56 637 q 201 903 134 838 q 535 1031 332 1031 q 869 905 739 1031 q 1015 512 1015 766 q 881 122 1015 258 q 535 -14 748 -14 q 189 124 323 -14 q 56 509 56 262 m 537 75 q 736 163 656 75 q 838 501 838 274 q 751 836 838 728 q 533 943 665 943 q 317 836 402 943 q 232 515 232 729 q 400 111 232 208 q 537 75 462 75 m 535 1249 q 686 1343 648 1249 l 763 1343 q 696 1181 759 1242 q 535 1120 635 1120 q 374 1181 435 1120 q 307 1343 311 1242 l 385 1343 q 535 1249 422 1249 z "},"ŏ":{"ha":797,"x_min":68,"x_max":736,"o":"m 68 0 m 68 347 q 93 497 68 429 q 164 612 119 566 q 402 701 254 701 q 644 611 552 701 q 736 356 736 522 q 651 89 736 191 q 402 -14 566 -14 q 153 86 238 -14 q 68 347 68 185 m 402 68 q 530 140 481 68 q 579 342 579 212 q 473 604 579 551 q 402 620 441 620 q 239 468 277 620 q 225 346 225 416 q 274 140 225 212 q 402 68 323 68 m 398 930 q 549 1045 511 930 l 626 1045 q 560 869 622 936 q 398 802 498 802 q 236 869 298 802 q 170 1045 174 936 l 248 1045 q 398 930 285 930 z "},"Ő":{"ha":1070,"x_min":56,"x_max":1015,"o":"m 56 0 m 56 509 q 95 738 56 637 q 201 903 134 838 q 535 1031 332 1031 q 869 905 739 1031 q 1015 512 1015 766 q 881 122 1015 258 q 535 -14 748 -14 q 189 124 323 -14 q 56 509 56 262 m 537 75 q 736 163 656 75 q 838 501 838 274 q 751 836 838 728 q 533 943 665 943 q 317 836 402 943 q 232 515 232 729 q 400 111 232 208 q 537 75 462 75 m 736 1122 q 677 1095 699 1095 q 636 1130 636 1095 q 648 1161 636 1145 l 732 1276 q 781 1338 768 1326 q 849 1363 807 1363 q 907 1322 893 1363 q 911 1295 911 1310 q 872 1223 911 1253 l 736 1122 m 463 1122 q 403 1095 425 1095 q 362 1130 362 1095 q 374 1161 362 1145 l 458 1276 q 507 1338 494 1326 q 575 1363 533 1363 q 633 1322 619 1363 q 637 1295 637 1310 q 598 1223 637 1253 l 463 1122 z "},"ő":{"ha":797,"x_min":68,"x_max":812,"o":"m 68 0 m 68 347 q 93 497 68 429 q 164 612 119 566 q 402 701 254 701 q 644 611 552 701 q 736 356 736 522 q 651 89 736 191 q 402 -14 566 -14 q 153 86 238 -14 q 68 347 68 185 m 402 68 q 530 140 481 68 q 579 342 579 212 q 473 604 579 551 q 402 620 441 620 q 239 468 277 620 q 225 346 225 416 q 274 140 225 212 q 402 68 323 68 m 614 834 q 554 806 576 806 q 513 842 513 806 q 526 873 513 857 l 632 1011 q 688 1080 668 1061 q 750 1099 707 1099 q 808 1058 793 1099 q 812 1030 812 1046 q 772 959 812 988 l 614 834 m 340 834 q 280 806 302 806 q 239 842 239 806 q 252 873 239 857 l 357 1011 q 412 1080 393 1061 q 475 1099 432 1099 q 532 1058 518 1099 q 536 1030 536 1046 q 497 959 536 988 l 340 834 z "},"Œ":{"ha":1451,"x_min":53,"x_max":1385,"o":"m 192 122 q 159 156 192 122 q 90 286 127 189 q 53 491 53 383 q 71 672 53 598 q 122 805 90 747 q 296 974 185 917 q 538 1031 407 1031 q 663 1017 600 1031 l 1339 1017 l 1365 771 l 1267 770 l 1249 847 q 1221 916 1235 902 q 1136 941 1196 941 l 880 941 l 880 547 l 1008 547 q 1067 548 1045 547 q 1102 561 1088 549 q 1116 641 1116 572 l 1218 641 l 1218 378 l 1116 378 q 1102 456 1116 444 q 1067 470 1088 468 q 1008 472 1045 472 l 880 472 l 880 75 l 1162 75 q 1264 123 1246 75 q 1275 161 1270 140 l 1293 245 l 1385 245 l 1358 0 l 662 0 q 518 -14 602 -14 q 346 21 434 -14 q 192 122 257 56 m 533 75 q 570 75 533 75 q 649 94 607 75 q 728 149 691 113 l 728 874 q 535 943 669 943 q 312 835 401 943 q 222 515 222 728 q 396 111 222 208 q 533 75 460 75 z "},"œ":{"ha":1267,"x_min":61,"x_max":1205,"o":"m 648 94 q 395 -14 559 -14 q 146 86 231 -14 q 61 350 61 185 q 154 608 61 515 q 406 701 247 701 q 653 593 564 701 q 905 701 743 701 q 1143 598 1068 701 q 1205 369 1205 515 q 1204 312 1205 339 l 733 312 q 788 132 733 196 q 913 68 844 68 q 1021 92 983 68 q 1081 158 1059 115 l 1183 159 q 1093 37 1166 87 q 907 -14 1020 -14 q 648 94 743 -14 m 1046 389 q 1047 423 1047 401 q 1023 550 1047 500 q 907 622 987 622 q 782 560 827 622 q 733 389 737 498 l 1046 389 m 395 68 q 523 140 474 68 q 572 342 572 212 q 467 604 572 551 q 395 620 434 620 q 232 468 270 620 q 218 346 218 416 q 268 140 218 212 q 395 68 317 68 z "},"Ŕ":{"ha":998,"x_min":56,"x_max":1004,"o":"m 56 0 m 879 84 q 932 206 932 84 l 997 206 q 1004 163 1004 182 q 1004 124 1004 145 q 987 68 1003 102 q 848 -14 950 -14 q 704 38 745 -14 q 644 143 662 90 q 616 236 627 196 q 566 378 585 345 q 471 442 531 442 l 322 442 l 322 182 q 326 127 322 148 q 350 90 329 106 q 476 75 370 75 l 476 0 l 56 0 l 56 75 q 145 87 127 75 q 166 114 163 100 q 170 149 170 128 l 170 869 q 155 924 170 913 q 56 943 127 943 l 56 1017 l 472 1017 q 843 811 806 1017 q 849 732 849 777 q 788 565 849 634 q 621 466 726 496 q 757 319 712 438 q 789 220 772 281 q 818 136 807 159 q 879 84 842 84 m 473 510 q 637 566 589 510 q 686 727 686 622 q 629 888 686 833 q 432 943 573 943 l 322 943 l 322 510 l 473 510 m 484 1122 q 424 1095 446 1095 q 383 1130 383 1095 q 395 1161 383 1145 l 479 1276 q 534 1344 515 1326 q 597 1363 554 1363 q 654 1322 640 1363 q 659 1295 659 1310 q 619 1223 659 1253 l 484 1122 z "},"ŕ":{"ha":608,"x_min":54,"x_max":589,"o":"m 54 0 m 56 75 q 129 86 114 75 q 147 112 144 98 q 150 146 150 125 l 150 519 q 141 583 150 568 q 96 598 133 598 l 54 598 l 54 673 q 154 683 119 673 q 205 697 190 692 q 238 701 220 701 q 284 681 273 701 q 296 614 296 661 l 296 601 q 429 693 355 669 q 481 701 455 701 q 561 672 532 701 q 589 600 589 643 q 562 530 589 557 q 496 503 534 503 q 433 530 458 503 q 411 598 408 557 q 352 573 383 594 q 296 515 320 551 l 296 152 q 301 111 296 126 q 325 85 305 96 q 441 75 344 75 l 441 0 l 56 0 l 56 75 m 368 851 q 307 810 342 810 q 282 820 291 810 q 273 841 273 831 q 275 858 273 850 l 309 1018 q 337 1109 323 1088 q 402 1146 362 1146 q 484 1080 484 1146 q 456 998 484 1044 l 368 851 z "},"Ŗ":{"ha":998,"x_min":56,"x_max":1004,"o":"m 56 0 m 879 84 q 932 206 932 84 l 997 206 q 1004 163 1004 182 q 1004 124 1004 145 q 987 68 1003 102 q 848 -14 950 -14 q 704 38 745 -14 q 644 143 662 90 q 616 236 627 196 q 566 378 585 345 q 471 442 531 442 l 322 442 l 322 182 q 326 127 322 148 q 350 90 329 106 q 476 75 370 75 l 476 0 l 56 0 l 56 75 q 145 87 127 75 q 166 114 163 100 q 170 149 170 128 l 170 869 q 155 924 170 913 q 56 943 127 943 l 56 1017 l 472 1017 q 843 811 806 1017 q 849 732 849 777 q 788 565 849 634 q 621 466 726 496 q 757 319 712 438 q 789 220 772 281 q 818 136 807 159 q 879 84 842 84 m 473 510 q 637 566 589 510 q 686 727 686 622 q 629 888 686 833 q 432 943 573 943 l 322 943 l 322 510 l 473 510 m 539 -247 q 528 -242 539 -247 q 502 -215 517 -237 q 488 -172 488 -193 q 511 -111 488 -133 q 574 -88 535 -88 q 638 -116 612 -88 q 664 -184 664 -144 q 621 -310 664 -257 q 513 -371 578 -363 l 487 -330 q 547 -286 532 -315 q 539 -247 562 -257 z "},"ŗ":{"ha":608,"x_min":54,"x_max":589,"o":"m 54 0 m 56 75 q 129 86 114 75 q 147 112 144 98 q 150 146 150 125 l 150 519 q 141 583 150 568 q 96 598 133 598 l 54 598 l 54 673 q 154 683 119 673 q 205 697 190 692 q 238 701 220 701 q 284 681 273 701 q 296 614 296 661 l 296 601 q 429 693 355 669 q 481 701 455 701 q 561 672 532 701 q 589 600 589 643 q 562 530 589 557 q 496 503 534 503 q 433 530 458 503 q 411 598 408 557 q 352 573 383 594 q 296 515 320 551 l 296 152 q 301 111 296 126 q 325 85 305 96 q 441 75 344 75 l 441 0 l 56 0 l 56 75 m 194 -247 q 183 -242 194 -247 q 157 -215 172 -237 q 142 -172 142 -193 q 166 -111 142 -133 q 229 -88 190 -88 q 293 -116 267 -88 q 319 -184 319 -144 q 276 -310 319 -257 q 168 -371 233 -363 l 142 -330 q 202 -286 187 -315 q 194 -247 217 -257 z "},"Ř":{"ha":998,"x_min":56,"x_max":1004,"o":"m 56 0 m 879 84 q 932 206 932 84 l 997 206 q 1004 163 1004 182 q 1004 124 1004 145 q 987 68 1003 102 q 848 -14 950 -14 q 704 38 745 -14 q 644 143 662 90 q 616 236 627 196 q 566 378 585 345 q 471 442 531 442 l 322 442 l 322 182 q 326 127 322 148 q 350 90 329 106 q 476 75 370 75 l 476 0 l 56 0 l 56 75 q 145 87 127 75 q 166 114 163 100 q 170 149 170 128 l 170 869 q 155 924 170 913 q 56 943 127 943 l 56 1017 l 472 1017 q 843 811 806 1017 q 849 732 849 777 q 788 565 849 634 q 621 466 726 496 q 757 319 712 438 q 789 220 772 281 q 818 136 807 159 q 879 84 842 84 m 473 510 q 637 566 589 510 q 686 727 686 622 q 629 888 686 833 q 432 943 573 943 l 322 943 l 322 510 l 473 510 m 668 1337 q 701 1314 701 1337 q 690 1292 701 1303 l 492 1101 l 416 1101 l 217 1292 q 207 1314 207 1303 q 239 1337 207 1337 q 279 1325 257 1337 l 454 1236 l 628 1325 q 668 1337 650 1337 z "},"ř":{"ha":608,"x_min":54,"x_max":589,"o":"m 54 0 m 56 75 q 129 86 114 75 q 147 112 144 98 q 150 146 150 125 l 150 519 q 141 583 150 568 q 96 598 133 598 l 54 598 l 54 673 q 154 683 119 673 q 205 697 190 692 q 238 701 220 701 q 284 681 273 701 q 296 614 296 661 l 296 601 q 429 693 355 669 q 481 701 455 701 q 561 672 532 701 q 589 600 589 643 q 562 530 589 557 q 496 503 534 503 q 433 530 458 503 q 411 598 408 557 q 352 573 383 594 q 296 515 320 551 l 296 152 q 301 111 296 126 q 325 85 305 96 q 441 75 344 75 l 441 0 l 56 0 l 56 75 m 290 791 l 105 1042 q 99 1057 99 1052 q 127 1084 99 1084 q 174 1062 150 1084 l 328 943 l 482 1062 q 522 1084 507 1084 q 557 1060 557 1084 q 551 1042 557 1052 l 366 791 l 290 791 z "},"Ś":{"ha":869,"x_min":101,"x_max":772,"o":"m 101 0 m 600 902 q 449 949 565 949 q 290 872 334 949 q 275 807 275 846 q 338 677 275 736 q 455 596 380 637 q 580 522 529 555 q 772 255 772 400 q 677 56 772 126 q 432 -14 583 -14 q 192 46 282 -14 q 101 182 101 105 q 163 286 101 259 q 204 295 182 295 q 274 267 247 295 q 302 195 302 238 q 262 121 302 151 q 438 68 315 68 q 606 151 560 68 q 622 217 622 179 q 554 339 622 283 q 435 415 519 368 q 303 492 351 461 q 126 761 126 606 q 217 956 126 882 q 443 1031 309 1031 q 664 973 578 1031 q 751 833 751 916 q 723 758 751 788 q 654 728 696 728 q 564 784 589 728 q 557 820 557 801 q 600 902 557 872 m 484 1122 q 424 1095 446 1095 q 383 1130 383 1095 q 395 1161 383 1145 l 479 1276 q 534 1344 515 1326 q 597 1363 554 1363 q 654 1322 640 1363 q 659 1295 659 1310 q 619 1223 659 1253 l 484 1122 z "},"ś":{"ha":661,"x_min":58,"x_max":604,"o":"m 58 0 m 433 597 q 319 632 398 632 q 213 575 241 632 q 205 538 205 559 q 222 498 205 517 q 264 461 238 479 q 322 428 290 444 q 389 393 354 412 q 462 353 423 374 q 604 181 604 275 q 530 37 604 87 q 336 -14 457 -14 q 136 30 215 -14 q 58 142 58 73 q 82 205 58 179 q 145 231 107 231 q 209 207 184 231 q 234 149 234 182 q 211 93 234 116 q 346 62 265 62 q 458 99 426 62 q 472 138 472 114 q 347 255 472 194 q 217 322 260 298 q 78 512 78 401 q 149 649 78 597 q 330 701 220 701 q 514 660 439 701 q 589 553 589 618 q 571 497 589 515 q 510 465 539 465 q 438 489 463 465 q 414 545 414 513 q 433 597 414 576 m 387 851 q 326 810 361 810 q 301 820 310 810 q 292 841 292 831 q 294 858 292 850 l 328 1018 q 356 1109 342 1088 q 421 1146 381 1146 q 503 1080 503 1146 q 475 998 503 1044 l 387 851 z "},"Ŝ":{"ha":869,"x_min":101,"x_max":772,"o":"m 101 0 m 600 902 q 449 949 565 949 q 290 872 334 949 q 275 807 275 846 q 338 677 275 736 q 455 596 380 637 q 580 522 529 555 q 772 255 772 400 q 677 56 772 126 q 432 -14 583 -14 q 192 46 282 -14 q 101 182 101 105 q 163 286 101 259 q 204 295 182 295 q 274 267 247 295 q 302 195 302 238 q 262 121 302 151 q 438 68 315 68 q 606 151 560 68 q 622 217 622 179 q 554 339 622 283 q 435 415 519 368 q 303 492 351 461 q 126 761 126 606 q 217 956 126 882 q 443 1031 309 1031 q 664 973 578 1031 q 751 833 751 916 q 723 758 751 788 q 654 728 696 728 q 564 784 589 728 q 557 820 557 801 q 600 902 557 872 m 701 1144 q 668 1120 701 1120 q 628 1133 650 1121 l 454 1221 l 279 1133 q 239 1120 257 1121 q 207 1144 207 1120 q 217 1166 207 1155 l 416 1356 l 492 1356 l 690 1166 q 701 1144 701 1155 z "},"ŝ":{"ha":661,"x_min":58,"x_max":604,"o":"m 58 0 m 433 597 q 319 632 398 632 q 213 575 241 632 q 205 538 205 559 q 222 498 205 517 q 264 461 238 479 q 322 428 290 444 q 389 393 354 412 q 462 353 423 374 q 604 181 604 275 q 530 37 604 87 q 336 -14 457 -14 q 136 30 215 -14 q 58 142 58 73 q 82 205 58 179 q 145 231 107 231 q 209 207 184 231 q 234 149 234 182 q 211 93 234 116 q 346 62 265 62 q 458 99 426 62 q 472 138 472 114 q 347 255 472 194 q 217 322 260 298 q 78 512 78 401 q 149 649 78 597 q 330 701 220 701 q 514 660 439 701 q 589 553 589 618 q 571 497 589 515 q 510 465 539 465 q 438 489 463 465 q 414 545 414 513 q 433 597 414 576 m 193 814 q 153 791 169 791 q 118 816 118 791 q 124 833 118 824 l 309 1085 l 385 1085 l 570 833 q 576 819 576 824 q 549 791 576 791 q 501 814 526 791 l 347 932 l 193 814 z "},"Ş":{"ha":869,"x_min":101,"x_max":772,"o":"m 444 -13 l 431 -14 q 192 46 282 -14 q 101 182 101 105 q 163 286 101 259 q 203 295 182 295 q 274 267 247 295 q 302 195 302 238 q 262 121 302 151 q 438 68 315 68 q 606 151 560 68 q 622 217 622 179 q 555 339 622 283 q 435 415 519 368 q 302 492 351 461 q 126 761 126 606 q 217 956 126 882 q 443 1031 309 1031 q 664 973 578 1031 q 751 833 751 916 q 723 758 751 788 q 654 728 696 728 q 564 784 589 728 q 557 820 557 801 q 600 902 557 872 q 449 949 564 949 q 290 872 334 949 q 275 807 275 846 q 339 677 275 736 q 455 596 380 637 q 581 522 529 555 q 772 255 772 400 q 621 23 772 91 q 519 -7 575 2 q 529 -117 529 -66 q 511 -205 529 -168 q 353 -284 473 -284 q 281 -273 314 -284 q 241 -257 249 -262 l 246 -185 q 298 -195 280 -195 q 380 -175 352 -195 q 444 -13 441 -132 z "},"ş":{"ha":661,"x_min":58,"x_max":604,"o":"m 410 -115 q 234 -284 410 -284 q 162 -273 195 -284 q 122 -257 130 -262 l 127 -185 q 178 -195 161 -195 q 261 -175 233 -195 q 324 -14 321 -132 q 134 31 210 -12 q 58 142 58 75 q 82 205 58 179 q 145 231 107 231 q 209 207 184 231 q 234 149 234 182 q 211 93 234 116 q 346 62 265 62 q 458 99 426 62 q 472 138 472 114 q 347 255 472 194 q 217 322 260 298 q 78 512 78 401 q 149 649 78 597 q 330 701 220 701 q 514 660 439 701 q 589 553 589 618 q 571 497 589 515 q 510 465 539 465 q 438 489 463 465 q 414 545 414 513 q 433 597 414 576 q 319 632 398 632 q 213 575 241 632 q 205 538 205 559 q 222 498 205 517 q 264 461 238 479 q 322 428 290 444 q 389 393 354 412 q 462 353 423 374 q 604 179 604 275 q 484 12 604 61 q 400 -9 447 -3 q 410 -115 410 -66 z "},"Š":{"ha":869,"x_min":101,"x_max":772,"o":"m 101 0 m 600 902 q 449 949 565 949 q 290 872 334 949 q 275 807 275 846 q 338 677 275 736 q 455 596 380 637 q 580 522 529 555 q 772 255 772 400 q 677 56 772 126 q 432 -14 583 -14 q 192 46 282 -14 q 101 182 101 105 q 163 286 101 259 q 204 295 182 295 q 274 267 247 295 q 302 195 302 238 q 262 121 302 151 q 438 68 315 68 q 606 151 560 68 q 622 217 622 179 q 554 339 622 283 q 435 415 519 368 q 303 492 351 461 q 126 761 126 606 q 217 956 126 882 q 443 1031 309 1031 q 664 973 578 1031 q 751 833 751 916 q 723 758 751 788 q 654 728 696 728 q 564 784 589 728 q 557 820 557 801 q 600 902 557 872 m 668 1337 q 701 1314 701 1337 q 690 1292 701 1303 l 492 1101 l 416 1101 l 217 1292 q 207 1314 207 1303 q 239 1337 207 1337 q 279 1325 257 1337 l 454 1236 l 628 1325 q 668 1337 650 1337 z "},"š":{"ha":661,"x_min":58,"x_max":604,"o":"m 58 0 m 433 597 q 319 632 398 632 q 213 575 241 632 q 205 538 205 559 q 222 498 205 517 q 264 461 238 479 q 322 428 290 444 q 389 393 354 412 q 462 353 423 374 q 604 181 604 275 q 530 37 604 87 q 336 -14 457 -14 q 136 30 215 -14 q 58 142 58 73 q 82 205 58 179 q 145 231 107 231 q 209 207 184 231 q 234 149 234 182 q 211 93 234 116 q 346 62 265 62 q 458 99 426 62 q 472 138 472 114 q 347 255 472 194 q 217 322 260 298 q 78 512 78 401 q 149 649 78 597 q 330 701 220 701 q 514 660 439 701 q 589 553 589 618 q 571 497 589 515 q 510 465 539 465 q 438 489 463 465 q 414 545 414 513 q 433 597 414 576 m 309 791 l 124 1042 q 118 1057 118 1052 q 146 1084 118 1084 q 193 1062 169 1084 l 347 943 l 501 1062 q 541 1084 526 1084 q 576 1060 576 1084 q 570 1042 576 1052 l 385 791 l 309 791 z "},"Ţ":{"ha":938,"x_min":6,"x_max":929,"o":"m 6 0 m 250 75 q 351 87 326 75 q 384 114 376 100 q 391 149 391 128 l 391 939 l 252 939 q 124 820 140 939 l 104 682 l 6 683 l 36 1017 l 899 1017 l 929 683 l 831 682 l 811 820 q 782 898 804 875 q 683 939 743 939 l 544 939 l 544 149 q 572 90 544 106 q 686 75 600 75 l 686 0 l 250 0 l 250 75 m 443 -247 q 432 -242 443 -247 q 406 -215 420 -237 q 391 -172 391 -193 q 415 -111 391 -133 q 477 -88 439 -88 q 542 -116 516 -88 q 568 -184 568 -144 q 525 -310 568 -257 q 416 -371 482 -363 l 391 -330 q 451 -286 436 -315 q 443 -247 466 -257 z "},"ţ":{"ha":568,"x_min":35,"x_max":534,"o":"m 35 0 m 338 -14 q 125 224 125 -14 l 125 563 q 118 598 125 589 q 91 606 112 606 l 35 606 l 35 688 l 60 688 q 136 720 112 688 q 162 827 160 753 l 163 888 l 271 888 l 271 688 l 479 688 l 479 606 l 271 606 l 271 226 q 330 75 271 100 q 362 68 346 68 q 455 186 433 68 l 534 186 q 418 1 527 47 q 338 -14 382 -14 m 276 -247 q 265 -242 276 -247 q 239 -215 254 -237 q 224 -172 224 -193 q 248 -111 224 -133 q 311 -88 272 -88 q 375 -116 349 -88 q 401 -184 401 -144 q 358 -310 401 -257 q 250 -371 315 -363 l 224 -330 q 284 -286 269 -315 q 276 -247 299 -257 z "},"Ť":{"ha":938,"x_min":6,"x_max":929,"o":"m 6 0 m 250 75 q 351 87 326 75 q 384 114 376 100 q 391 149 391 128 l 391 939 l 252 939 q 124 820 140 939 l 104 682 l 6 683 l 36 1017 l 899 1017 l 929 683 l 831 682 l 811 820 q 782 898 804 875 q 683 939 743 939 l 544 939 l 544 149 q 572 90 544 106 q 686 75 600 75 l 686 0 l 250 0 l 250 75 m 687 1337 q 720 1314 720 1337 q 709 1292 720 1303 l 511 1101 l 435 1101 l 236 1292 q 226 1314 226 1303 q 258 1337 226 1337 q 298 1325 276 1337 l 473 1236 l 647 1325 q 687 1337 669 1337 z "},"ť":{"ha":645,"x_min":35,"x_max":646,"o":"m 476 744 q 533 908 533 834 q 511 962 533 950 q 452 1059 452 991 q 508 1152 452 1126 q 547 1159 525 1159 q 618 1123 590 1159 q 646 1038 646 1088 q 613 867 646 955 q 555 743 580 779 l 476 744 m 338 -14 q 125 224 125 -14 l 125 563 q 118 598 125 589 q 91 606 112 606 l 35 606 l 35 688 l 60 688 q 136 720 112 688 q 162 827 160 753 l 163 888 l 271 888 l 271 688 l 479 688 l 479 606 l 271 606 l 271 226 q 330 75 271 100 q 362 68 346 68 q 455 186 433 68 l 534 186 q 418 1 527 47 q 338 -14 382 -14 z "},"Ŧ":{"ha":938,"x_min":6,"x_max":929,"o":"m 250 75 q 351 87 326 75 q 384 114 376 100 q 391 149 391 128 l 391 463 l 136 463 l 136 551 l 391 551 l 391 939 l 252 939 q 124 820 140 939 l 104 682 l 6 683 l 36 1017 l 899 1017 l 929 683 l 831 682 l 811 820 q 782 898 804 875 q 683 939 743 939 l 544 939 l 544 551 l 802 551 l 802 463 l 544 463 l 544 149 q 572 90 544 106 q 686 75 600 75 l 686 0 l 250 0 l 250 75 z "},"ŧ":{"ha":568,"x_min":35,"x_max":534,"o":"m 338 -14 q 125 224 125 -14 l 125 355 l 35 355 l 35 436 l 125 436 l 125 563 q 118 598 125 589 q 91 606 112 606 l 35 606 l 35 688 l 60 688 q 136 720 112 688 q 162 827 160 753 l 163 888 l 271 888 l 271 688 l 479 688 l 479 606 l 271 606 l 271 436 l 479 436 l 479 355 l 271 355 l 271 226 q 330 75 271 100 q 362 68 346 68 q 455 186 433 68 l 534 186 q 418 1 527 47 q 338 -14 382 -14 z "},"Ũ":{"ha":1096,"x_min":43,"x_max":1060,"o":"m 43 0 m 560 85 q 829 420 829 85 l 829 869 q 814 924 829 913 q 715 943 787 943 l 715 1017 l 1060 1017 l 1060 943 q 976 930 996 943 q 951 903 956 918 q 945 869 945 889 l 946 427 q 710 12 946 94 q 565 -14 635 -14 q 448 -4 495 -14 q 357 28 401 6 q 206 172 262 75 q 150 420 150 268 l 150 869 q 135 924 150 912 q 43 943 110 943 l 43 1017 l 422 1017 l 422 943 q 333 930 354 943 q 307 903 313 918 q 301 869 301 889 l 301 406 q 375 164 301 243 q 560 85 449 85 m 748 1131 q 677 1113 715 1113 q 616 1121 640 1113 q 572 1143 591 1130 q 536 1171 552 1156 q 496 1207 519 1185 q 454 1228 472 1228 q 388 1168 399 1228 l 379 1105 l 307 1105 q 414 1333 315 1280 q 485 1350 447 1350 q 546 1342 522 1350 q 590 1320 570 1333 q 627 1293 610 1308 q 667 1256 643 1278 q 709 1235 691 1235 q 772 1295 760 1235 l 783 1358 l 856 1358 q 748 1131 843 1181 z "},"ũ":{"ha":814,"x_min":43,"x_max":789,"o":"m 43 0 m 558 111 q 332 -14 473 -14 q 172 50 229 -14 q 115 238 115 113 l 115 519 q 107 583 115 568 q 61 598 98 598 l 43 598 l 43 673 q 134 683 106 673 q 174 697 162 692 q 204 701 186 701 q 250 680 239 701 q 262 612 262 659 l 262 233 q 277 132 262 159 q 380 79 307 79 q 476 118 429 79 q 543 208 524 157 l 543 519 q 534 584 542 570 q 488 598 526 598 l 450 598 l 450 673 q 549 683 514 673 q 599 697 584 692 q 631 701 614 701 q 678 681 666 701 q 690 614 690 661 l 690 180 q 696 99 690 115 q 750 69 707 69 q 789 77 773 69 l 789 11 q 701 -14 757 -14 q 558 111 583 -14 m 560 853 q 490 836 527 836 q 428 844 452 836 q 384 865 404 852 q 348 893 364 878 q 308 929 332 908 q 267 951 284 951 q 200 891 211 951 l 191 828 l 119 828 q 226 1055 127 1003 q 297 1073 259 1073 q 358 1064 334 1073 q 402 1043 382 1056 q 439 1015 422 1030 q 479 979 455 1000 q 521 958 503 958 q 585 1017 572 958 l 595 1080 l 668 1080 q 560 853 655 903 z "},"Ū":{"ha":1096,"x_min":43,"x_max":1060,"o":"m 43 0 m 560 85 q 829 420 829 85 l 829 869 q 814 924 829 913 q 715 943 787 943 l 715 1017 l 1060 1017 l 1060 943 q 976 930 996 943 q 951 903 956 918 q 945 869 945 889 l 946 427 q 710 12 946 94 q 565 -14 635 -14 q 448 -4 495 -14 q 357 28 401 6 q 206 172 262 75 q 150 420 150 268 l 150 869 q 135 924 150 912 q 43 943 110 943 l 43 1017 l 422 1017 l 422 943 q 333 930 354 943 q 307 903 313 918 q 301 869 301 889 l 301 406 q 375 164 301 243 q 560 85 449 85 m 337 1149 l 337 1264 l 825 1264 l 825 1149 l 337 1149 z "},"ū":{"ha":814,"x_min":43,"x_max":789,"o":"m 43 0 m 558 111 q 332 -14 473 -14 q 172 50 229 -14 q 115 238 115 113 l 115 519 q 107 583 115 568 q 61 598 98 598 l 43 598 l 43 673 q 134 683 106 673 q 174 697 162 692 q 204 701 186 701 q 250 680 239 701 q 262 612 262 659 l 262 233 q 277 132 262 159 q 380 79 307 79 q 476 118 429 79 q 543 208 524 157 l 543 519 q 534 584 542 570 q 488 598 526 598 l 450 598 l 450 673 q 549 683 514 673 q 599 697 584 692 q 631 701 614 701 q 678 681 666 701 q 690 614 690 661 l 690 180 q 696 99 690 115 q 750 69 707 69 q 789 77 773 69 l 789 11 q 701 -14 757 -14 q 558 111 583 -14 m 163 836 l 163 951 l 624 951 l 624 836 l 163 836 z "},"Ŭ":{"ha":1096,"x_min":43,"x_max":1060,"o":"m 43 0 m 560 85 q 829 420 829 85 l 829 869 q 814 924 829 913 q 715 943 787 943 l 715 1017 l 1060 1017 l 1060 943 q 976 930 996 943 q 951 903 956 918 q 945 869 945 889 l 946 427 q 710 12 946 94 q 565 -14 635 -14 q 448 -4 495 -14 q 357 28 401 6 q 206 172 262 75 q 150 420 150 268 l 150 869 q 135 924 150 912 q 43 943 110 943 l 43 1017 l 422 1017 l 422 943 q 333 930 354 943 q 307 903 313 918 q 301 869 301 889 l 301 406 q 375 164 301 243 q 560 85 449 85 m 581 1249 q 732 1343 694 1249 l 809 1343 q 743 1181 805 1242 q 581 1120 681 1120 q 420 1181 481 1120 q 353 1343 357 1242 l 431 1343 q 581 1249 468 1249 z "},"ŭ":{"ha":814,"x_min":43,"x_max":789,"o":"m 43 0 m 558 111 q 332 -14 473 -14 q 172 50 229 -14 q 115 238 115 113 l 115 519 q 107 583 115 568 q 61 598 98 598 l 43 598 l 43 673 q 134 683 106 673 q 174 697 162 692 q 204 701 186 701 q 250 680 239 701 q 262 612 262 659 l 262 233 q 277 132 262 159 q 380 79 307 79 q 476 118 429 79 q 543 208 524 157 l 543 519 q 534 584 542 570 q 488 598 526 598 l 450 598 l 450 673 q 549 683 514 673 q 599 697 584 692 q 631 701 614 701 q 678 681 666 701 q 690 614 690 661 l 690 180 q 696 99 690 115 q 750 69 707 69 q 789 77 773 69 l 789 11 q 701 -14 757 -14 q 558 111 583 -14 m 393 930 q 544 1045 507 930 l 621 1045 q 555 869 617 936 q 393 802 494 802 q 231 869 293 802 q 165 1045 170 936 l 243 1045 q 393 930 280 930 z "},"Ů":{"ha":1096,"x_min":43,"x_max":1060,"o":"m 43 0 m 560 85 q 829 420 829 85 l 829 869 q 814 924 829 913 q 715 943 787 943 l 715 1017 l 1060 1017 l 1060 943 q 976 930 996 943 q 951 903 956 918 q 945 869 945 889 l 946 427 q 710 12 946 94 q 565 -14 635 -14 q 448 -4 495 -14 q 357 28 401 6 q 206 172 262 75 q 150 420 150 268 l 150 869 q 135 924 150 912 q 43 943 110 943 l 43 1017 l 422 1017 l 422 943 q 333 930 354 943 q 307 903 313 918 q 301 869 301 889 l 301 406 q 375 164 301 243 q 560 85 449 85 m 572 984 q 438 1039 493 984 q 384 1172 384 1093 q 439 1305 384 1251 q 572 1360 494 1360 q 705 1305 650 1360 q 760 1172 760 1250 q 705 1039 760 1094 q 572 984 650 984 m 572 1065 q 648 1127 627 1065 q 655 1172 655 1147 q 631 1249 655 1219 q 572 1278 608 1278 q 495 1217 516 1278 q 488 1172 488 1197 q 539 1072 488 1097 q 572 1065 555 1065 z "},"ů":{"ha":814,"x_min":43,"x_max":789,"o":"m 43 0 m 558 111 q 332 -14 473 -14 q 172 50 229 -14 q 115 238 115 113 l 115 519 q 107 583 115 568 q 61 598 98 598 l 43 598 l 43 673 q 134 683 106 673 q 174 697 162 692 q 204 701 186 701 q 250 680 239 701 q 262 612 262 659 l 262 233 q 277 132 262 159 q 380 79 307 79 q 476 118 429 79 q 543 208 524 157 l 543 519 q 534 584 542 570 q 488 598 526 598 l 450 598 l 450 673 q 549 683 514 673 q 599 697 584 692 q 631 701 614 701 q 678 681 666 701 q 690 614 690 661 l 690 180 q 696 99 690 115 q 750 69 707 69 q 789 77 773 69 l 789 11 q 701 -14 757 -14 q 558 111 583 -14 m 393 796 q 260 851 315 796 q 205 984 205 905 q 260 1118 205 1063 q 393 1173 315 1173 q 527 1117 471 1173 q 582 984 582 1062 q 527 851 582 906 q 393 796 472 796 m 393 877 q 470 939 449 877 q 477 984 477 959 q 453 1061 477 1031 q 393 1090 429 1090 q 317 1029 338 1090 q 310 984 310 1009 q 361 884 310 909 q 393 877 376 877 z "},"Ű":{"ha":1096,"x_min":43,"x_max":1060,"o":"m 43 0 m 560 85 q 829 420 829 85 l 829 869 q 814 924 829 913 q 715 943 787 943 l 715 1017 l 1060 1017 l 1060 943 q 976 930 996 943 q 951 903 956 918 q 945 869 945 889 l 946 427 q 710 12 946 94 q 565 -14 635 -14 q 448 -4 495 -14 q 357 28 401 6 q 206 172 262 75 q 150 420 150 268 l 150 869 q 135 924 150 912 q 43 943 110 943 l 43 1017 l 422 1017 l 422 943 q 333 930 354 943 q 307 903 313 918 q 301 869 301 889 l 301 406 q 375 164 301 243 q 560 85 449 85 m 783 1122 q 723 1095 745 1095 q 682 1130 682 1095 q 694 1161 682 1145 l 778 1276 q 827 1338 814 1326 q 895 1363 853 1363 q 954 1322 939 1363 q 958 1295 958 1310 q 918 1223 958 1253 l 783 1122 m 509 1122 q 449 1095 471 1095 q 408 1130 408 1095 q 420 1161 408 1145 l 504 1276 q 553 1338 540 1326 q 621 1363 579 1363 q 680 1322 665 1363 q 684 1295 684 1310 q 644 1223 684 1253 l 509 1122 z "},"ű":{"ha":814,"x_min":43,"x_max":807,"o":"m 43 0 m 558 111 q 332 -14 473 -14 q 172 50 229 -14 q 115 238 115 113 l 115 519 q 107 583 115 568 q 61 598 98 598 l 43 598 l 43 673 q 134 683 106 673 q 174 697 162 692 q 204 701 186 701 q 250 680 239 701 q 262 612 262 659 l 262 233 q 277 132 262 159 q 380 79 307 79 q 476 118 429 79 q 543 208 524 157 l 543 519 q 534 584 542 570 q 488 598 526 598 l 450 598 l 450 673 q 549 683 514 673 q 599 697 584 692 q 631 701 614 701 q 678 681 666 701 q 690 614 690 661 l 690 180 q 696 99 690 115 q 750 69 707 69 q 789 77 773 69 l 789 11 q 701 -14 757 -14 q 558 111 583 -14 m 609 834 q 549 806 571 806 q 509 842 509 806 q 521 873 509 857 l 627 1011 q 683 1080 663 1061 q 746 1099 703 1099 q 803 1058 789 1099 q 807 1030 807 1046 q 768 959 807 988 l 609 834 m 335 834 q 275 806 297 806 q 235 842 235 806 q 247 873 235 857 l 352 1011 q 408 1080 388 1061 q 470 1099 427 1099 q 528 1058 513 1099 q 532 1030 532 1046 q 492 959 532 988 l 335 834 z "},"Ų":{"ha":1096,"x_min":36,"x_max":1078,"o":"m 656 -22 q 549 -180 549 -91 q 623 -241 549 -241 q 670 -217 649 -241 q 691 -149 691 -193 l 752 -149 q 752 -178 752 -153 q 740 -238 752 -203 q 583 -346 703 -346 q 471 -308 515 -346 q 427 -201 427 -269 q 549 -14 427 -98 q 270 85 375 -12 q 150 420 150 195 l 150 869 q 134 924 150 913 q 36 943 108 943 l 36 1017 l 428 1017 l 428 943 q 344 930 363 943 q 319 903 324 918 q 313 869 313 889 l 314 406 q 390 164 314 242 q 582 85 465 85 q 831 273 781 85 q 847 406 847 332 l 847 869 q 831 924 847 913 q 733 943 805 943 l 733 1017 l 1078 1017 l 1078 943 q 994 930 1013 943 q 968 903 974 918 q 963 869 963 889 l 964 420 q 808 67 964 181 q 724 15 762 34 q 656 -22 686 -4 z "},"ų":{"ha":814,"x_min":35,"x_max":806,"o":"m 604 -180 q 677 -241 604 -241 q 724 -217 703 -241 q 745 -149 745 -193 l 806 -149 q 806 -178 806 -153 q 794 -238 806 -203 q 637 -346 757 -346 q 525 -308 569 -346 q 481 -201 481 -269 q 576 -34 481 -117 q 629 6 602 -12 q 565 112 579 37 q 328 -14 478 -14 q 131 127 178 -14 q 115 238 115 175 l 115 519 q 107 583 115 568 q 61 598 98 598 l 35 598 l 35 673 q 129 683 96 673 q 175 697 161 692 q 207 701 189 701 q 253 680 241 701 q 264 612 264 659 l 264 233 q 280 132 264 159 q 318 92 296 104 q 373 79 341 79 q 477 117 429 79 q 547 208 526 155 l 547 519 q 538 584 546 570 q 492 598 530 598 l 458 598 l 458 673 q 555 683 519 673 q 606 697 591 692 q 638 701 621 701 q 685 681 673 701 q 696 614 696 661 l 696 180 q 703 99 696 115 q 757 69 713 69 q 796 77 780 69 l 796 11 q 768 -2 789 4 q 726 -18 747 -9 q 643 -81 682 -35 q 604 -180 604 -127 z "},"Ŵ":{"ha":1539,"x_min":44,"x_max":1516,"o":"m 44 0 m 157 869 q 120 927 142 911 q 44 943 99 943 l 44 1017 l 441 1017 l 441 943 q 336 930 351 943 q 321 904 320 918 q 328 869 321 890 l 519 241 l 765 1017 l 854 1017 l 1104 244 l 1291 869 q 1294 898 1294 881 q 1269 928 1294 914 q 1166 943 1244 943 l 1166 1017 l 1516 1017 l 1516 943 q 1438 926 1466 943 q 1398 869 1411 909 l 1120 0 l 1032 0 l 781 743 l 540 0 l 460 0 l 157 869 m 1054 1144 q 1021 1120 1054 1120 q 981 1133 1004 1121 l 807 1221 l 633 1133 q 593 1120 610 1121 q 560 1144 560 1120 q 570 1166 560 1155 l 769 1356 l 845 1356 l 1044 1166 q 1054 1144 1054 1155 z "},"ŵ":{"ha":1138,"x_min":-7,"x_max":1147,"o":"m 0 0 m 90 541 q 56 597 73 582 q -7 613 38 613 l -7 688 l 335 688 l 335 613 q 249 601 264 613 q 235 574 235 588 q 243 541 235 561 l 374 172 l 549 688 l 648 688 l 819 157 l 947 541 q 938 596 962 580 q 838 613 914 613 l 838 688 l 1147 688 l 1147 613 q 1079 595 1103 613 q 1043 541 1056 578 l 855 0 l 741 0 l 572 465 l 414 0 l 300 0 l 90 541 m 440 814 q 400 791 416 791 q 365 816 365 791 q 371 833 365 824 l 556 1085 l 632 1085 l 817 833 q 823 819 823 824 q 795 791 823 791 q 748 814 772 791 l 594 932 l 440 814 z "},"Ŷ":{"ha":938,"x_min":-24,"x_max":962,"o":"m 0 0 m 268 75 q 369 87 345 75 q 401 114 394 100 q 408 149 408 128 l 408 341 l 124 869 q 77 922 101 910 q -24 943 37 943 l -24 1017 l 368 1017 l 368 943 q 292 926 303 943 q 302 869 281 910 l 503 455 l 715 869 q 724 922 736 910 q 612 943 701 943 l 612 1017 l 962 1017 l 962 943 q 880 926 912 943 q 826 869 848 909 l 553 368 l 553 149 q 581 90 553 106 q 693 75 608 75 l 693 0 l 268 0 l 268 75 m 756 1144 q 724 1120 756 1120 q 684 1133 706 1121 l 509 1221 l 335 1133 q 295 1120 313 1121 q 262 1144 262 1120 q 273 1166 262 1155 l 471 1356 l 547 1356 l 746 1166 q 756 1144 756 1155 z "},"ŷ":{"ha":781,"x_min":3,"x_max":803,"o":"m 3 0 m 195 -262 q 224 -265 212 -265 q 253 -253 236 -264 q 285 -224 269 -242 q 337 -140 315 -189 q 359 -62 359 -90 q 352 -18 359 -33 q 336 8 345 -3 q 315 30 326 19 q 298 59 304 41 l 101 541 q 71 598 87 583 q 3 613 56 613 l 3 688 l 368 688 l 368 613 q 273 601 290 613 q 256 574 257 588 q 262 541 256 561 l 431 79 l 603 541 q 593 596 618 580 q 487 613 568 613 l 487 688 l 803 688 l 803 613 q 735 595 758 613 q 699 541 713 577 l 517 56 q 472 -49 493 2 q 429 -144 451 -100 q 325 -295 381 -244 q 194 -346 269 -346 q 78 -309 119 -346 q 37 -223 37 -272 q 64 -146 37 -175 q 132 -118 92 -118 q 213 -170 191 -118 q 220 -203 220 -185 q 195 -262 220 -237 m 271 814 q 231 791 246 791 q 195 816 195 791 q 201 833 195 824 l 387 1085 l 463 1085 l 648 833 q 654 819 654 824 q 626 791 654 791 q 578 814 603 791 l 425 932 l 271 814 z "},"Ÿ":{"ha":938,"x_min":-24,"x_max":962,"o":"m 0 0 m 268 75 q 369 87 345 75 q 401 114 394 100 q 408 149 408 128 l 408 341 l 124 869 q 77 922 101 910 q -24 943 37 943 l -24 1017 l 368 1017 l 368 943 q 292 926 303 943 q 302 869 281 910 l 503 455 l 715 869 q 724 922 736 910 q 612 943 701 943 l 612 1017 l 962 1017 l 962 943 q 880 926 912 943 q 826 869 848 909 l 553 368 l 553 149 q 581 90 553 106 q 693 75 608 75 l 693 0 l 268 0 l 268 75 m 672 1123 q 598 1152 629 1123 q 568 1224 568 1181 q 598 1297 568 1267 q 672 1327 629 1327 q 746 1297 715 1327 q 776 1224 776 1267 q 746 1152 776 1181 q 672 1123 715 1123 m 347 1123 q 273 1152 303 1123 q 243 1224 243 1181 q 273 1297 243 1267 q 347 1327 303 1327 q 420 1297 390 1327 q 450 1224 450 1267 q 420 1152 450 1181 q 347 1123 390 1123 z "},"Ź":{"ha":876,"x_min":60,"x_max":837,"o":"m 60 0 m 60 81 l 636 935 l 315 935 q 213 890 244 935 q 182 739 182 845 l 80 739 l 94 1017 l 815 1017 l 815 936 l 239 83 l 579 83 q 733 301 733 83 l 837 301 l 803 0 l 60 0 l 60 81 m 494 1122 q 435 1095 456 1095 q 394 1130 394 1095 q 406 1161 394 1145 l 490 1276 q 545 1344 526 1326 q 608 1363 565 1363 q 665 1322 651 1363 q 669 1295 669 1310 q 630 1223 669 1253 l 494 1122 z "},"ź":{"ha":713,"x_min":59,"x_max":654,"o":"m 59 0 m 59 77 l 477 614 l 264 614 q 161 507 187 614 q 149 441 153 476 l 60 442 l 81 688 l 641 688 l 641 607 l 229 75 l 442 75 q 551 161 527 75 q 564 229 559 190 l 654 229 l 634 0 l 59 0 l 59 77 m 396 851 q 336 810 371 810 q 310 820 319 810 q 301 841 301 831 q 303 858 301 850 l 337 1018 q 366 1109 352 1088 q 431 1146 391 1146 q 512 1080 512 1146 q 484 998 512 1044 l 396 851 z "},"Ż":{"ha":876,"x_min":60,"x_max":837,"o":"m 60 0 m 60 81 l 636 935 l 315 935 q 213 890 244 935 q 182 739 182 845 l 80 739 l 94 1017 l 815 1017 l 815 936 l 239 83 l 579 83 q 733 301 733 83 l 837 301 l 803 0 l 60 0 l 60 81 m 465 1135 q 362 1199 391 1135 q 353 1243 353 1219 q 362 1288 353 1268 q 387 1320 372 1307 q 465 1346 418 1346 q 534 1326 511 1346 q 576 1242 576 1291 q 543 1165 576 1196 q 465 1135 511 1135 z "},"ż":{"ha":713,"x_min":59,"x_max":654,"o":"m 59 0 m 59 77 l 477 614 l 264 614 q 161 507 187 614 q 149 441 153 476 l 60 442 l 81 688 l 641 688 l 641 607 l 229 75 l 442 75 q 551 161 527 75 q 564 229 559 190 l 654 229 l 634 0 l 59 0 l 59 77 m 357 823 q 254 887 283 823 q 245 932 245 907 q 278 1007 245 979 q 357 1034 310 1034 q 427 1015 404 1034 q 468 931 468 979 q 435 853 468 884 q 357 823 403 823 z "},"Ž":{"ha":876,"x_min":60,"x_max":837,"o":"m 60 0 m 60 81 l 636 935 l 315 935 q 213 890 244 935 q 182 739 182 845 l 80 739 l 94 1017 l 815 1017 l 815 936 l 239 83 l 579 83 q 733 301 733 83 l 837 301 l 803 0 l 60 0 l 60 81 m 679 1337 q 711 1314 711 1337 q 701 1292 711 1303 l 503 1101 l 427 1101 l 228 1292 q 218 1314 218 1303 q 250 1337 218 1337 q 290 1325 268 1337 l 465 1236 l 639 1325 q 679 1337 661 1337 z "},"ž":{"ha":713,"x_min":59,"x_max":654,"o":"m 59 0 m 59 77 l 477 614 l 264 614 q 161 507 187 614 q 149 441 153 476 l 60 442 l 81 688 l 641 688 l 641 607 l 229 75 l 442 75 q 551 161 527 75 q 564 229 559 190 l 654 229 l 634 0 l 59 0 l 59 77 m 319 791 l 134 1042 q 127 1057 127 1052 q 155 1084 127 1084 q 203 1062 178 1084 l 357 943 l 511 1062 q 551 1084 535 1084 q 586 1060 586 1084 q 580 1042 586 1052 l 395 791 l 319 791 z "},"ƒ":{"ha":817,"x_min":-11,"x_max":924,"o":"m 783 990 q 725 1035 764 1035 q 667 1015 686 1035 q 574 679 601 941 l 784 679 l 784 600 l 563 600 l 499 79 q 393 -230 475 -114 q 184 -346 310 -346 q 46 -298 102 -346 q -11 -172 -11 -250 q 18 -93 -11 -125 q 98 -61 46 -61 q 172 -117 149 -61 q 178 -153 178 -134 q 130 -231 178 -205 q 179 -269 147 -269 q 234 -254 210 -269 q 278 -197 258 -239 q 354 105 316 -119 l 408 556 q 402 591 408 583 q 374 600 395 600 l 311 600 l 311 679 l 385 679 q 433 728 427 679 q 534 1014 455 915 q 736 1112 614 1112 q 872 1058 821 1112 q 924 925 924 1004 q 898 856 924 884 q 829 827 871 827 q 749 883 771 827 q 742 919 742 899 q 783 990 742 964 z "},"Ǽ":{"ha":1505,"x_min":28,"x_max":1444,"o":"m 28 0 m 28 75 q 171 149 121 75 l 626 838 q 603 937 678 916 q 553 943 584 943 l 475 943 l 475 1017 l 1398 1017 l 1424 771 l 1326 770 l 1308 847 q 1280 916 1294 902 q 1195 941 1255 941 l 941 941 l 941 547 l 1067 547 q 1126 548 1104 547 q 1161 561 1147 549 q 1175 641 1175 572 l 1277 641 l 1277 378 l 1175 378 q 1161 456 1175 444 q 1126 470 1147 468 q 1067 472 1104 472 l 941 472 l 941 75 l 1221 75 q 1323 123 1305 75 q 1334 161 1329 140 l 1352 245 l 1444 245 l 1417 0 l 673 0 l 673 75 q 758 87 739 75 q 782 113 777 99 q 787 147 787 127 l 787 319 l 397 319 l 286 149 q 281 92 260 110 q 392 75 302 75 l 392 0 l 28 0 l 28 75 m 787 393 l 787 913 l 446 393 l 787 393 m 955 1122 q 895 1095 917 1095 q 854 1130 854 1095 q 867 1161 854 1145 l 950 1276 q 1006 1344 986 1326 q 1068 1363 1025 1363 q 1126 1322 1112 1363 q 1130 1295 1130 1310 q 1090 1223 1130 1253 l 955 1122 z "},"ǽ":{"ha":1194,"x_min":63,"x_max":1132,"o":"m 63 0 m 552 125 q 281 -14 475 -14 q 128 35 193 -14 q 63 168 63 83 q 129 307 63 252 q 280 388 195 361 q 407 428 365 414 q 472 457 448 443 q 504 490 495 472 q 512 532 512 508 q 477 601 512 575 q 388 627 442 627 q 239 581 301 627 q 271 515 271 557 q 216 434 271 457 q 173 427 200 427 q 121 451 145 427 q 97 515 97 475 q 186 649 97 596 q 412 701 275 701 q 610 624 549 701 q 830 701 696 701 q 1107 531 1044 701 q 1132 370 1132 463 q 1131 313 1132 340 l 660 313 q 715 133 660 197 q 840 68 771 68 q 947 92 909 68 q 1008 158 985 115 l 1109 159 q 1020 37 1093 87 q 824 -14 947 -14 q 608 62 701 -14 q 552 125 576 88 m 974 414 q 833 622 974 622 q 709 560 754 622 q 660 389 664 498 l 973 389 q 974 414 974 402 m 512 395 q 359 331 477 377 q 226 182 226 282 q 254 107 226 134 q 323 81 282 81 q 458 136 404 81 q 512 290 512 191 l 512 395 m 657 851 q 597 810 632 810 q 571 820 581 810 q 562 841 562 831 q 564 858 562 850 l 598 1018 q 627 1109 613 1088 q 692 1146 652 1146 q 773 1080 773 1146 q 745 998 773 1044 l 657 851 z "},"Ș":{"ha":869,"x_min":101,"x_max":772,"o":"m 101 0 m 600 902 q 449 949 565 949 q 290 872 334 949 q 275 807 275 846 q 338 677 275 736 q 455 596 380 637 q 580 522 529 555 q 772 255 772 400 q 677 56 772 126 q 432 -14 583 -14 q 192 46 282 -14 q 101 182 101 105 q 163 286 101 259 q 204 295 182 295 q 274 267 247 295 q 302 195 302 238 q 262 121 302 151 q 438 68 315 68 q 606 151 560 68 q 622 217 622 179 q 554 339 622 283 q 435 415 519 368 q 303 492 351 461 q 126 761 126 606 q 217 956 126 882 q 443 1031 309 1031 q 664 973 578 1031 q 751 833 751 916 q 723 758 751 788 q 654 728 696 728 q 564 784 589 728 q 557 820 557 801 q 600 902 557 872 m 406 -247 q 395 -242 406 -247 q 369 -215 383 -237 q 354 -172 354 -193 q 378 -111 354 -133 q 440 -88 401 -88 q 505 -116 479 -88 q 530 -184 530 -144 q 488 -310 530 -257 q 379 -371 445 -363 l 353 -330 q 414 -286 399 -315 q 406 -247 429 -257 z "},"ș":{"ha":661,"x_min":58,"x_max":604,"o":"m 58 0 m 433 597 q 319 632 398 632 q 213 575 241 632 q 205 538 205 559 q 222 498 205 517 q 264 461 238 479 q 322 428 290 444 q 389 393 354 412 q 462 353 423 374 q 604 181 604 275 q 530 37 604 87 q 336 -14 457 -14 q 136 30 215 -14 q 58 142 58 73 q 82 205 58 179 q 145 231 107 231 q 209 207 184 231 q 234 149 234 182 q 211 93 234 116 q 346 62 265 62 q 458 99 426 62 q 472 138 472 114 q 347 255 472 194 q 217 322 260 298 q 78 512 78 401 q 149 649 78 597 q 330 701 220 701 q 514 660 439 701 q 589 553 589 618 q 571 497 589 515 q 510 465 539 465 q 438 489 463 465 q 414 545 414 513 q 433 597 414 576 m 316 -247 q 304 -242 316 -247 q 278 -215 293 -237 q 264 -172 264 -193 q 288 -111 264 -133 q 350 -88 311 -88 q 414 -116 389 -88 q 440 -184 440 -144 q 397 -310 440 -257 q 289 -371 355 -363 l 263 -330 q 323 -286 309 -315 q 316 -247 338 -257 z "},"ȷ":{"ha":422,"x_min":-68,"x_max":318,"o":"m 76 -142 q 85 -151 76 -142 q 100 -174 94 -159 q 106 -214 106 -189 q 82 -262 106 -239 q 110 -268 100 -269 q 196 -135 196 -262 q 183 -18 196 -96 q 171 113 171 59 l 171 519 q 162 583 171 568 q 117 597 154 597 l 54 597 l 54 672 q 163 682 121 672 q 223 696 205 692 q 260 701 241 701 q 306 680 295 701 q 317 614 317 659 l 318 7 q 195 -326 318 -262 q 110 -346 155 -346 q -19 -309 31 -346 q -68 -225 -68 -272 q -50 -159 -68 -179 q 20 -125 -17 -125 q 76 -142 58 -125 z "},"ˆ":{"ha":0,"x_min":-229,"x_max":229,"o":"m -154 814 q -194 791 -178 791 q -229 816 -229 791 q -223 833 -229 824 l -38 1085 l 38 1085 l 223 833 q 229 819 229 824 q 201 791 229 791 q 154 814 178 791 l 0 932 l -154 814 z "},"ˇ":{"ha":0,"x_min":-229,"x_max":229,"o":"m -38 791 l -223 1042 q -229 1057 -229 1052 q -201 1084 -229 1084 q -154 1062 -178 1084 l 0 943 l 154 1062 q 194 1084 178 1084 q 229 1060 229 1084 q 223 1042 229 1052 l 38 791 l -38 791 z "},"˘":{"ha":0,"x_min":-228,"x_max":228,"o":"m 0 930 q 151 1045 113 930 l 228 1045 q 162 869 224 936 q 0 802 100 802 q -162 869 -100 802 q -228 1045 -224 936 l -151 1045 q 0 930 -113 930 z "},"˙":{"ha":0,"x_min":-111,"x_max":111,"o":"m 0 823 q -102 887 -74 823 q -111 932 -111 907 q -79 1007 -111 979 q 0 1034 -47 1034 q 70 1015 47 1034 q 111 931 111 979 q 79 853 111 884 q 0 823 46 823 z "},"˚":{"ha":0,"x_min":-188,"x_max":189,"o":"m 0 796 q -133 851 -79 796 q -188 984 -188 905 q -133 1118 -188 1063 q 0 1173 -78 1173 q 133 1117 78 1173 q 189 984 189 1062 q 134 851 189 906 q 0 796 79 796 m 0 877 q 77 939 56 877 q 83 984 83 959 q 60 1061 83 1031 q 0 1090 36 1090 q -77 1029 -56 1090 q -83 984 -83 1009 q -33 884 -83 909 q 0 877 -17 877 z "},"˛":{"ha":1158,"x_min":543,"x_max":854,"o":"m 665 -180 q 730 -241 665 -241 q 773 -217 754 -241 q 793 -149 793 -193 l 854 -149 q 854 -178 854 -153 q 842 -238 854 -203 q 808 -298 831 -273 q 691 -346 765 -346 q 553 -263 589 -346 q 543 -202 543 -236 q 556 -137 543 -168 q 593 -78 570 -106 q 686 9 631 -30 q 783 66 741 47 q 792 56 787 61 q 817 16 811 37 q 766 -23 793 -3 q 665 -180 665 -98 z "},"˜":{"ha":0,"x_min":-275,"x_max":275,"o":"m 167 853 q 96 836 134 836 q 35 844 59 836 q -9 865 10 852 q -45 893 -29 878 q -85 929 -62 908 q -127 951 -109 951 q -193 891 -182 951 l -202 828 l -275 828 q -168 1055 -266 1003 q -97 1073 -134 1073 q -35 1064 -59 1073 q 9 1043 -11 1056 q 45 1015 29 1030 q 86 979 62 1000 q 127 958 110 958 q 191 1017 179 958 l 201 1080 l 275 1080 q 167 853 262 903 z "},"˝":{"ha":0,"x_min":-173,"x_max":399,"o":"m 201 834 q 142 806 163 806 q 101 842 101 806 q 113 873 101 857 l 220 1011 q 275 1080 256 1061 q 338 1099 295 1099 q 395 1058 381 1099 q 399 1030 399 1046 q 360 959 399 988 l 201 834 m -73 834 q -132 806 -111 806 q -173 842 -173 806 q -161 873 -173 857 l -56 1011 q 0 1080 -20 1061 q 63 1099 20 1099 q 120 1058 106 1099 q 124 1030 124 1046 q 85 959 124 988 l -73 834 z "},"Δ":{"ha":1090,"x_min":50,"x_max":1040,"o":"m 50 0 m 50 73 l 503 1017 l 601 1017 l 1040 73 l 1040 0 l 50 0 l 50 73 m 869 73 l 515 830 l 153 73 l 869 73 z "},"Ω":{"ha":1173,"x_min":90,"x_max":1082,"o":"m 90 0 m 90 253 l 147 254 l 165 204 q 181 163 174 180 q 198 133 187 145 q 278 110 220 110 l 422 110 q 154 397 238 232 q 103 593 103 498 q 231 910 103 785 q 586 1034 359 1034 q 941 910 812 1034 q 1069 597 1069 785 q 897 231 1069 408 q 749 110 831 164 l 894 110 q 974 133 951 110 q 991 163 985 145 q 1006 204 998 180 l 1025 254 l 1082 253 l 1049 0 l 623 1 l 623 96 q 837 346 774 239 q 901 597 901 452 q 814 852 901 743 q 586 961 727 961 q 358 852 445 961 q 271 597 271 743 q 335 346 271 452 q 549 96 398 239 l 549 1 l 123 0 l 90 253 z "},"μ":{"ha":866,"x_min":46,"x_max":850,"o":"m 46 0 m 675 148 q 717 81 675 81 q 785 177 760 81 l 850 177 q 669 -14 803 -14 q 563 48 597 -14 q 549 96 552 68 q 328 -14 462 -14 q 203 45 242 -14 q 214 -144 214 -67 q 188 -312 214 -269 q 132 -355 161 -355 q 65 -318 83 -355 q 46 -222 46 -281 q 59 -100 46 -164 q 90 26 72 -37 q 125 149 107 90 q 153 258 143 208 l 201 515 q 205 551 205 535 q 196 580 205 566 q 146 593 187 593 l 112 593 l 112 672 q 208 682 174 672 q 256 696 241 692 q 298 701 271 701 q 341 682 326 701 q 356 645 356 663 q 353 614 356 627 l 285 254 q 275 183 275 211 q 380 75 275 75 q 478 112 430 75 q 547 201 526 149 l 602 515 q 599 575 611 557 q 547 593 587 593 l 512 593 l 512 672 q 608 682 574 672 q 656 696 642 692 q 698 701 671 701 q 741 681 726 701 q 756 644 756 662 q 753 614 756 627 l 679 180 q 675 148 675 159 z "},"π":{"ha":1000,"x_min":43,"x_max":971,"o":"m 856 177 q 675 -14 809 -14 q 585 26 623 -14 q 547 140 547 66 q 553 201 547 168 l 621 515 q 625 545 625 534 q 625 559 625 555 l 470 559 q 281 16 418 106 q 195 -14 236 -14 q 83 24 123 -14 q 43 110 43 62 q 70 186 43 157 q 138 214 97 214 q 218 163 196 214 q 225 121 225 147 q 198 68 225 94 q 212 68 207 66 q 369 465 326 76 q 379 559 375 517 l 264 559 q 220 549 233 559 q 195 484 195 530 l 124 484 q 123 513 123 493 q 155 627 123 581 q 285 688 197 688 l 769 688 q 846 700 828 688 q 871 725 865 713 q 882 754 877 738 l 893 804 l 971 804 l 924 559 l 762 559 l 685 180 q 681 141 681 158 q 694 96 681 110 q 723 81 707 81 q 791 177 766 81 l 856 177 z "},"Ḃ":{"ha":931,"x_min":56,"x_max":882,"o":"m 56 0 m 657 536 q 882 286 882 477 q 858 162 882 206 q 804 90 834 117 q 468 0 707 0 l 56 0 l 56 75 q 145 87 127 75 q 166 114 163 100 q 170 149 170 128 l 170 869 q 155 924 170 913 q 56 943 127 943 l 56 1017 l 433 1017 q 793 887 708 1017 q 827 767 827 836 q 657 536 827 606 m 414 557 q 646 669 604 562 q 659 747 659 704 q 605 891 659 839 q 420 943 551 943 l 322 943 l 322 557 l 414 557 m 455 75 q 701 206 657 75 q 713 290 713 245 q 643 439 713 384 q 448 496 572 494 q 419 496 434 496 q 389 496 404 496 l 322 496 l 322 75 l 455 75 m 469 1135 q 366 1199 395 1135 q 357 1243 357 1219 q 367 1288 357 1268 q 391 1320 376 1307 q 469 1346 422 1346 q 538 1326 515 1346 q 580 1242 580 1291 q 547 1165 580 1196 q 469 1135 515 1135 z "},"ḃ":{"ha":840,"x_min":29,"x_max":781,"o":"m 29 0 m 262 79 q 233 0 233 52 l 132 0 l 132 876 q 124 939 132 924 q 77 954 115 954 l 29 954 l 29 1029 q 133 1039 95 1029 q 186 1053 170 1048 q 220 1057 202 1057 q 268 1037 256 1057 q 279 970 279 1016 l 279 607 q 487 701 351 701 q 702 615 622 701 q 781 360 781 528 q 698 89 781 192 q 466 -14 615 -14 q 262 79 343 -14 m 275 336 q 275 274 275 336 q 322 140 275 212 q 450 68 370 68 q 577 142 530 68 q 623 338 623 216 q 531 597 623 532 q 453 619 498 619 q 375 597 408 619 q 321 538 342 576 q 275 336 275 460 m 540 823 q 437 887 466 823 q 429 932 429 907 q 461 1007 429 979 q 540 1034 493 1034 q 610 1015 587 1034 q 651 931 651 979 q 618 853 651 884 q 540 823 586 823 z "},"Ḋ":{"ha":1029,"x_min":56,"x_max":974,"o":"m 56 0 m 56 75 q 145 87 127 75 q 166 114 163 100 q 170 149 170 128 l 170 869 q 155 924 170 913 q 56 943 127 943 l 56 1017 l 420 1017 q 947 730 858 1017 q 974 537 974 640 q 954 357 974 435 q 897 220 933 279 q 705 53 827 106 q 433 0 583 0 l 56 0 l 56 75 m 448 75 q 797 530 797 75 q 701 837 797 724 q 414 949 604 949 l 322 949 l 322 75 l 448 75 m 492 1135 q 389 1199 418 1135 q 380 1243 380 1219 q 390 1288 380 1268 q 414 1320 399 1307 q 492 1346 445 1346 q 562 1326 538 1346 q 603 1242 603 1291 q 570 1165 603 1196 q 492 1135 538 1135 z "},"ḋ":{"ha":832,"x_min":65,"x_max":814,"o":"m 65 0 m 587 107 q 368 -14 507 -14 q 147 78 229 -14 q 65 324 65 170 q 149 608 65 514 q 378 701 233 701 q 568 625 489 701 l 568 876 q 558 939 568 924 q 510 954 548 954 l 462 954 l 462 1029 q 567 1039 529 1029 q 621 1053 605 1048 q 656 1057 637 1057 q 703 1037 692 1057 q 714 970 714 1016 l 714 180 q 720 99 714 115 q 775 69 731 69 q 814 77 798 69 l 814 11 q 726 -14 781 -14 q 587 107 614 -14 m 314 91 q 393 68 347 68 q 527 143 482 68 q 571 350 571 218 q 467 602 571 547 q 394 620 434 620 q 269 546 314 620 q 223 350 223 473 q 314 91 223 154 m 258 823 q 156 887 184 823 q 147 932 147 907 q 179 1007 147 979 q 258 1034 212 1034 q 328 1015 305 1034 q 370 931 370 979 q 337 853 370 884 q 258 823 304 823 z "},"Ḟ":{"ha":869,"x_min":56,"x_max":806,"o":"m 56 0 m 56 75 q 145 87 127 75 q 166 114 163 100 q 170 149 170 128 l 170 869 q 144 927 170 911 q 56 943 119 943 l 56 1017 l 780 1017 l 806 771 l 708 770 l 690 847 q 662 916 676 902 q 577 941 637 941 l 322 941 l 322 547 l 447 547 q 541 557 524 547 q 565 586 558 567 q 571 641 571 605 l 659 641 l 659 378 l 571 378 q 546 457 571 441 q 447 472 522 472 l 322 472 l 322 182 q 327 127 322 148 q 361 90 332 106 q 535 75 390 75 l 535 0 l 56 0 l 56 75 m 431 1135 q 328 1199 357 1135 q 319 1243 319 1219 q 329 1288 319 1268 q 353 1320 338 1307 q 431 1346 384 1346 q 500 1326 477 1346 q 542 1242 542 1291 q 509 1165 542 1196 q 431 1135 477 1135 z "}}}
